M48
; DRILL file {KiCad (5.1.12)-1} date 04/21/22 18:21:59
; FORMAT={-:-/ absolute / metric / decimal}
; #@! TF.CreationDate,2022-04-21T18:21:59-07:00
; #@! TF.GenerationSoftware,Kicad,Pcbnew,(5.1.12)-1
; #@! TF.FileFunction,Plated,1,2,PTH
FMAT,2
METRIC
T1C0.400
T2C1.000
T3C2.200
%
G90
G05
T1
X102.997Y-58.293
X105.918Y-55.245
X107.315Y-38.354
X108.966Y-59.817
X108.966Y-67.056
X111.252Y-50.038
X111.887Y-53.975
X120.777Y-42.164
X125.095Y-57.531
X125.857Y-65.024
X126.111Y-41.91
X127.254Y-61.849
X128.397Y-65.024
X129.489Y-59.563
X129.921Y-48.387
X131.826Y-40.386
X134.239Y-45.339
X134.493Y-53.34
X135.509Y-57.15
X136.906Y-53.34
X138.176Y-58.801
X138.938Y-54.61
X139.181Y-44.196
X139.446Y-39.751
X140.121Y-55.793
X140.208Y-58.801
X140.208Y-61.214
X140.462Y-51.816
X142.748Y-44.196
X145.796Y-46.101
X145.859Y-52.832
X146.05Y-59.563
X146.177Y-57.785
X148.336Y-56.261
X148.336Y-61.595
X150.495Y-58.166
X151.511Y-53.594
X152.146Y-64.516
X156.35Y-57.404
X156.845Y-54.737
X159.512Y-65.278
X159.639Y-57.404
X161.036Y-41.275
X162.179Y-45.466
X162.814Y-41.275
X163.474Y-57.404
X163.83Y-43.18
X164.084Y-51.816
X166.624Y-66.929
X167.384Y-51.308
X167.386Y-49.136
X174.117Y-40.767
X175.133Y-61.595
T2
X110.49Y-45.974
X113.03Y-45.974
X113.665Y-35.56
X116.205Y-35.56
X118.11Y-70.739
X118.745Y-35.56
X120.65Y-70.739
X121.285Y-35.56
X123.19Y-70.739
X123.825Y-35.56
X125.73Y-70.739
X128.27Y-70.739
X130.81Y-70.739
X133.35Y-70.739
X135.89Y-70.739
X136.398Y-35.56
X138.43Y-70.739
X138.938Y-35.56
X140.97Y-70.739
X141.478Y-35.56
X143.51Y-70.739
X144.018Y-35.56
X146.05Y-70.739
X146.558Y-35.56
X148.59Y-70.739
X149.098Y-35.56
X151.13Y-70.739
X151.638Y-35.56
X153.67Y-70.739
X154.178Y-35.56
X156.21Y-70.739
X156.718Y-35.56
X158.75Y-70.739
X159.258Y-35.56
X161.29Y-70.739
X161.798Y-35.56
X163.83Y-70.739
X164.338Y-35.56
X166.37Y-70.739
X171.196Y-52.705
X171.196Y-55.245
X171.196Y-57.785
X173.736Y-52.705
X173.736Y-55.245
X173.736Y-57.785
T3
X103.632Y-35.56
X103.632Y-70.485
X174.879Y-35.687
X174.879Y-70.485
T0
M30
