%TF.GenerationSoftware,KiCad,Pcbnew,(5.1.12)-1*%
%TF.CreationDate,2022-04-21T18:08:35-07:00*%
%TF.ProjectId,ATMega809 Breakout,41544d65-6761-4383-9039-20427265616b,rev?*%
%TF.SameCoordinates,Original*%
%TF.FileFunction,Soldermask,Bot*%
%TF.FilePolarity,Negative*%
%FSLAX46Y46*%
G04 Gerber Fmt 4.6, Leading zero omitted, Abs format (unit mm)*
G04 Created by KiCad (PCBNEW (5.1.12)-1) date 2022-04-21 18:08:35*
%MOMM*%
%LPD*%
G01*
G04 APERTURE LIST*
%ADD10O,1.700000X1.700000*%
%ADD11R,1.700000X1.700000*%
%ADD12C,3.800000*%
G04 APERTURE END LIST*
D10*
%TO.C,J4*%
X164338000Y-35560000D03*
X161798000Y-35560000D03*
X159258000Y-35560000D03*
X156718000Y-35560000D03*
X154178000Y-35560000D03*
X151638000Y-35560000D03*
X149098000Y-35560000D03*
X146558000Y-35560000D03*
X144018000Y-35560000D03*
X141478000Y-35560000D03*
X138938000Y-35560000D03*
D11*
X136398000Y-35560000D03*
%TD*%
D10*
%TO.C,J3*%
X166370000Y-70739000D03*
X163830000Y-70739000D03*
X161290000Y-70739000D03*
X158750000Y-70739000D03*
X156210000Y-70739000D03*
X153670000Y-70739000D03*
X151130000Y-70739000D03*
X148590000Y-70739000D03*
X146050000Y-70739000D03*
X143510000Y-70739000D03*
X140970000Y-70739000D03*
X138430000Y-70739000D03*
X135890000Y-70739000D03*
X133350000Y-70739000D03*
X130810000Y-70739000D03*
X128270000Y-70739000D03*
X125730000Y-70739000D03*
X123190000Y-70739000D03*
X120650000Y-70739000D03*
D11*
X118110000Y-70739000D03*
%TD*%
D10*
%TO.C,J2*%
X123825000Y-35560000D03*
X121285000Y-35560000D03*
X118745000Y-35560000D03*
X116205000Y-35560000D03*
D11*
X113665000Y-35560000D03*
%TD*%
D12*
%TO.C,H4*%
X103632000Y-35560000D03*
%TD*%
%TO.C,H3*%
X103632000Y-70485000D03*
%TD*%
%TO.C,H2*%
X174879000Y-70485000D03*
%TD*%
%TO.C,H1*%
X174879000Y-35687000D03*
%TD*%
D10*
%TO.C,J5*%
X173736000Y-57785000D03*
X171196000Y-57785000D03*
X173736000Y-55245000D03*
X171196000Y-55245000D03*
X173736000Y-52705000D03*
D11*
X171196000Y-52705000D03*
%TD*%
D10*
%TO.C,JP1*%
X110490000Y-45974000D03*
D11*
X113030000Y-45974000D03*
%TD*%
M02*
