%TF.GenerationSoftware,KiCad,Pcbnew,(5.1.12)-1*%
%TF.CreationDate,2022-04-21T18:08:35-07:00*%
%TF.ProjectId,ATMega809 Breakout,41544d65-6761-4383-9039-20427265616b,rev?*%
%TF.SameCoordinates,Original*%
%TF.FileFunction,Soldermask,Top*%
%TF.FilePolarity,Negative*%
%FSLAX46Y46*%
G04 Gerber Fmt 4.6, Leading zero omitted, Abs format (unit mm)*
G04 Created by KiCad (PCBNEW (5.1.12)-1) date 2022-04-21 18:08:35*
%MOMM*%
%LPD*%
G01*
G04 APERTURE LIST*
%ADD10R,1.900000X1.000000*%
%ADD11R,1.900000X1.800000*%
%ADD12R,1.300000X1.650000*%
%ADD13R,1.550000X1.425000*%
%ADD14R,1.380000X0.450000*%
%ADD15R,0.863600X0.708000*%
%ADD16R,1.092200X1.800200*%
%ADD17R,0.708000X0.863600*%
%ADD18R,1.800200X1.092200*%
%ADD19R,2.000000X1.500000*%
%ADD20R,2.000000X3.800000*%
%ADD21R,1.143000X0.762000*%
%ADD22R,0.939800X1.397000*%
%ADD23C,2.000000*%
%ADD24O,1.700000X1.700000*%
%ADD25R,1.700000X1.700000*%
%ADD26C,3.800000*%
%ADD27R,0.900000X0.800000*%
G04 APERTURE END LIST*
%TO.C,R13*%
G36*
G01*
X172676000Y-63606000D02*
X172676000Y-64156000D01*
G75*
G02*
X172476000Y-64356000I-200000J0D01*
G01*
X172076000Y-64356000D01*
G75*
G02*
X171876000Y-64156000I0J200000D01*
G01*
X171876000Y-63606000D01*
G75*
G02*
X172076000Y-63406000I200000J0D01*
G01*
X172476000Y-63406000D01*
G75*
G02*
X172676000Y-63606000I0J-200000D01*
G01*
G37*
G36*
G01*
X174326000Y-63606000D02*
X174326000Y-64156000D01*
G75*
G02*
X174126000Y-64356000I-200000J0D01*
G01*
X173726000Y-64356000D01*
G75*
G02*
X173526000Y-64156000I0J200000D01*
G01*
X173526000Y-63606000D01*
G75*
G02*
X173726000Y-63406000I200000J0D01*
G01*
X174126000Y-63406000D01*
G75*
G02*
X174326000Y-63606000I0J-200000D01*
G01*
G37*
%TD*%
%TO.C,C10*%
G36*
G01*
X148586000Y-58603000D02*
X148086000Y-58603000D01*
G75*
G02*
X147861000Y-58378000I0J225000D01*
G01*
X147861000Y-57928000D01*
G75*
G02*
X148086000Y-57703000I225000J0D01*
G01*
X148586000Y-57703000D01*
G75*
G02*
X148811000Y-57928000I0J-225000D01*
G01*
X148811000Y-58378000D01*
G75*
G02*
X148586000Y-58603000I-225000J0D01*
G01*
G37*
G36*
G01*
X148586000Y-60153000D02*
X148086000Y-60153000D01*
G75*
G02*
X147861000Y-59928000I0J225000D01*
G01*
X147861000Y-59478000D01*
G75*
G02*
X148086000Y-59253000I225000J0D01*
G01*
X148586000Y-59253000D01*
G75*
G02*
X148811000Y-59478000I0J-225000D01*
G01*
X148811000Y-59928000D01*
G75*
G02*
X148586000Y-60153000I-225000J0D01*
G01*
G37*
%TD*%
%TO.C,R14*%
G36*
G01*
X164001000Y-49678000D02*
X164001000Y-49128000D01*
G75*
G02*
X164201000Y-48928000I200000J0D01*
G01*
X164601000Y-48928000D01*
G75*
G02*
X164801000Y-49128000I0J-200000D01*
G01*
X164801000Y-49678000D01*
G75*
G02*
X164601000Y-49878000I-200000J0D01*
G01*
X164201000Y-49878000D01*
G75*
G02*
X164001000Y-49678000I0J200000D01*
G01*
G37*
G36*
G01*
X162351000Y-49678000D02*
X162351000Y-49128000D01*
G75*
G02*
X162551000Y-48928000I200000J0D01*
G01*
X162951000Y-48928000D01*
G75*
G02*
X163151000Y-49128000I0J-200000D01*
G01*
X163151000Y-49678000D01*
G75*
G02*
X162951000Y-49878000I-200000J0D01*
G01*
X162551000Y-49878000D01*
G75*
G02*
X162351000Y-49678000I0J200000D01*
G01*
G37*
%TD*%
%TO.C,R12*%
G36*
G01*
X163089000Y-60154000D02*
X162539000Y-60154000D01*
G75*
G02*
X162339000Y-59954000I0J200000D01*
G01*
X162339000Y-59554000D01*
G75*
G02*
X162539000Y-59354000I200000J0D01*
G01*
X163089000Y-59354000D01*
G75*
G02*
X163289000Y-59554000I0J-200000D01*
G01*
X163289000Y-59954000D01*
G75*
G02*
X163089000Y-60154000I-200000J0D01*
G01*
G37*
G36*
G01*
X163089000Y-61804000D02*
X162539000Y-61804000D01*
G75*
G02*
X162339000Y-61604000I0J200000D01*
G01*
X162339000Y-61204000D01*
G75*
G02*
X162539000Y-61004000I200000J0D01*
G01*
X163089000Y-61004000D01*
G75*
G02*
X163289000Y-61204000I0J-200000D01*
G01*
X163289000Y-61604000D01*
G75*
G02*
X163089000Y-61804000I-200000J0D01*
G01*
G37*
%TD*%
D10*
%TO.C,J1*%
X102559000Y-49810000D03*
D11*
X102559000Y-47110000D03*
D12*
X102559000Y-51635000D03*
X102559000Y-44885000D03*
D13*
X105134000Y-50747500D03*
X105134000Y-45772500D03*
D14*
X105219000Y-49560000D03*
X105219000Y-48910000D03*
X105219000Y-48260000D03*
X105219000Y-47610000D03*
X105219000Y-46960000D03*
%TD*%
D15*
%TO.C,D2*%
X132334000Y-48514000D03*
D16*
X132334000Y-50352300D03*
%TD*%
D17*
%TO.C,D1*%
X108916800Y-55626000D03*
D18*
X110755100Y-55626000D03*
%TD*%
D19*
%TO.C,U1*%
X119659000Y-47484000D03*
X119659000Y-52084000D03*
X119659000Y-49784000D03*
D20*
X125959000Y-49784000D03*
%TD*%
D21*
%TO.C,SW1*%
X169088001Y-65406001D03*
X165937999Y-65406001D03*
X169088001Y-62355999D03*
X165937999Y-62355999D03*
D22*
X169588000Y-63881000D03*
X165438000Y-63881000D03*
%TD*%
D23*
%TO.C,FID5*%
X156718000Y-51943000D03*
%TD*%
%TO.C,FID4*%
X146939000Y-42164000D03*
%TD*%
%TO.C,FID3*%
X109347000Y-70739000D03*
%TD*%
%TO.C,FID2*%
X169799000Y-70739000D03*
%TD*%
%TO.C,FID1*%
X169799000Y-35560000D03*
%TD*%
D24*
%TO.C,J4*%
X164338000Y-35560000D03*
X161798000Y-35560000D03*
X159258000Y-35560000D03*
X156718000Y-35560000D03*
X154178000Y-35560000D03*
X151638000Y-35560000D03*
X149098000Y-35560000D03*
X146558000Y-35560000D03*
X144018000Y-35560000D03*
X141478000Y-35560000D03*
X138938000Y-35560000D03*
D25*
X136398000Y-35560000D03*
%TD*%
D24*
%TO.C,J3*%
X166370000Y-70739000D03*
X163830000Y-70739000D03*
X161290000Y-70739000D03*
X158750000Y-70739000D03*
X156210000Y-70739000D03*
X153670000Y-70739000D03*
X151130000Y-70739000D03*
X148590000Y-70739000D03*
X146050000Y-70739000D03*
X143510000Y-70739000D03*
X140970000Y-70739000D03*
X138430000Y-70739000D03*
X135890000Y-70739000D03*
X133350000Y-70739000D03*
X130810000Y-70739000D03*
X128270000Y-70739000D03*
X125730000Y-70739000D03*
X123190000Y-70739000D03*
X120650000Y-70739000D03*
D25*
X118110000Y-70739000D03*
%TD*%
%TO.C,C2*%
G36*
G01*
X125861000Y-44648000D02*
X126361000Y-44648000D01*
G75*
G02*
X126586000Y-44873000I0J-225000D01*
G01*
X126586000Y-45323000D01*
G75*
G02*
X126361000Y-45548000I-225000J0D01*
G01*
X125861000Y-45548000D01*
G75*
G02*
X125636000Y-45323000I0J225000D01*
G01*
X125636000Y-44873000D01*
G75*
G02*
X125861000Y-44648000I225000J0D01*
G01*
G37*
G36*
G01*
X125861000Y-43098000D02*
X126361000Y-43098000D01*
G75*
G02*
X126586000Y-43323000I0J-225000D01*
G01*
X126586000Y-43773000D01*
G75*
G02*
X126361000Y-43998000I-225000J0D01*
G01*
X125861000Y-43998000D01*
G75*
G02*
X125636000Y-43773000I0J225000D01*
G01*
X125636000Y-43323000D01*
G75*
G02*
X125861000Y-43098000I225000J0D01*
G01*
G37*
%TD*%
D24*
%TO.C,J2*%
X123825000Y-35560000D03*
X121285000Y-35560000D03*
X118745000Y-35560000D03*
X116205000Y-35560000D03*
D25*
X113665000Y-35560000D03*
%TD*%
%TO.C,R9*%
G36*
G01*
X157563000Y-60050000D02*
X157563000Y-60600000D01*
G75*
G02*
X157363000Y-60800000I-200000J0D01*
G01*
X156963000Y-60800000D01*
G75*
G02*
X156763000Y-60600000I0J200000D01*
G01*
X156763000Y-60050000D01*
G75*
G02*
X156963000Y-59850000I200000J0D01*
G01*
X157363000Y-59850000D01*
G75*
G02*
X157563000Y-60050000I0J-200000D01*
G01*
G37*
G36*
G01*
X159213000Y-60050000D02*
X159213000Y-60600000D01*
G75*
G02*
X159013000Y-60800000I-200000J0D01*
G01*
X158613000Y-60800000D01*
G75*
G02*
X158413000Y-60600000I0J200000D01*
G01*
X158413000Y-60050000D01*
G75*
G02*
X158613000Y-59850000I200000J0D01*
G01*
X159013000Y-59850000D01*
G75*
G02*
X159213000Y-60050000I0J-200000D01*
G01*
G37*
%TD*%
D26*
%TO.C,H4*%
X103632000Y-35560000D03*
%TD*%
%TO.C,H3*%
X103632000Y-70485000D03*
%TD*%
%TO.C,H2*%
X174879000Y-70485000D03*
%TD*%
%TO.C,H1*%
X174879000Y-35687000D03*
%TD*%
D24*
%TO.C,J5*%
X173736000Y-57785000D03*
X171196000Y-57785000D03*
X173736000Y-55245000D03*
X171196000Y-55245000D03*
X173736000Y-52705000D03*
D25*
X171196000Y-52705000D03*
%TD*%
%TO.C,U2*%
G36*
G01*
X154434600Y-42139000D02*
X154675400Y-42139000D01*
G75*
G02*
X154695000Y-42158600I0J-19600D01*
G01*
X154695000Y-43589400D01*
G75*
G02*
X154675400Y-43609000I-19600J0D01*
G01*
X154434600Y-43609000D01*
G75*
G02*
X154415000Y-43589400I0J19600D01*
G01*
X154415000Y-42158600D01*
G75*
G02*
X154434600Y-42139000I19600J0D01*
G01*
G37*
G36*
G01*
X153934600Y-42139000D02*
X154175400Y-42139000D01*
G75*
G02*
X154195000Y-42158600I0J-19600D01*
G01*
X154195000Y-43589400D01*
G75*
G02*
X154175400Y-43609000I-19600J0D01*
G01*
X153934600Y-43609000D01*
G75*
G02*
X153915000Y-43589400I0J19600D01*
G01*
X153915000Y-42158600D01*
G75*
G02*
X153934600Y-42139000I19600J0D01*
G01*
G37*
G36*
G01*
X153434600Y-42139000D02*
X153675400Y-42139000D01*
G75*
G02*
X153695000Y-42158600I0J-19600D01*
G01*
X153695000Y-43589400D01*
G75*
G02*
X153675400Y-43609000I-19600J0D01*
G01*
X153434600Y-43609000D01*
G75*
G02*
X153415000Y-43589400I0J19600D01*
G01*
X153415000Y-42158600D01*
G75*
G02*
X153434600Y-42139000I19600J0D01*
G01*
G37*
G36*
G01*
X152934600Y-42139000D02*
X153175400Y-42139000D01*
G75*
G02*
X153195000Y-42158600I0J-19600D01*
G01*
X153195000Y-43589400D01*
G75*
G02*
X153175400Y-43609000I-19600J0D01*
G01*
X152934600Y-43609000D01*
G75*
G02*
X152915000Y-43589400I0J19600D01*
G01*
X152915000Y-42158600D01*
G75*
G02*
X152934600Y-42139000I19600J0D01*
G01*
G37*
G36*
G01*
X152434600Y-42139000D02*
X152675400Y-42139000D01*
G75*
G02*
X152695000Y-42158600I0J-19600D01*
G01*
X152695000Y-43589400D01*
G75*
G02*
X152675400Y-43609000I-19600J0D01*
G01*
X152434600Y-43609000D01*
G75*
G02*
X152415000Y-43589400I0J19600D01*
G01*
X152415000Y-42158600D01*
G75*
G02*
X152434600Y-42139000I19600J0D01*
G01*
G37*
G36*
G01*
X151934600Y-42139000D02*
X152175400Y-42139000D01*
G75*
G02*
X152195000Y-42158600I0J-19600D01*
G01*
X152195000Y-43589400D01*
G75*
G02*
X152175400Y-43609000I-19600J0D01*
G01*
X151934600Y-43609000D01*
G75*
G02*
X151915000Y-43589400I0J19600D01*
G01*
X151915000Y-42158600D01*
G75*
G02*
X151934600Y-42139000I19600J0D01*
G01*
G37*
G36*
G01*
X151434600Y-42139000D02*
X151675400Y-42139000D01*
G75*
G02*
X151695000Y-42158600I0J-19600D01*
G01*
X151695000Y-43589400D01*
G75*
G02*
X151675400Y-43609000I-19600J0D01*
G01*
X151434600Y-43609000D01*
G75*
G02*
X151415000Y-43589400I0J19600D01*
G01*
X151415000Y-42158600D01*
G75*
G02*
X151434600Y-42139000I19600J0D01*
G01*
G37*
G36*
G01*
X150934600Y-42139000D02*
X151175400Y-42139000D01*
G75*
G02*
X151195000Y-42158600I0J-19600D01*
G01*
X151195000Y-43589400D01*
G75*
G02*
X151175400Y-43609000I-19600J0D01*
G01*
X150934600Y-43609000D01*
G75*
G02*
X150915000Y-43589400I0J19600D01*
G01*
X150915000Y-42158600D01*
G75*
G02*
X150934600Y-42139000I19600J0D01*
G01*
G37*
G36*
G01*
X150434600Y-42139000D02*
X150675400Y-42139000D01*
G75*
G02*
X150695000Y-42158600I0J-19600D01*
G01*
X150695000Y-43589400D01*
G75*
G02*
X150675400Y-43609000I-19600J0D01*
G01*
X150434600Y-43609000D01*
G75*
G02*
X150415000Y-43589400I0J19600D01*
G01*
X150415000Y-42158600D01*
G75*
G02*
X150434600Y-42139000I19600J0D01*
G01*
G37*
G36*
G01*
X149934600Y-42139000D02*
X150175400Y-42139000D01*
G75*
G02*
X150195000Y-42158600I0J-19600D01*
G01*
X150195000Y-43589400D01*
G75*
G02*
X150175400Y-43609000I-19600J0D01*
G01*
X149934600Y-43609000D01*
G75*
G02*
X149915000Y-43589400I0J19600D01*
G01*
X149915000Y-42158600D01*
G75*
G02*
X149934600Y-42139000I19600J0D01*
G01*
G37*
G36*
G01*
X149434600Y-42139000D02*
X149675400Y-42139000D01*
G75*
G02*
X149695000Y-42158600I0J-19600D01*
G01*
X149695000Y-43589400D01*
G75*
G02*
X149675400Y-43609000I-19600J0D01*
G01*
X149434600Y-43609000D01*
G75*
G02*
X149415000Y-43589400I0J19600D01*
G01*
X149415000Y-42158600D01*
G75*
G02*
X149434600Y-42139000I19600J0D01*
G01*
G37*
G36*
G01*
X148934600Y-42139000D02*
X149175400Y-42139000D01*
G75*
G02*
X149195000Y-42158600I0J-19600D01*
G01*
X149195000Y-43589400D01*
G75*
G02*
X149175400Y-43609000I-19600J0D01*
G01*
X148934600Y-43609000D01*
G75*
G02*
X148915000Y-43589400I0J19600D01*
G01*
X148915000Y-42158600D01*
G75*
G02*
X148934600Y-42139000I19600J0D01*
G01*
G37*
G36*
G01*
X146900000Y-44414400D02*
X146900000Y-44173600D01*
G75*
G02*
X146919600Y-44154000I19600J0D01*
G01*
X148350400Y-44154000D01*
G75*
G02*
X148370000Y-44173600I0J-19600D01*
G01*
X148370000Y-44414400D01*
G75*
G02*
X148350400Y-44434000I-19600J0D01*
G01*
X146919600Y-44434000D01*
G75*
G02*
X146900000Y-44414400I0J19600D01*
G01*
G37*
G36*
G01*
X146900000Y-44914400D02*
X146900000Y-44673600D01*
G75*
G02*
X146919600Y-44654000I19600J0D01*
G01*
X148350400Y-44654000D01*
G75*
G02*
X148370000Y-44673600I0J-19600D01*
G01*
X148370000Y-44914400D01*
G75*
G02*
X148350400Y-44934000I-19600J0D01*
G01*
X146919600Y-44934000D01*
G75*
G02*
X146900000Y-44914400I0J19600D01*
G01*
G37*
G36*
G01*
X146900000Y-45414400D02*
X146900000Y-45173600D01*
G75*
G02*
X146919600Y-45154000I19600J0D01*
G01*
X148350400Y-45154000D01*
G75*
G02*
X148370000Y-45173600I0J-19600D01*
G01*
X148370000Y-45414400D01*
G75*
G02*
X148350400Y-45434000I-19600J0D01*
G01*
X146919600Y-45434000D01*
G75*
G02*
X146900000Y-45414400I0J19600D01*
G01*
G37*
G36*
G01*
X146900000Y-45914400D02*
X146900000Y-45673600D01*
G75*
G02*
X146919600Y-45654000I19600J0D01*
G01*
X148350400Y-45654000D01*
G75*
G02*
X148370000Y-45673600I0J-19600D01*
G01*
X148370000Y-45914400D01*
G75*
G02*
X148350400Y-45934000I-19600J0D01*
G01*
X146919600Y-45934000D01*
G75*
G02*
X146900000Y-45914400I0J19600D01*
G01*
G37*
G36*
G01*
X146900000Y-46414400D02*
X146900000Y-46173600D01*
G75*
G02*
X146919600Y-46154000I19600J0D01*
G01*
X148350400Y-46154000D01*
G75*
G02*
X148370000Y-46173600I0J-19600D01*
G01*
X148370000Y-46414400D01*
G75*
G02*
X148350400Y-46434000I-19600J0D01*
G01*
X146919600Y-46434000D01*
G75*
G02*
X146900000Y-46414400I0J19600D01*
G01*
G37*
G36*
G01*
X146900000Y-46914400D02*
X146900000Y-46673600D01*
G75*
G02*
X146919600Y-46654000I19600J0D01*
G01*
X148350400Y-46654000D01*
G75*
G02*
X148370000Y-46673600I0J-19600D01*
G01*
X148370000Y-46914400D01*
G75*
G02*
X148350400Y-46934000I-19600J0D01*
G01*
X146919600Y-46934000D01*
G75*
G02*
X146900000Y-46914400I0J19600D01*
G01*
G37*
G36*
G01*
X146900000Y-47414400D02*
X146900000Y-47173600D01*
G75*
G02*
X146919600Y-47154000I19600J0D01*
G01*
X148350400Y-47154000D01*
G75*
G02*
X148370000Y-47173600I0J-19600D01*
G01*
X148370000Y-47414400D01*
G75*
G02*
X148350400Y-47434000I-19600J0D01*
G01*
X146919600Y-47434000D01*
G75*
G02*
X146900000Y-47414400I0J19600D01*
G01*
G37*
G36*
G01*
X146900000Y-47914400D02*
X146900000Y-47673600D01*
G75*
G02*
X146919600Y-47654000I19600J0D01*
G01*
X148350400Y-47654000D01*
G75*
G02*
X148370000Y-47673600I0J-19600D01*
G01*
X148370000Y-47914400D01*
G75*
G02*
X148350400Y-47934000I-19600J0D01*
G01*
X146919600Y-47934000D01*
G75*
G02*
X146900000Y-47914400I0J19600D01*
G01*
G37*
G36*
G01*
X146900000Y-48414400D02*
X146900000Y-48173600D01*
G75*
G02*
X146919600Y-48154000I19600J0D01*
G01*
X148350400Y-48154000D01*
G75*
G02*
X148370000Y-48173600I0J-19600D01*
G01*
X148370000Y-48414400D01*
G75*
G02*
X148350400Y-48434000I-19600J0D01*
G01*
X146919600Y-48434000D01*
G75*
G02*
X146900000Y-48414400I0J19600D01*
G01*
G37*
G36*
G01*
X146900000Y-48914400D02*
X146900000Y-48673600D01*
G75*
G02*
X146919600Y-48654000I19600J0D01*
G01*
X148350400Y-48654000D01*
G75*
G02*
X148370000Y-48673600I0J-19600D01*
G01*
X148370000Y-48914400D01*
G75*
G02*
X148350400Y-48934000I-19600J0D01*
G01*
X146919600Y-48934000D01*
G75*
G02*
X146900000Y-48914400I0J19600D01*
G01*
G37*
G36*
G01*
X146900000Y-49414400D02*
X146900000Y-49173600D01*
G75*
G02*
X146919600Y-49154000I19600J0D01*
G01*
X148350400Y-49154000D01*
G75*
G02*
X148370000Y-49173600I0J-19600D01*
G01*
X148370000Y-49414400D01*
G75*
G02*
X148350400Y-49434000I-19600J0D01*
G01*
X146919600Y-49434000D01*
G75*
G02*
X146900000Y-49414400I0J19600D01*
G01*
G37*
G36*
G01*
X146900000Y-49914400D02*
X146900000Y-49673600D01*
G75*
G02*
X146919600Y-49654000I19600J0D01*
G01*
X148350400Y-49654000D01*
G75*
G02*
X148370000Y-49673600I0J-19600D01*
G01*
X148370000Y-49914400D01*
G75*
G02*
X148350400Y-49934000I-19600J0D01*
G01*
X146919600Y-49934000D01*
G75*
G02*
X146900000Y-49914400I0J19600D01*
G01*
G37*
G36*
G01*
X149175400Y-51949000D02*
X148934600Y-51949000D01*
G75*
G02*
X148915000Y-51929400I0J19600D01*
G01*
X148915000Y-50498600D01*
G75*
G02*
X148934600Y-50479000I19600J0D01*
G01*
X149175400Y-50479000D01*
G75*
G02*
X149195000Y-50498600I0J-19600D01*
G01*
X149195000Y-51929400D01*
G75*
G02*
X149175400Y-51949000I-19600J0D01*
G01*
G37*
G36*
G01*
X149675400Y-51949000D02*
X149434600Y-51949000D01*
G75*
G02*
X149415000Y-51929400I0J19600D01*
G01*
X149415000Y-50498600D01*
G75*
G02*
X149434600Y-50479000I19600J0D01*
G01*
X149675400Y-50479000D01*
G75*
G02*
X149695000Y-50498600I0J-19600D01*
G01*
X149695000Y-51929400D01*
G75*
G02*
X149675400Y-51949000I-19600J0D01*
G01*
G37*
G36*
G01*
X150175400Y-51949000D02*
X149934600Y-51949000D01*
G75*
G02*
X149915000Y-51929400I0J19600D01*
G01*
X149915000Y-50498600D01*
G75*
G02*
X149934600Y-50479000I19600J0D01*
G01*
X150175400Y-50479000D01*
G75*
G02*
X150195000Y-50498600I0J-19600D01*
G01*
X150195000Y-51929400D01*
G75*
G02*
X150175400Y-51949000I-19600J0D01*
G01*
G37*
G36*
G01*
X150675400Y-51949000D02*
X150434600Y-51949000D01*
G75*
G02*
X150415000Y-51929400I0J19600D01*
G01*
X150415000Y-50498600D01*
G75*
G02*
X150434600Y-50479000I19600J0D01*
G01*
X150675400Y-50479000D01*
G75*
G02*
X150695000Y-50498600I0J-19600D01*
G01*
X150695000Y-51929400D01*
G75*
G02*
X150675400Y-51949000I-19600J0D01*
G01*
G37*
G36*
G01*
X151175400Y-51949000D02*
X150934600Y-51949000D01*
G75*
G02*
X150915000Y-51929400I0J19600D01*
G01*
X150915000Y-50498600D01*
G75*
G02*
X150934600Y-50479000I19600J0D01*
G01*
X151175400Y-50479000D01*
G75*
G02*
X151195000Y-50498600I0J-19600D01*
G01*
X151195000Y-51929400D01*
G75*
G02*
X151175400Y-51949000I-19600J0D01*
G01*
G37*
G36*
G01*
X151675400Y-51949000D02*
X151434600Y-51949000D01*
G75*
G02*
X151415000Y-51929400I0J19600D01*
G01*
X151415000Y-50498600D01*
G75*
G02*
X151434600Y-50479000I19600J0D01*
G01*
X151675400Y-50479000D01*
G75*
G02*
X151695000Y-50498600I0J-19600D01*
G01*
X151695000Y-51929400D01*
G75*
G02*
X151675400Y-51949000I-19600J0D01*
G01*
G37*
G36*
G01*
X152175400Y-51949000D02*
X151934600Y-51949000D01*
G75*
G02*
X151915000Y-51929400I0J19600D01*
G01*
X151915000Y-50498600D01*
G75*
G02*
X151934600Y-50479000I19600J0D01*
G01*
X152175400Y-50479000D01*
G75*
G02*
X152195000Y-50498600I0J-19600D01*
G01*
X152195000Y-51929400D01*
G75*
G02*
X152175400Y-51949000I-19600J0D01*
G01*
G37*
G36*
G01*
X152675400Y-51949000D02*
X152434600Y-51949000D01*
G75*
G02*
X152415000Y-51929400I0J19600D01*
G01*
X152415000Y-50498600D01*
G75*
G02*
X152434600Y-50479000I19600J0D01*
G01*
X152675400Y-50479000D01*
G75*
G02*
X152695000Y-50498600I0J-19600D01*
G01*
X152695000Y-51929400D01*
G75*
G02*
X152675400Y-51949000I-19600J0D01*
G01*
G37*
G36*
G01*
X153175400Y-51949000D02*
X152934600Y-51949000D01*
G75*
G02*
X152915000Y-51929400I0J19600D01*
G01*
X152915000Y-50498600D01*
G75*
G02*
X152934600Y-50479000I19600J0D01*
G01*
X153175400Y-50479000D01*
G75*
G02*
X153195000Y-50498600I0J-19600D01*
G01*
X153195000Y-51929400D01*
G75*
G02*
X153175400Y-51949000I-19600J0D01*
G01*
G37*
G36*
G01*
X153675400Y-51949000D02*
X153434600Y-51949000D01*
G75*
G02*
X153415000Y-51929400I0J19600D01*
G01*
X153415000Y-50498600D01*
G75*
G02*
X153434600Y-50479000I19600J0D01*
G01*
X153675400Y-50479000D01*
G75*
G02*
X153695000Y-50498600I0J-19600D01*
G01*
X153695000Y-51929400D01*
G75*
G02*
X153675400Y-51949000I-19600J0D01*
G01*
G37*
G36*
G01*
X154175400Y-51949000D02*
X153934600Y-51949000D01*
G75*
G02*
X153915000Y-51929400I0J19600D01*
G01*
X153915000Y-50498600D01*
G75*
G02*
X153934600Y-50479000I19600J0D01*
G01*
X154175400Y-50479000D01*
G75*
G02*
X154195000Y-50498600I0J-19600D01*
G01*
X154195000Y-51929400D01*
G75*
G02*
X154175400Y-51949000I-19600J0D01*
G01*
G37*
G36*
G01*
X154675400Y-51949000D02*
X154434600Y-51949000D01*
G75*
G02*
X154415000Y-51929400I0J19600D01*
G01*
X154415000Y-50498600D01*
G75*
G02*
X154434600Y-50479000I19600J0D01*
G01*
X154675400Y-50479000D01*
G75*
G02*
X154695000Y-50498600I0J-19600D01*
G01*
X154695000Y-51929400D01*
G75*
G02*
X154675400Y-51949000I-19600J0D01*
G01*
G37*
G36*
G01*
X156710000Y-49673600D02*
X156710000Y-49914400D01*
G75*
G02*
X156690400Y-49934000I-19600J0D01*
G01*
X155259600Y-49934000D01*
G75*
G02*
X155240000Y-49914400I0J19600D01*
G01*
X155240000Y-49673600D01*
G75*
G02*
X155259600Y-49654000I19600J0D01*
G01*
X156690400Y-49654000D01*
G75*
G02*
X156710000Y-49673600I0J-19600D01*
G01*
G37*
G36*
G01*
X156710000Y-49173600D02*
X156710000Y-49414400D01*
G75*
G02*
X156690400Y-49434000I-19600J0D01*
G01*
X155259600Y-49434000D01*
G75*
G02*
X155240000Y-49414400I0J19600D01*
G01*
X155240000Y-49173600D01*
G75*
G02*
X155259600Y-49154000I19600J0D01*
G01*
X156690400Y-49154000D01*
G75*
G02*
X156710000Y-49173600I0J-19600D01*
G01*
G37*
G36*
G01*
X156710000Y-48673600D02*
X156710000Y-48914400D01*
G75*
G02*
X156690400Y-48934000I-19600J0D01*
G01*
X155259600Y-48934000D01*
G75*
G02*
X155240000Y-48914400I0J19600D01*
G01*
X155240000Y-48673600D01*
G75*
G02*
X155259600Y-48654000I19600J0D01*
G01*
X156690400Y-48654000D01*
G75*
G02*
X156710000Y-48673600I0J-19600D01*
G01*
G37*
G36*
G01*
X156710000Y-48173600D02*
X156710000Y-48414400D01*
G75*
G02*
X156690400Y-48434000I-19600J0D01*
G01*
X155259600Y-48434000D01*
G75*
G02*
X155240000Y-48414400I0J19600D01*
G01*
X155240000Y-48173600D01*
G75*
G02*
X155259600Y-48154000I19600J0D01*
G01*
X156690400Y-48154000D01*
G75*
G02*
X156710000Y-48173600I0J-19600D01*
G01*
G37*
G36*
G01*
X156710000Y-47673600D02*
X156710000Y-47914400D01*
G75*
G02*
X156690400Y-47934000I-19600J0D01*
G01*
X155259600Y-47934000D01*
G75*
G02*
X155240000Y-47914400I0J19600D01*
G01*
X155240000Y-47673600D01*
G75*
G02*
X155259600Y-47654000I19600J0D01*
G01*
X156690400Y-47654000D01*
G75*
G02*
X156710000Y-47673600I0J-19600D01*
G01*
G37*
G36*
G01*
X156710000Y-47173600D02*
X156710000Y-47414400D01*
G75*
G02*
X156690400Y-47434000I-19600J0D01*
G01*
X155259600Y-47434000D01*
G75*
G02*
X155240000Y-47414400I0J19600D01*
G01*
X155240000Y-47173600D01*
G75*
G02*
X155259600Y-47154000I19600J0D01*
G01*
X156690400Y-47154000D01*
G75*
G02*
X156710000Y-47173600I0J-19600D01*
G01*
G37*
G36*
G01*
X156710000Y-46673600D02*
X156710000Y-46914400D01*
G75*
G02*
X156690400Y-46934000I-19600J0D01*
G01*
X155259600Y-46934000D01*
G75*
G02*
X155240000Y-46914400I0J19600D01*
G01*
X155240000Y-46673600D01*
G75*
G02*
X155259600Y-46654000I19600J0D01*
G01*
X156690400Y-46654000D01*
G75*
G02*
X156710000Y-46673600I0J-19600D01*
G01*
G37*
G36*
G01*
X156710000Y-46173600D02*
X156710000Y-46414400D01*
G75*
G02*
X156690400Y-46434000I-19600J0D01*
G01*
X155259600Y-46434000D01*
G75*
G02*
X155240000Y-46414400I0J19600D01*
G01*
X155240000Y-46173600D01*
G75*
G02*
X155259600Y-46154000I19600J0D01*
G01*
X156690400Y-46154000D01*
G75*
G02*
X156710000Y-46173600I0J-19600D01*
G01*
G37*
G36*
G01*
X156710000Y-45673600D02*
X156710000Y-45914400D01*
G75*
G02*
X156690400Y-45934000I-19600J0D01*
G01*
X155259600Y-45934000D01*
G75*
G02*
X155240000Y-45914400I0J19600D01*
G01*
X155240000Y-45673600D01*
G75*
G02*
X155259600Y-45654000I19600J0D01*
G01*
X156690400Y-45654000D01*
G75*
G02*
X156710000Y-45673600I0J-19600D01*
G01*
G37*
G36*
G01*
X156710000Y-45173600D02*
X156710000Y-45414400D01*
G75*
G02*
X156690400Y-45434000I-19600J0D01*
G01*
X155259600Y-45434000D01*
G75*
G02*
X155240000Y-45414400I0J19600D01*
G01*
X155240000Y-45173600D01*
G75*
G02*
X155259600Y-45154000I19600J0D01*
G01*
X156690400Y-45154000D01*
G75*
G02*
X156710000Y-45173600I0J-19600D01*
G01*
G37*
G36*
G01*
X156710000Y-44673600D02*
X156710000Y-44914400D01*
G75*
G02*
X156690400Y-44934000I-19600J0D01*
G01*
X155259600Y-44934000D01*
G75*
G02*
X155240000Y-44914400I0J19600D01*
G01*
X155240000Y-44673600D01*
G75*
G02*
X155259600Y-44654000I19600J0D01*
G01*
X156690400Y-44654000D01*
G75*
G02*
X156710000Y-44673600I0J-19600D01*
G01*
G37*
G36*
G01*
X156710000Y-44173600D02*
X156710000Y-44414400D01*
G75*
G02*
X156690400Y-44434000I-19600J0D01*
G01*
X155259600Y-44434000D01*
G75*
G02*
X155240000Y-44414400I0J19600D01*
G01*
X155240000Y-44173600D01*
G75*
G02*
X155259600Y-44154000I19600J0D01*
G01*
X156690400Y-44154000D01*
G75*
G02*
X156710000Y-44173600I0J-19600D01*
G01*
G37*
%TD*%
%TO.C,R11*%
G36*
G01*
X161500000Y-54462000D02*
X161500000Y-55012000D01*
G75*
G02*
X161300000Y-55212000I-200000J0D01*
G01*
X160900000Y-55212000D01*
G75*
G02*
X160700000Y-55012000I0J200000D01*
G01*
X160700000Y-54462000D01*
G75*
G02*
X160900000Y-54262000I200000J0D01*
G01*
X161300000Y-54262000D01*
G75*
G02*
X161500000Y-54462000I0J-200000D01*
G01*
G37*
G36*
G01*
X163150000Y-54462000D02*
X163150000Y-55012000D01*
G75*
G02*
X162950000Y-55212000I-200000J0D01*
G01*
X162550000Y-55212000D01*
G75*
G02*
X162350000Y-55012000I0J200000D01*
G01*
X162350000Y-54462000D01*
G75*
G02*
X162550000Y-54262000I200000J0D01*
G01*
X162950000Y-54262000D01*
G75*
G02*
X163150000Y-54462000I0J-200000D01*
G01*
G37*
%TD*%
%TO.C,R10*%
G36*
G01*
X115995000Y-57425000D02*
X115995000Y-56875000D01*
G75*
G02*
X116195000Y-56675000I200000J0D01*
G01*
X116595000Y-56675000D01*
G75*
G02*
X116795000Y-56875000I0J-200000D01*
G01*
X116795000Y-57425000D01*
G75*
G02*
X116595000Y-57625000I-200000J0D01*
G01*
X116195000Y-57625000D01*
G75*
G02*
X115995000Y-57425000I0J200000D01*
G01*
G37*
G36*
G01*
X114345000Y-57425000D02*
X114345000Y-56875000D01*
G75*
G02*
X114545000Y-56675000I200000J0D01*
G01*
X114945000Y-56675000D01*
G75*
G02*
X115145000Y-56875000I0J-200000D01*
G01*
X115145000Y-57425000D01*
G75*
G02*
X114945000Y-57625000I-200000J0D01*
G01*
X114545000Y-57625000D01*
G75*
G02*
X114345000Y-57425000I0J200000D01*
G01*
G37*
%TD*%
%TO.C,R8*%
G36*
G01*
X129965000Y-46757000D02*
X129965000Y-46207000D01*
G75*
G02*
X130165000Y-46007000I200000J0D01*
G01*
X130565000Y-46007000D01*
G75*
G02*
X130765000Y-46207000I0J-200000D01*
G01*
X130765000Y-46757000D01*
G75*
G02*
X130565000Y-46957000I-200000J0D01*
G01*
X130165000Y-46957000D01*
G75*
G02*
X129965000Y-46757000I0J200000D01*
G01*
G37*
G36*
G01*
X128315000Y-46757000D02*
X128315000Y-46207000D01*
G75*
G02*
X128515000Y-46007000I200000J0D01*
G01*
X128915000Y-46007000D01*
G75*
G02*
X129115000Y-46207000I0J-200000D01*
G01*
X129115000Y-46757000D01*
G75*
G02*
X128915000Y-46957000I-200000J0D01*
G01*
X128515000Y-46957000D01*
G75*
G02*
X128315000Y-46757000I0J200000D01*
G01*
G37*
%TD*%
%TO.C,R7*%
G36*
G01*
X128376000Y-43605000D02*
X128926000Y-43605000D01*
G75*
G02*
X129126000Y-43805000I0J-200000D01*
G01*
X129126000Y-44205000D01*
G75*
G02*
X128926000Y-44405000I-200000J0D01*
G01*
X128376000Y-44405000D01*
G75*
G02*
X128176000Y-44205000I0J200000D01*
G01*
X128176000Y-43805000D01*
G75*
G02*
X128376000Y-43605000I200000J0D01*
G01*
G37*
G36*
G01*
X128376000Y-41955000D02*
X128926000Y-41955000D01*
G75*
G02*
X129126000Y-42155000I0J-200000D01*
G01*
X129126000Y-42555000D01*
G75*
G02*
X128926000Y-42755000I-200000J0D01*
G01*
X128376000Y-42755000D01*
G75*
G02*
X128176000Y-42555000I0J200000D01*
G01*
X128176000Y-42155000D01*
G75*
G02*
X128376000Y-41955000I200000J0D01*
G01*
G37*
%TD*%
%TO.C,R6*%
G36*
G01*
X138959000Y-62186000D02*
X138409000Y-62186000D01*
G75*
G02*
X138209000Y-61986000I0J200000D01*
G01*
X138209000Y-61586000D01*
G75*
G02*
X138409000Y-61386000I200000J0D01*
G01*
X138959000Y-61386000D01*
G75*
G02*
X139159000Y-61586000I0J-200000D01*
G01*
X139159000Y-61986000D01*
G75*
G02*
X138959000Y-62186000I-200000J0D01*
G01*
G37*
G36*
G01*
X138959000Y-63836000D02*
X138409000Y-63836000D01*
G75*
G02*
X138209000Y-63636000I0J200000D01*
G01*
X138209000Y-63236000D01*
G75*
G02*
X138409000Y-63036000I200000J0D01*
G01*
X138959000Y-63036000D01*
G75*
G02*
X139159000Y-63236000I0J-200000D01*
G01*
X139159000Y-63636000D01*
G75*
G02*
X138959000Y-63836000I-200000J0D01*
G01*
G37*
%TD*%
%TO.C,R5*%
G36*
G01*
X124481000Y-62186000D02*
X123931000Y-62186000D01*
G75*
G02*
X123731000Y-61986000I0J200000D01*
G01*
X123731000Y-61586000D01*
G75*
G02*
X123931000Y-61386000I200000J0D01*
G01*
X124481000Y-61386000D01*
G75*
G02*
X124681000Y-61586000I0J-200000D01*
G01*
X124681000Y-61986000D01*
G75*
G02*
X124481000Y-62186000I-200000J0D01*
G01*
G37*
G36*
G01*
X124481000Y-63836000D02*
X123931000Y-63836000D01*
G75*
G02*
X123731000Y-63636000I0J200000D01*
G01*
X123731000Y-63236000D01*
G75*
G02*
X123931000Y-63036000I200000J0D01*
G01*
X124481000Y-63036000D01*
G75*
G02*
X124681000Y-63236000I0J-200000D01*
G01*
X124681000Y-63636000D01*
G75*
G02*
X124481000Y-63836000I-200000J0D01*
G01*
G37*
%TD*%
%TO.C,R4*%
G36*
G01*
X128376000Y-49701000D02*
X128926000Y-49701000D01*
G75*
G02*
X129126000Y-49901000I0J-200000D01*
G01*
X129126000Y-50301000D01*
G75*
G02*
X128926000Y-50501000I-200000J0D01*
G01*
X128376000Y-50501000D01*
G75*
G02*
X128176000Y-50301000I0J200000D01*
G01*
X128176000Y-49901000D01*
G75*
G02*
X128376000Y-49701000I200000J0D01*
G01*
G37*
G36*
G01*
X128376000Y-48051000D02*
X128926000Y-48051000D01*
G75*
G02*
X129126000Y-48251000I0J-200000D01*
G01*
X129126000Y-48651000D01*
G75*
G02*
X128926000Y-48851000I-200000J0D01*
G01*
X128376000Y-48851000D01*
G75*
G02*
X128176000Y-48651000I0J200000D01*
G01*
X128176000Y-48251000D01*
G75*
G02*
X128376000Y-48051000I200000J0D01*
G01*
G37*
%TD*%
%TO.C,R3*%
G36*
G01*
X108564000Y-51225000D02*
X109114000Y-51225000D01*
G75*
G02*
X109314000Y-51425000I0J-200000D01*
G01*
X109314000Y-51825000D01*
G75*
G02*
X109114000Y-52025000I-200000J0D01*
G01*
X108564000Y-52025000D01*
G75*
G02*
X108364000Y-51825000I0J200000D01*
G01*
X108364000Y-51425000D01*
G75*
G02*
X108564000Y-51225000I200000J0D01*
G01*
G37*
G36*
G01*
X108564000Y-49575000D02*
X109114000Y-49575000D01*
G75*
G02*
X109314000Y-49775000I0J-200000D01*
G01*
X109314000Y-50175000D01*
G75*
G02*
X109114000Y-50375000I-200000J0D01*
G01*
X108564000Y-50375000D01*
G75*
G02*
X108364000Y-50175000I0J200000D01*
G01*
X108364000Y-49775000D01*
G75*
G02*
X108564000Y-49575000I200000J0D01*
G01*
G37*
%TD*%
%TO.C,R2*%
G36*
G01*
X107040000Y-41573000D02*
X107590000Y-41573000D01*
G75*
G02*
X107790000Y-41773000I0J-200000D01*
G01*
X107790000Y-42173000D01*
G75*
G02*
X107590000Y-42373000I-200000J0D01*
G01*
X107040000Y-42373000D01*
G75*
G02*
X106840000Y-42173000I0J200000D01*
G01*
X106840000Y-41773000D01*
G75*
G02*
X107040000Y-41573000I200000J0D01*
G01*
G37*
G36*
G01*
X107040000Y-39923000D02*
X107590000Y-39923000D01*
G75*
G02*
X107790000Y-40123000I0J-200000D01*
G01*
X107790000Y-40523000D01*
G75*
G02*
X107590000Y-40723000I-200000J0D01*
G01*
X107040000Y-40723000D01*
G75*
G02*
X106840000Y-40523000I0J200000D01*
G01*
X106840000Y-40123000D01*
G75*
G02*
X107040000Y-39923000I200000J0D01*
G01*
G37*
%TD*%
%TO.C,R1*%
G36*
G01*
X113963000Y-50313000D02*
X113963000Y-49763000D01*
G75*
G02*
X114163000Y-49563000I200000J0D01*
G01*
X114563000Y-49563000D01*
G75*
G02*
X114763000Y-49763000I0J-200000D01*
G01*
X114763000Y-50313000D01*
G75*
G02*
X114563000Y-50513000I-200000J0D01*
G01*
X114163000Y-50513000D01*
G75*
G02*
X113963000Y-50313000I0J200000D01*
G01*
G37*
G36*
G01*
X112313000Y-50313000D02*
X112313000Y-49763000D01*
G75*
G02*
X112513000Y-49563000I200000J0D01*
G01*
X112913000Y-49563000D01*
G75*
G02*
X113113000Y-49763000I0J-200000D01*
G01*
X113113000Y-50313000D01*
G75*
G02*
X112913000Y-50513000I-200000J0D01*
G01*
X112513000Y-50513000D01*
G75*
G02*
X112313000Y-50313000I0J200000D01*
G01*
G37*
%TD*%
D27*
%TO.C,Q5*%
X115427000Y-52959000D03*
X113427000Y-53909000D03*
X113427000Y-52009000D03*
%TD*%
%TO.C,Q4*%
X119142000Y-62738000D03*
X121142000Y-61788000D03*
X121142000Y-63688000D03*
%TD*%
%TO.C,Q3*%
X133366000Y-62738000D03*
X135366000Y-61788000D03*
X135366000Y-63688000D03*
%TD*%
%TO.C,Q2*%
X131048000Y-62738000D03*
X129048000Y-63688000D03*
X129048000Y-61788000D03*
%TD*%
%TO.C,Q1*%
X117078000Y-62738000D03*
X115078000Y-63688000D03*
X115078000Y-61788000D03*
%TD*%
D24*
%TO.C,JP1*%
X110490000Y-45974000D03*
D25*
X113030000Y-45974000D03*
%TD*%
%TO.C,D4*%
G36*
G01*
X119030000Y-56893750D02*
X119030000Y-57406250D01*
G75*
G02*
X118811250Y-57625000I-218750J0D01*
G01*
X118373750Y-57625000D01*
G75*
G02*
X118155000Y-57406250I0J218750D01*
G01*
X118155000Y-56893750D01*
G75*
G02*
X118373750Y-56675000I218750J0D01*
G01*
X118811250Y-56675000D01*
G75*
G02*
X119030000Y-56893750I0J-218750D01*
G01*
G37*
G36*
G01*
X120605000Y-56893750D02*
X120605000Y-57406250D01*
G75*
G02*
X120386250Y-57625000I-218750J0D01*
G01*
X119948750Y-57625000D01*
G75*
G02*
X119730000Y-57406250I0J218750D01*
G01*
X119730000Y-56893750D01*
G75*
G02*
X119948750Y-56675000I218750J0D01*
G01*
X120386250Y-56675000D01*
G75*
G02*
X120605000Y-56893750I0J-218750D01*
G01*
G37*
%TD*%
%TO.C,D3*%
G36*
G01*
X157638000Y-63370750D02*
X157638000Y-63883250D01*
G75*
G02*
X157419250Y-64102000I-218750J0D01*
G01*
X156981750Y-64102000D01*
G75*
G02*
X156763000Y-63883250I0J218750D01*
G01*
X156763000Y-63370750D01*
G75*
G02*
X156981750Y-63152000I218750J0D01*
G01*
X157419250Y-63152000D01*
G75*
G02*
X157638000Y-63370750I0J-218750D01*
G01*
G37*
G36*
G01*
X159213000Y-63370750D02*
X159213000Y-63883250D01*
G75*
G02*
X158994250Y-64102000I-218750J0D01*
G01*
X158556750Y-64102000D01*
G75*
G02*
X158338000Y-63883250I0J218750D01*
G01*
X158338000Y-63370750D01*
G75*
G02*
X158556750Y-63152000I218750J0D01*
G01*
X158994250Y-63152000D01*
G75*
G02*
X159213000Y-63370750I0J-218750D01*
G01*
G37*
%TD*%
%TO.C,C9*%
G36*
G01*
X144268000Y-44633000D02*
X143768000Y-44633000D01*
G75*
G02*
X143543000Y-44408000I0J225000D01*
G01*
X143543000Y-43958000D01*
G75*
G02*
X143768000Y-43733000I225000J0D01*
G01*
X144268000Y-43733000D01*
G75*
G02*
X144493000Y-43958000I0J-225000D01*
G01*
X144493000Y-44408000D01*
G75*
G02*
X144268000Y-44633000I-225000J0D01*
G01*
G37*
G36*
G01*
X144268000Y-46183000D02*
X143768000Y-46183000D01*
G75*
G02*
X143543000Y-45958000I0J225000D01*
G01*
X143543000Y-45508000D01*
G75*
G02*
X143768000Y-45283000I225000J0D01*
G01*
X144268000Y-45283000D01*
G75*
G02*
X144493000Y-45508000I0J-225000D01*
G01*
X144493000Y-45958000D01*
G75*
G02*
X144268000Y-46183000I-225000J0D01*
G01*
G37*
%TD*%
%TO.C,C4*%
G36*
G01*
X149856000Y-54539000D02*
X149356000Y-54539000D01*
G75*
G02*
X149131000Y-54314000I0J225000D01*
G01*
X149131000Y-53864000D01*
G75*
G02*
X149356000Y-53639000I225000J0D01*
G01*
X149856000Y-53639000D01*
G75*
G02*
X150081000Y-53864000I0J-225000D01*
G01*
X150081000Y-54314000D01*
G75*
G02*
X149856000Y-54539000I-225000J0D01*
G01*
G37*
G36*
G01*
X149856000Y-56089000D02*
X149356000Y-56089000D01*
G75*
G02*
X149131000Y-55864000I0J225000D01*
G01*
X149131000Y-55414000D01*
G75*
G02*
X149356000Y-55189000I225000J0D01*
G01*
X149856000Y-55189000D01*
G75*
G02*
X150081000Y-55414000I0J-225000D01*
G01*
X150081000Y-55864000D01*
G75*
G02*
X149856000Y-56089000I-225000J0D01*
G01*
G37*
%TD*%
%TO.C,C5*%
G36*
G01*
X160405000Y-46807000D02*
X160905000Y-46807000D01*
G75*
G02*
X161130000Y-47032000I0J-225000D01*
G01*
X161130000Y-47482000D01*
G75*
G02*
X160905000Y-47707000I-225000J0D01*
G01*
X160405000Y-47707000D01*
G75*
G02*
X160180000Y-47482000I0J225000D01*
G01*
X160180000Y-47032000D01*
G75*
G02*
X160405000Y-46807000I225000J0D01*
G01*
G37*
G36*
G01*
X160405000Y-45257000D02*
X160905000Y-45257000D01*
G75*
G02*
X161130000Y-45482000I0J-225000D01*
G01*
X161130000Y-45932000D01*
G75*
G02*
X160905000Y-46157000I-225000J0D01*
G01*
X160405000Y-46157000D01*
G75*
G02*
X160180000Y-45932000I0J225000D01*
G01*
X160180000Y-45482000D01*
G75*
G02*
X160405000Y-45257000I225000J0D01*
G01*
G37*
%TD*%
%TO.C,C6*%
G36*
G01*
X161600000Y-51566000D02*
X161600000Y-52066000D01*
G75*
G02*
X161375000Y-52291000I-225000J0D01*
G01*
X160925000Y-52291000D01*
G75*
G02*
X160700000Y-52066000I0J225000D01*
G01*
X160700000Y-51566000D01*
G75*
G02*
X160925000Y-51341000I225000J0D01*
G01*
X161375000Y-51341000D01*
G75*
G02*
X161600000Y-51566000I0J-225000D01*
G01*
G37*
G36*
G01*
X163150000Y-51566000D02*
X163150000Y-52066000D01*
G75*
G02*
X162925000Y-52291000I-225000J0D01*
G01*
X162475000Y-52291000D01*
G75*
G02*
X162250000Y-52066000I0J225000D01*
G01*
X162250000Y-51566000D01*
G75*
G02*
X162475000Y-51341000I225000J0D01*
G01*
X162925000Y-51341000D01*
G75*
G02*
X163150000Y-51566000I0J-225000D01*
G01*
G37*
%TD*%
%TO.C,C8*%
G36*
G01*
X145956000Y-55568000D02*
X146906000Y-55568000D01*
G75*
G02*
X147156000Y-55818000I0J-250000D01*
G01*
X147156000Y-56318000D01*
G75*
G02*
X146906000Y-56568000I-250000J0D01*
G01*
X145956000Y-56568000D01*
G75*
G02*
X145706000Y-56318000I0J250000D01*
G01*
X145706000Y-55818000D01*
G75*
G02*
X145956000Y-55568000I250000J0D01*
G01*
G37*
G36*
G01*
X145956000Y-53668000D02*
X146906000Y-53668000D01*
G75*
G02*
X147156000Y-53918000I0J-250000D01*
G01*
X147156000Y-54418000D01*
G75*
G02*
X146906000Y-54668000I-250000J0D01*
G01*
X145956000Y-54668000D01*
G75*
G02*
X145706000Y-54418000I0J250000D01*
G01*
X145706000Y-53918000D01*
G75*
G02*
X145956000Y-53668000I250000J0D01*
G01*
G37*
%TD*%
%TO.C,C7*%
G36*
G01*
X164305000Y-45905000D02*
X163355000Y-45905000D01*
G75*
G02*
X163105000Y-45655000I0J250000D01*
G01*
X163105000Y-45155000D01*
G75*
G02*
X163355000Y-44905000I250000J0D01*
G01*
X164305000Y-44905000D01*
G75*
G02*
X164555000Y-45155000I0J-250000D01*
G01*
X164555000Y-45655000D01*
G75*
G02*
X164305000Y-45905000I-250000J0D01*
G01*
G37*
G36*
G01*
X164305000Y-47805000D02*
X163355000Y-47805000D01*
G75*
G02*
X163105000Y-47555000I0J250000D01*
G01*
X163105000Y-47055000D01*
G75*
G02*
X163355000Y-46805000I250000J0D01*
G01*
X164305000Y-46805000D01*
G75*
G02*
X164555000Y-47055000I0J-250000D01*
G01*
X164555000Y-47555000D01*
G75*
G02*
X164305000Y-47805000I-250000J0D01*
G01*
G37*
%TD*%
%TO.C,C3*%
G36*
G01*
X124894000Y-41689000D02*
X124894000Y-42639000D01*
G75*
G02*
X124644000Y-42889000I-250000J0D01*
G01*
X124144000Y-42889000D01*
G75*
G02*
X123894000Y-42639000I0J250000D01*
G01*
X123894000Y-41689000D01*
G75*
G02*
X124144000Y-41439000I250000J0D01*
G01*
X124644000Y-41439000D01*
G75*
G02*
X124894000Y-41689000I0J-250000D01*
G01*
G37*
G36*
G01*
X122994000Y-41689000D02*
X122994000Y-42639000D01*
G75*
G02*
X122744000Y-42889000I-250000J0D01*
G01*
X122244000Y-42889000D01*
G75*
G02*
X121994000Y-42639000I0J250000D01*
G01*
X121994000Y-41689000D01*
G75*
G02*
X122244000Y-41439000I250000J0D01*
G01*
X122744000Y-41439000D01*
G75*
G02*
X122994000Y-41689000I0J-250000D01*
G01*
G37*
%TD*%
%TO.C,C1*%
G36*
G01*
X116660000Y-42639000D02*
X116660000Y-41689000D01*
G75*
G02*
X116910000Y-41439000I250000J0D01*
G01*
X117410000Y-41439000D01*
G75*
G02*
X117660000Y-41689000I0J-250000D01*
G01*
X117660000Y-42639000D01*
G75*
G02*
X117410000Y-42889000I-250000J0D01*
G01*
X116910000Y-42889000D01*
G75*
G02*
X116660000Y-42639000I0J250000D01*
G01*
G37*
G36*
G01*
X118560000Y-42639000D02*
X118560000Y-41689000D01*
G75*
G02*
X118810000Y-41439000I250000J0D01*
G01*
X119310000Y-41439000D01*
G75*
G02*
X119560000Y-41689000I0J-250000D01*
G01*
X119560000Y-42639000D01*
G75*
G02*
X119310000Y-42889000I-250000J0D01*
G01*
X118810000Y-42889000D01*
G75*
G02*
X118560000Y-42639000I0J250000D01*
G01*
G37*
%TD*%
M02*
