%TF.GenerationSoftware,KiCad,Pcbnew,(5.1.12)-1*%
%TF.CreationDate,2022-04-21T18:08:35-07:00*%
%TF.ProjectId,ATMega809 Breakout,41544d65-6761-4383-9039-20427265616b,rev?*%
%TF.SameCoordinates,Original*%
%TF.FileFunction,Legend,Top*%
%TF.FilePolarity,Positive*%
%FSLAX46Y46*%
G04 Gerber Fmt 4.6, Leading zero omitted, Abs format (unit mm)*
G04 Created by KiCad (PCBNEW (5.1.12)-1) date 2022-04-21 18:08:35*
%MOMM*%
%LPD*%
G01*
G04 APERTURE LIST*
%ADD10C,0.150000*%
%ADD11C,0.300000*%
%ADD12C,0.120000*%
%ADD13C,0.200000*%
%ADD14C,0.127000*%
%ADD15R,1.900000X1.000000*%
%ADD16R,1.900000X1.800000*%
%ADD17R,1.300000X1.650000*%
%ADD18R,1.550000X1.425000*%
%ADD19R,1.380000X0.450000*%
%ADD20R,0.863600X0.708000*%
%ADD21R,1.092200X1.800200*%
%ADD22R,0.708000X0.863600*%
%ADD23R,1.800200X1.092200*%
%ADD24R,2.000000X1.500000*%
%ADD25R,2.000000X3.800000*%
%ADD26R,1.143000X0.762000*%
%ADD27R,0.939800X1.397000*%
%ADD28C,2.000000*%
%ADD29O,1.700000X1.700000*%
%ADD30R,1.700000X1.700000*%
%ADD31C,3.800000*%
%ADD32R,0.900000X0.800000*%
G04 APERTURE END LIST*
D10*
X162941000Y-68580000D02*
X162941000Y-66167000D01*
X121348666Y-57602380D02*
X121348666Y-56602380D01*
X121729619Y-56602380D01*
X121824857Y-56650000D01*
X121872476Y-56697619D01*
X121920095Y-56792857D01*
X121920095Y-56935714D01*
X121872476Y-57030952D01*
X121824857Y-57078571D01*
X121729619Y-57126190D01*
X121348666Y-57126190D01*
X122253428Y-56602380D02*
X122491523Y-57602380D01*
X122682000Y-56888095D01*
X122872476Y-57602380D01*
X123110571Y-56602380D01*
X124062952Y-57602380D02*
X123729619Y-57126190D01*
X123491523Y-57602380D02*
X123491523Y-56602380D01*
X123872476Y-56602380D01*
X123967714Y-56650000D01*
X124015333Y-56697619D01*
X124062952Y-56792857D01*
X124062952Y-56935714D01*
X124015333Y-57030952D01*
X123967714Y-57078571D01*
X123872476Y-57126190D01*
X123491523Y-57126190D01*
X121920000Y-59182000D02*
X121920000Y-57912000D01*
X123190000Y-58547000D02*
X121920000Y-57912000D01*
X123190000Y-58547000D02*
X121920000Y-59182000D01*
X123190000Y-59182000D02*
X123190000Y-57912000D01*
X120015000Y-58547000D02*
X123825000Y-58547000D01*
X168910190Y-49744380D02*
X168910190Y-50553904D01*
X168957809Y-50649142D01*
X169005428Y-50696761D01*
X169100666Y-50744380D01*
X169291142Y-50744380D01*
X169386380Y-50696761D01*
X169434000Y-50649142D01*
X169481619Y-50553904D01*
X169481619Y-49744380D01*
X169957809Y-50744380D02*
X169957809Y-49744380D01*
X170338761Y-49744380D01*
X170434000Y-49792000D01*
X170481619Y-49839619D01*
X170529238Y-49934857D01*
X170529238Y-50077714D01*
X170481619Y-50172952D01*
X170434000Y-50220571D01*
X170338761Y-50268190D01*
X169957809Y-50268190D01*
X170957809Y-50744380D02*
X170957809Y-49744380D01*
X171195904Y-49744380D01*
X171338761Y-49792000D01*
X171434000Y-49887238D01*
X171481619Y-49982476D01*
X171529238Y-50172952D01*
X171529238Y-50315809D01*
X171481619Y-50506285D01*
X171434000Y-50601523D01*
X171338761Y-50696761D01*
X171195904Y-50744380D01*
X170957809Y-50744380D01*
X171957809Y-50744380D02*
X171957809Y-49744380D01*
X152860523Y-60524380D02*
X152860523Y-59524380D01*
X153241476Y-59524380D01*
X153336714Y-59572000D01*
X153384333Y-59619619D01*
X153431952Y-59714857D01*
X153431952Y-59857714D01*
X153384333Y-59952952D01*
X153336714Y-60000571D01*
X153241476Y-60048190D01*
X152860523Y-60048190D01*
X153812904Y-60238666D02*
X154289095Y-60238666D01*
X153717666Y-60524380D02*
X154051000Y-59524380D01*
X154384333Y-60524380D01*
X154717666Y-60524380D02*
X154717666Y-59524380D01*
X154955761Y-59524380D01*
X155098619Y-59572000D01*
X155193857Y-59667238D01*
X155241476Y-59762476D01*
X155289095Y-59952952D01*
X155289095Y-60095809D01*
X155241476Y-60286285D01*
X155193857Y-60381523D01*
X155098619Y-60476761D01*
X154955761Y-60524380D01*
X154717666Y-60524380D01*
X152836714Y-62174380D02*
X152836714Y-61174380D01*
X153074809Y-61174380D01*
X153217666Y-61222000D01*
X153312904Y-61317238D01*
X153360523Y-61412476D01*
X153408142Y-61602952D01*
X153408142Y-61745809D01*
X153360523Y-61936285D01*
X153312904Y-62031523D01*
X153217666Y-62126761D01*
X153074809Y-62174380D01*
X152836714Y-62174380D01*
X153789095Y-61269619D02*
X153836714Y-61222000D01*
X153931952Y-61174380D01*
X154170047Y-61174380D01*
X154265285Y-61222000D01*
X154312904Y-61269619D01*
X154360523Y-61364857D01*
X154360523Y-61460095D01*
X154312904Y-61602952D01*
X153741476Y-62174380D01*
X154360523Y-62174380D01*
X154693857Y-61174380D02*
X155312904Y-61174380D01*
X154979571Y-61555333D01*
X155122428Y-61555333D01*
X155217666Y-61602952D01*
X155265285Y-61650571D01*
X155312904Y-61745809D01*
X155312904Y-61983904D01*
X155265285Y-62079142D01*
X155217666Y-62126761D01*
X155122428Y-62174380D01*
X154836714Y-62174380D01*
X154741476Y-62126761D01*
X154693857Y-62079142D01*
X153408142Y-63824380D02*
X152931952Y-63824380D01*
X152931952Y-62824380D01*
X153741476Y-63300571D02*
X154074809Y-63300571D01*
X154217666Y-63824380D02*
X153741476Y-63824380D01*
X153741476Y-62824380D01*
X154217666Y-62824380D01*
X154646238Y-63824380D02*
X154646238Y-62824380D01*
X154884333Y-62824380D01*
X155027190Y-62872000D01*
X155122428Y-62967238D01*
X155170047Y-63062476D01*
X155217666Y-63252952D01*
X155217666Y-63395809D01*
X155170047Y-63586285D01*
X155122428Y-63681523D01*
X155027190Y-63776761D01*
X154884333Y-63824380D01*
X154646238Y-63824380D01*
X165862095Y-67572000D02*
X165766857Y-67524380D01*
X165624000Y-67524380D01*
X165481142Y-67572000D01*
X165385904Y-67667238D01*
X165338285Y-67762476D01*
X165290666Y-67952952D01*
X165290666Y-68095809D01*
X165338285Y-68286285D01*
X165385904Y-68381523D01*
X165481142Y-68476761D01*
X165624000Y-68524380D01*
X165719238Y-68524380D01*
X165862095Y-68476761D01*
X165909714Y-68429142D01*
X165909714Y-68095809D01*
X165719238Y-68095809D01*
X166338285Y-68524380D02*
X166338285Y-67524380D01*
X166909714Y-68524380D01*
X166909714Y-67524380D01*
X167385904Y-68524380D02*
X167385904Y-67524380D01*
X167624000Y-67524380D01*
X167766857Y-67572000D01*
X167862095Y-67667238D01*
X167909714Y-67762476D01*
X167957333Y-67952952D01*
X167957333Y-68095809D01*
X167909714Y-68286285D01*
X167862095Y-68381523D01*
X167766857Y-68476761D01*
X167624000Y-68524380D01*
X167385904Y-68524380D01*
X164282380Y-67926976D02*
X163806190Y-68260309D01*
X164282380Y-68498404D02*
X163282380Y-68498404D01*
X163282380Y-68117452D01*
X163330000Y-68022214D01*
X163377619Y-67974595D01*
X163472857Y-67926976D01*
X163615714Y-67926976D01*
X163710952Y-67974595D01*
X163758571Y-68022214D01*
X163806190Y-68117452D01*
X163806190Y-68498404D01*
X164234761Y-67546023D02*
X164282380Y-67403166D01*
X164282380Y-67165071D01*
X164234761Y-67069833D01*
X164187142Y-67022214D01*
X164091904Y-66974595D01*
X163996666Y-66974595D01*
X163901428Y-67022214D01*
X163853809Y-67069833D01*
X163806190Y-67165071D01*
X163758571Y-67355547D01*
X163710952Y-67450785D01*
X163663333Y-67498404D01*
X163568095Y-67546023D01*
X163472857Y-67546023D01*
X163377619Y-67498404D01*
X163330000Y-67450785D01*
X163282380Y-67355547D01*
X163282380Y-67117452D01*
X163330000Y-66974595D01*
X163282380Y-66688880D02*
X163282380Y-66117452D01*
X164282380Y-66403166D02*
X163282380Y-66403166D01*
X161742380Y-68498404D02*
X160742380Y-68498404D01*
X160742380Y-68260309D01*
X160790000Y-68117452D01*
X160885238Y-68022214D01*
X160980476Y-67974595D01*
X161170952Y-67926976D01*
X161313809Y-67926976D01*
X161504285Y-67974595D01*
X161599523Y-68022214D01*
X161694761Y-68117452D01*
X161742380Y-68260309D01*
X161742380Y-68498404D01*
X160837619Y-67546023D02*
X160790000Y-67498404D01*
X160742380Y-67403166D01*
X160742380Y-67165071D01*
X160790000Y-67069833D01*
X160837619Y-67022214D01*
X160932857Y-66974595D01*
X161028095Y-66974595D01*
X161170952Y-67022214D01*
X161742380Y-67593642D01*
X161742380Y-66974595D01*
X160742380Y-66641261D02*
X160742380Y-66022214D01*
X161123333Y-66355547D01*
X161123333Y-66212690D01*
X161170952Y-66117452D01*
X161218571Y-66069833D01*
X161313809Y-66022214D01*
X161551904Y-66022214D01*
X161647142Y-66069833D01*
X161694761Y-66117452D01*
X161742380Y-66212690D01*
X161742380Y-66498404D01*
X161694761Y-66593642D01*
X161647142Y-66641261D01*
X159202380Y-68498404D02*
X158202380Y-68498404D01*
X158202380Y-68260309D01*
X158250000Y-68117452D01*
X158345238Y-68022214D01*
X158440476Y-67974595D01*
X158630952Y-67926976D01*
X158773809Y-67926976D01*
X158964285Y-67974595D01*
X159059523Y-68022214D01*
X159154761Y-68117452D01*
X159202380Y-68260309D01*
X159202380Y-68498404D01*
X158297619Y-67546023D02*
X158250000Y-67498404D01*
X158202380Y-67403166D01*
X158202380Y-67165071D01*
X158250000Y-67069833D01*
X158297619Y-67022214D01*
X158392857Y-66974595D01*
X158488095Y-66974595D01*
X158630952Y-67022214D01*
X159202380Y-67593642D01*
X159202380Y-66974595D01*
X158297619Y-66593642D02*
X158250000Y-66546023D01*
X158202380Y-66450785D01*
X158202380Y-66212690D01*
X158250000Y-66117452D01*
X158297619Y-66069833D01*
X158392857Y-66022214D01*
X158488095Y-66022214D01*
X158630952Y-66069833D01*
X159202380Y-66641261D01*
X159202380Y-66022214D01*
X156662380Y-68498404D02*
X155662380Y-68498404D01*
X155662380Y-68260309D01*
X155710000Y-68117452D01*
X155805238Y-68022214D01*
X155900476Y-67974595D01*
X156090952Y-67926976D01*
X156233809Y-67926976D01*
X156424285Y-67974595D01*
X156519523Y-68022214D01*
X156614761Y-68117452D01*
X156662380Y-68260309D01*
X156662380Y-68498404D01*
X155757619Y-67546023D02*
X155710000Y-67498404D01*
X155662380Y-67403166D01*
X155662380Y-67165071D01*
X155710000Y-67069833D01*
X155757619Y-67022214D01*
X155852857Y-66974595D01*
X155948095Y-66974595D01*
X156090952Y-67022214D01*
X156662380Y-67593642D01*
X156662380Y-66974595D01*
X156662380Y-66022214D02*
X156662380Y-66593642D01*
X156662380Y-66307928D02*
X155662380Y-66307928D01*
X155805238Y-66403166D01*
X155900476Y-66498404D01*
X155948095Y-66593642D01*
X154122380Y-68498404D02*
X153122380Y-68498404D01*
X153122380Y-68260309D01*
X153170000Y-68117452D01*
X153265238Y-68022214D01*
X153360476Y-67974595D01*
X153550952Y-67926976D01*
X153693809Y-67926976D01*
X153884285Y-67974595D01*
X153979523Y-68022214D01*
X154074761Y-68117452D01*
X154122380Y-68260309D01*
X154122380Y-68498404D01*
X153217619Y-67546023D02*
X153170000Y-67498404D01*
X153122380Y-67403166D01*
X153122380Y-67165071D01*
X153170000Y-67069833D01*
X153217619Y-67022214D01*
X153312857Y-66974595D01*
X153408095Y-66974595D01*
X153550952Y-67022214D01*
X154122380Y-67593642D01*
X154122380Y-66974595D01*
X153122380Y-66355547D02*
X153122380Y-66260309D01*
X153170000Y-66165071D01*
X153217619Y-66117452D01*
X153312857Y-66069833D01*
X153503333Y-66022214D01*
X153741428Y-66022214D01*
X153931904Y-66069833D01*
X154027142Y-66117452D01*
X154074761Y-66165071D01*
X154122380Y-66260309D01*
X154122380Y-66355547D01*
X154074761Y-66450785D01*
X154027142Y-66498404D01*
X153931904Y-66546023D01*
X153741428Y-66593642D01*
X153503333Y-66593642D01*
X153312857Y-66546023D01*
X153217619Y-66498404D01*
X153170000Y-66450785D01*
X153122380Y-66355547D01*
X150630000Y-67974595D02*
X150582380Y-68069833D01*
X150582380Y-68212690D01*
X150630000Y-68355547D01*
X150725238Y-68450785D01*
X150820476Y-68498404D01*
X151010952Y-68546023D01*
X151153809Y-68546023D01*
X151344285Y-68498404D01*
X151439523Y-68450785D01*
X151534761Y-68355547D01*
X151582380Y-68212690D01*
X151582380Y-68117452D01*
X151534761Y-67974595D01*
X151487142Y-67926976D01*
X151153809Y-67926976D01*
X151153809Y-68117452D01*
X151582380Y-67498404D02*
X150582380Y-67498404D01*
X151582380Y-66926976D01*
X150582380Y-66926976D01*
X151582380Y-66450785D02*
X150582380Y-66450785D01*
X150582380Y-66212690D01*
X150630000Y-66069833D01*
X150725238Y-65974595D01*
X150820476Y-65926976D01*
X151010952Y-65879357D01*
X151153809Y-65879357D01*
X151344285Y-65926976D01*
X151439523Y-65974595D01*
X151534761Y-66069833D01*
X151582380Y-66212690D01*
X151582380Y-66450785D01*
X148994761Y-68546023D02*
X149042380Y-68403166D01*
X149042380Y-68165071D01*
X148994761Y-68069833D01*
X148947142Y-68022214D01*
X148851904Y-67974595D01*
X148756666Y-67974595D01*
X148661428Y-68022214D01*
X148613809Y-68069833D01*
X148566190Y-68165071D01*
X148518571Y-68355547D01*
X148470952Y-68450785D01*
X148423333Y-68498404D01*
X148328095Y-68546023D01*
X148232857Y-68546023D01*
X148137619Y-68498404D01*
X148090000Y-68450785D01*
X148042380Y-68355547D01*
X148042380Y-68117452D01*
X148090000Y-67974595D01*
X148994761Y-67593642D02*
X149042380Y-67450785D01*
X149042380Y-67212690D01*
X148994761Y-67117452D01*
X148947142Y-67069833D01*
X148851904Y-67022214D01*
X148756666Y-67022214D01*
X148661428Y-67069833D01*
X148613809Y-67117452D01*
X148566190Y-67212690D01*
X148518571Y-67403166D01*
X148470952Y-67498404D01*
X148423333Y-67546023D01*
X148328095Y-67593642D01*
X148232857Y-67593642D01*
X148137619Y-67546023D01*
X148090000Y-67498404D01*
X148042380Y-67403166D01*
X148042380Y-67165071D01*
X148090000Y-67022214D01*
X146454761Y-68546023D02*
X146502380Y-68403166D01*
X146502380Y-68165071D01*
X146454761Y-68069833D01*
X146407142Y-68022214D01*
X146311904Y-67974595D01*
X146216666Y-67974595D01*
X146121428Y-68022214D01*
X146073809Y-68069833D01*
X146026190Y-68165071D01*
X145978571Y-68355547D01*
X145930952Y-68450785D01*
X145883333Y-68498404D01*
X145788095Y-68546023D01*
X145692857Y-68546023D01*
X145597619Y-68498404D01*
X145550000Y-68450785D01*
X145502380Y-68355547D01*
X145502380Y-68117452D01*
X145550000Y-67974595D01*
X146407142Y-66974595D02*
X146454761Y-67022214D01*
X146502380Y-67165071D01*
X146502380Y-67260309D01*
X146454761Y-67403166D01*
X146359523Y-67498404D01*
X146264285Y-67546023D01*
X146073809Y-67593642D01*
X145930952Y-67593642D01*
X145740476Y-67546023D01*
X145645238Y-67498404D01*
X145550000Y-67403166D01*
X145502380Y-67260309D01*
X145502380Y-67165071D01*
X145550000Y-67022214D01*
X145597619Y-66974595D01*
X146502380Y-66546023D02*
X145502380Y-66546023D01*
X146502380Y-65974595D02*
X145930952Y-66403166D01*
X145502380Y-65974595D02*
X146073809Y-66546023D01*
X143962380Y-68498404D02*
X142962380Y-68498404D01*
X143676666Y-68165071D01*
X142962380Y-67831738D01*
X143962380Y-67831738D01*
X143962380Y-67355547D02*
X142962380Y-67355547D01*
X143914761Y-66926976D02*
X143962380Y-66784119D01*
X143962380Y-66546023D01*
X143914761Y-66450785D01*
X143867142Y-66403166D01*
X143771904Y-66355547D01*
X143676666Y-66355547D01*
X143581428Y-66403166D01*
X143533809Y-66450785D01*
X143486190Y-66546023D01*
X143438571Y-66736500D01*
X143390952Y-66831738D01*
X143343333Y-66879357D01*
X143248095Y-66926976D01*
X143152857Y-66926976D01*
X143057619Y-66879357D01*
X143010000Y-66831738D01*
X142962380Y-66736500D01*
X142962380Y-66498404D01*
X143010000Y-66355547D01*
X142962380Y-65736500D02*
X142962380Y-65546023D01*
X143010000Y-65450785D01*
X143105238Y-65355547D01*
X143295714Y-65307928D01*
X143629047Y-65307928D01*
X143819523Y-65355547D01*
X143914761Y-65450785D01*
X143962380Y-65546023D01*
X143962380Y-65736500D01*
X143914761Y-65831738D01*
X143819523Y-65926976D01*
X143629047Y-65974595D01*
X143295714Y-65974595D01*
X143105238Y-65926976D01*
X143010000Y-65831738D01*
X142962380Y-65736500D01*
X141422380Y-68498404D02*
X140422380Y-68498404D01*
X141136666Y-68165071D01*
X140422380Y-67831738D01*
X141422380Y-67831738D01*
X140422380Y-67165071D02*
X140422380Y-66974595D01*
X140470000Y-66879357D01*
X140565238Y-66784119D01*
X140755714Y-66736500D01*
X141089047Y-66736500D01*
X141279523Y-66784119D01*
X141374761Y-66879357D01*
X141422380Y-66974595D01*
X141422380Y-67165071D01*
X141374761Y-67260309D01*
X141279523Y-67355547D01*
X141089047Y-67403166D01*
X140755714Y-67403166D01*
X140565238Y-67355547D01*
X140470000Y-67260309D01*
X140422380Y-67165071D01*
X141374761Y-66355547D02*
X141422380Y-66212690D01*
X141422380Y-65974595D01*
X141374761Y-65879357D01*
X141327142Y-65831738D01*
X141231904Y-65784119D01*
X141136666Y-65784119D01*
X141041428Y-65831738D01*
X140993809Y-65879357D01*
X140946190Y-65974595D01*
X140898571Y-66165071D01*
X140850952Y-66260309D01*
X140803333Y-66307928D01*
X140708095Y-66355547D01*
X140612857Y-66355547D01*
X140517619Y-66307928D01*
X140470000Y-66260309D01*
X140422380Y-66165071D01*
X140422380Y-65926976D01*
X140470000Y-65784119D01*
X141422380Y-65355547D02*
X140422380Y-65355547D01*
X138882380Y-68498404D02*
X137882380Y-68498404D01*
X137882380Y-68260309D01*
X137930000Y-68117452D01*
X138025238Y-68022214D01*
X138120476Y-67974595D01*
X138310952Y-67926976D01*
X138453809Y-67926976D01*
X138644285Y-67974595D01*
X138739523Y-68022214D01*
X138834761Y-68117452D01*
X138882380Y-68260309D01*
X138882380Y-68498404D01*
X138882380Y-66974595D02*
X138882380Y-67546023D01*
X138882380Y-67260309D02*
X137882380Y-67260309D01*
X138025238Y-67355547D01*
X138120476Y-67450785D01*
X138168095Y-67546023D01*
X137882380Y-66069833D02*
X137882380Y-66546023D01*
X138358571Y-66593642D01*
X138310952Y-66546023D01*
X138263333Y-66450785D01*
X138263333Y-66212690D01*
X138310952Y-66117452D01*
X138358571Y-66069833D01*
X138453809Y-66022214D01*
X138691904Y-66022214D01*
X138787142Y-66069833D01*
X138834761Y-66117452D01*
X138882380Y-66212690D01*
X138882380Y-66450785D01*
X138834761Y-66546023D01*
X138787142Y-66593642D01*
X136342380Y-68498404D02*
X135342380Y-68498404D01*
X135342380Y-68260309D01*
X135390000Y-68117452D01*
X135485238Y-68022214D01*
X135580476Y-67974595D01*
X135770952Y-67926976D01*
X135913809Y-67926976D01*
X136104285Y-67974595D01*
X136199523Y-68022214D01*
X136294761Y-68117452D01*
X136342380Y-68260309D01*
X136342380Y-68498404D01*
X136342380Y-66974595D02*
X136342380Y-67546023D01*
X136342380Y-67260309D02*
X135342380Y-67260309D01*
X135485238Y-67355547D01*
X135580476Y-67450785D01*
X135628095Y-67546023D01*
X135675714Y-66117452D02*
X136342380Y-66117452D01*
X135294761Y-66355547D02*
X136009047Y-66593642D01*
X136009047Y-65974595D01*
X133802380Y-68498404D02*
X132802380Y-68498404D01*
X132802380Y-68260309D01*
X132850000Y-68117452D01*
X132945238Y-68022214D01*
X133040476Y-67974595D01*
X133230952Y-67926976D01*
X133373809Y-67926976D01*
X133564285Y-67974595D01*
X133659523Y-68022214D01*
X133754761Y-68117452D01*
X133802380Y-68260309D01*
X133802380Y-68498404D01*
X133802380Y-66974595D02*
X133802380Y-67546023D01*
X133802380Y-67260309D02*
X132802380Y-67260309D01*
X132945238Y-67355547D01*
X133040476Y-67450785D01*
X133088095Y-67546023D01*
X132802380Y-66641261D02*
X132802380Y-66022214D01*
X133183333Y-66355547D01*
X133183333Y-66212690D01*
X133230952Y-66117452D01*
X133278571Y-66069833D01*
X133373809Y-66022214D01*
X133611904Y-66022214D01*
X133707142Y-66069833D01*
X133754761Y-66117452D01*
X133802380Y-66212690D01*
X133802380Y-66498404D01*
X133754761Y-66593642D01*
X133707142Y-66641261D01*
X130095714Y-68238666D02*
X130571904Y-68238666D01*
X130000476Y-68524380D02*
X130333809Y-67524380D01*
X130667142Y-68524380D01*
X130952857Y-67619619D02*
X131000476Y-67572000D01*
X131095714Y-67524380D01*
X131333809Y-67524380D01*
X131429047Y-67572000D01*
X131476666Y-67619619D01*
X131524285Y-67714857D01*
X131524285Y-67810095D01*
X131476666Y-67952952D01*
X130905238Y-68524380D01*
X131524285Y-68524380D01*
X127555714Y-68238666D02*
X128031904Y-68238666D01*
X127460476Y-68524380D02*
X127793809Y-67524380D01*
X128127142Y-68524380D01*
X128984285Y-68524380D02*
X128412857Y-68524380D01*
X128698571Y-68524380D02*
X128698571Y-67524380D01*
X128603333Y-67667238D01*
X128508095Y-67762476D01*
X128412857Y-67810095D01*
X125015714Y-68238666D02*
X125491904Y-68238666D01*
X124920476Y-68524380D02*
X125253809Y-67524380D01*
X125587142Y-68524380D01*
X126110952Y-67524380D02*
X126206190Y-67524380D01*
X126301428Y-67572000D01*
X126349047Y-67619619D01*
X126396666Y-67714857D01*
X126444285Y-67905333D01*
X126444285Y-68143428D01*
X126396666Y-68333904D01*
X126349047Y-68429142D01*
X126301428Y-68476761D01*
X126206190Y-68524380D01*
X126110952Y-68524380D01*
X126015714Y-68476761D01*
X125968095Y-68429142D01*
X125920476Y-68333904D01*
X125872857Y-68143428D01*
X125872857Y-67905333D01*
X125920476Y-67714857D01*
X125968095Y-67619619D01*
X126015714Y-67572000D01*
X126110952Y-67524380D01*
X123594761Y-68546023D02*
X123642380Y-68403166D01*
X123642380Y-68165071D01*
X123594761Y-68069833D01*
X123547142Y-68022214D01*
X123451904Y-67974595D01*
X123356666Y-67974595D01*
X123261428Y-68022214D01*
X123213809Y-68069833D01*
X123166190Y-68165071D01*
X123118571Y-68355547D01*
X123070952Y-68450785D01*
X123023333Y-68498404D01*
X122928095Y-68546023D01*
X122832857Y-68546023D01*
X122737619Y-68498404D01*
X122690000Y-68450785D01*
X122642380Y-68355547D01*
X122642380Y-68117452D01*
X122690000Y-67974595D01*
X123547142Y-66974595D02*
X123594761Y-67022214D01*
X123642380Y-67165071D01*
X123642380Y-67260309D01*
X123594761Y-67403166D01*
X123499523Y-67498404D01*
X123404285Y-67546023D01*
X123213809Y-67593642D01*
X123070952Y-67593642D01*
X122880476Y-67546023D01*
X122785238Y-67498404D01*
X122690000Y-67403166D01*
X122642380Y-67260309D01*
X122642380Y-67165071D01*
X122690000Y-67022214D01*
X122737619Y-66974595D01*
X123642380Y-66069833D02*
X123642380Y-66546023D01*
X122642380Y-66546023D01*
X121054761Y-68546023D02*
X121102380Y-68403166D01*
X121102380Y-68165071D01*
X121054761Y-68069833D01*
X121007142Y-68022214D01*
X120911904Y-67974595D01*
X120816666Y-67974595D01*
X120721428Y-68022214D01*
X120673809Y-68069833D01*
X120626190Y-68165071D01*
X120578571Y-68355547D01*
X120530952Y-68450785D01*
X120483333Y-68498404D01*
X120388095Y-68546023D01*
X120292857Y-68546023D01*
X120197619Y-68498404D01*
X120150000Y-68450785D01*
X120102380Y-68355547D01*
X120102380Y-68117452D01*
X120150000Y-67974595D01*
X121102380Y-67546023D02*
X120102380Y-67546023D01*
X120102380Y-67307928D01*
X120150000Y-67165071D01*
X120245238Y-67069833D01*
X120340476Y-67022214D01*
X120530952Y-66974595D01*
X120673809Y-66974595D01*
X120864285Y-67022214D01*
X120959523Y-67069833D01*
X121054761Y-67165071D01*
X121102380Y-67307928D01*
X121102380Y-67546023D01*
X120816666Y-66593642D02*
X120816666Y-66117452D01*
X121102380Y-66688880D02*
X120102380Y-66355547D01*
X121102380Y-66022214D01*
X116840095Y-67572000D02*
X116744857Y-67524380D01*
X116602000Y-67524380D01*
X116459142Y-67572000D01*
X116363904Y-67667238D01*
X116316285Y-67762476D01*
X116268666Y-67952952D01*
X116268666Y-68095809D01*
X116316285Y-68286285D01*
X116363904Y-68381523D01*
X116459142Y-68476761D01*
X116602000Y-68524380D01*
X116697238Y-68524380D01*
X116840095Y-68476761D01*
X116887714Y-68429142D01*
X116887714Y-68095809D01*
X116697238Y-68095809D01*
X117316285Y-68524380D02*
X117316285Y-67524380D01*
X117887714Y-68524380D01*
X117887714Y-67524380D01*
X118363904Y-68524380D02*
X118363904Y-67524380D01*
X118602000Y-67524380D01*
X118744857Y-67572000D01*
X118840095Y-67667238D01*
X118887714Y-67762476D01*
X118935333Y-67952952D01*
X118935333Y-68095809D01*
X118887714Y-68286285D01*
X118840095Y-68381523D01*
X118744857Y-68476761D01*
X118602000Y-68524380D01*
X118363904Y-68524380D01*
X103235619Y-62206666D02*
X103711809Y-62206666D01*
X103140380Y-62492380D02*
X103473714Y-61492380D01*
X103807047Y-62492380D01*
X103997523Y-61492380D02*
X104568952Y-61492380D01*
X104283238Y-62492380D02*
X104283238Y-61492380D01*
X104902285Y-62492380D02*
X104902285Y-61492380D01*
X105235619Y-62206666D01*
X105568952Y-61492380D01*
X105568952Y-62492380D01*
X106426095Y-62444761D02*
X106330857Y-62492380D01*
X106140380Y-62492380D01*
X106045142Y-62444761D01*
X105997523Y-62349523D01*
X105997523Y-61968571D01*
X106045142Y-61873333D01*
X106140380Y-61825714D01*
X106330857Y-61825714D01*
X106426095Y-61873333D01*
X106473714Y-61968571D01*
X106473714Y-62063809D01*
X105997523Y-62159047D01*
X107330857Y-61825714D02*
X107330857Y-62635238D01*
X107283238Y-62730476D01*
X107235619Y-62778095D01*
X107140380Y-62825714D01*
X106997523Y-62825714D01*
X106902285Y-62778095D01*
X107330857Y-62444761D02*
X107235619Y-62492380D01*
X107045142Y-62492380D01*
X106949904Y-62444761D01*
X106902285Y-62397142D01*
X106854666Y-62301904D01*
X106854666Y-62016190D01*
X106902285Y-61920952D01*
X106949904Y-61873333D01*
X107045142Y-61825714D01*
X107235619Y-61825714D01*
X107330857Y-61873333D01*
X108235619Y-62492380D02*
X108235619Y-61968571D01*
X108188000Y-61873333D01*
X108092761Y-61825714D01*
X107902285Y-61825714D01*
X107807047Y-61873333D01*
X108235619Y-62444761D02*
X108140380Y-62492380D01*
X107902285Y-62492380D01*
X107807047Y-62444761D01*
X107759428Y-62349523D01*
X107759428Y-62254285D01*
X107807047Y-62159047D01*
X107902285Y-62111428D01*
X108140380Y-62111428D01*
X108235619Y-62063809D01*
X108854666Y-61920952D02*
X108759428Y-61873333D01*
X108711809Y-61825714D01*
X108664190Y-61730476D01*
X108664190Y-61682857D01*
X108711809Y-61587619D01*
X108759428Y-61540000D01*
X108854666Y-61492380D01*
X109045142Y-61492380D01*
X109140380Y-61540000D01*
X109188000Y-61587619D01*
X109235619Y-61682857D01*
X109235619Y-61730476D01*
X109188000Y-61825714D01*
X109140380Y-61873333D01*
X109045142Y-61920952D01*
X108854666Y-61920952D01*
X108759428Y-61968571D01*
X108711809Y-62016190D01*
X108664190Y-62111428D01*
X108664190Y-62301904D01*
X108711809Y-62397142D01*
X108759428Y-62444761D01*
X108854666Y-62492380D01*
X109045142Y-62492380D01*
X109140380Y-62444761D01*
X109188000Y-62397142D01*
X109235619Y-62301904D01*
X109235619Y-62111428D01*
X109188000Y-62016190D01*
X109140380Y-61968571D01*
X109045142Y-61920952D01*
X109854666Y-61492380D02*
X109949904Y-61492380D01*
X110045142Y-61540000D01*
X110092761Y-61587619D01*
X110140380Y-61682857D01*
X110188000Y-61873333D01*
X110188000Y-62111428D01*
X110140380Y-62301904D01*
X110092761Y-62397142D01*
X110045142Y-62444761D01*
X109949904Y-62492380D01*
X109854666Y-62492380D01*
X109759428Y-62444761D01*
X109711809Y-62397142D01*
X109664190Y-62301904D01*
X109616571Y-62111428D01*
X109616571Y-61873333D01*
X109664190Y-61682857D01*
X109711809Y-61587619D01*
X109759428Y-61540000D01*
X109854666Y-61492380D01*
X110664190Y-62492380D02*
X110854666Y-62492380D01*
X110949904Y-62444761D01*
X110997523Y-62397142D01*
X111092761Y-62254285D01*
X111140380Y-62063809D01*
X111140380Y-61682857D01*
X111092761Y-61587619D01*
X111045142Y-61540000D01*
X110949904Y-61492380D01*
X110759428Y-61492380D01*
X110664190Y-61540000D01*
X110616571Y-61587619D01*
X110568952Y-61682857D01*
X110568952Y-61920952D01*
X110616571Y-62016190D01*
X110664190Y-62063809D01*
X110759428Y-62111428D01*
X110949904Y-62111428D01*
X111045142Y-62063809D01*
X111092761Y-62016190D01*
X111140380Y-61920952D01*
X102521333Y-63618571D02*
X102664190Y-63666190D01*
X102711809Y-63713809D01*
X102759428Y-63809047D01*
X102759428Y-63951904D01*
X102711809Y-64047142D01*
X102664190Y-64094761D01*
X102568952Y-64142380D01*
X102188000Y-64142380D01*
X102188000Y-63142380D01*
X102521333Y-63142380D01*
X102616571Y-63190000D01*
X102664190Y-63237619D01*
X102711809Y-63332857D01*
X102711809Y-63428095D01*
X102664190Y-63523333D01*
X102616571Y-63570952D01*
X102521333Y-63618571D01*
X102188000Y-63618571D01*
X103188000Y-64142380D02*
X103188000Y-63475714D01*
X103188000Y-63666190D02*
X103235619Y-63570952D01*
X103283238Y-63523333D01*
X103378476Y-63475714D01*
X103473714Y-63475714D01*
X104188000Y-64094761D02*
X104092761Y-64142380D01*
X103902285Y-64142380D01*
X103807047Y-64094761D01*
X103759428Y-63999523D01*
X103759428Y-63618571D01*
X103807047Y-63523333D01*
X103902285Y-63475714D01*
X104092761Y-63475714D01*
X104188000Y-63523333D01*
X104235619Y-63618571D01*
X104235619Y-63713809D01*
X103759428Y-63809047D01*
X105092761Y-64142380D02*
X105092761Y-63618571D01*
X105045142Y-63523333D01*
X104949904Y-63475714D01*
X104759428Y-63475714D01*
X104664190Y-63523333D01*
X105092761Y-64094761D02*
X104997523Y-64142380D01*
X104759428Y-64142380D01*
X104664190Y-64094761D01*
X104616571Y-63999523D01*
X104616571Y-63904285D01*
X104664190Y-63809047D01*
X104759428Y-63761428D01*
X104997523Y-63761428D01*
X105092761Y-63713809D01*
X105568952Y-64142380D02*
X105568952Y-63142380D01*
X105664190Y-63761428D02*
X105949904Y-64142380D01*
X105949904Y-63475714D02*
X105568952Y-63856666D01*
X106521333Y-64142380D02*
X106426095Y-64094761D01*
X106378476Y-64047142D01*
X106330857Y-63951904D01*
X106330857Y-63666190D01*
X106378476Y-63570952D01*
X106426095Y-63523333D01*
X106521333Y-63475714D01*
X106664190Y-63475714D01*
X106759428Y-63523333D01*
X106807047Y-63570952D01*
X106854666Y-63666190D01*
X106854666Y-63951904D01*
X106807047Y-64047142D01*
X106759428Y-64094761D01*
X106664190Y-64142380D01*
X106521333Y-64142380D01*
X107711809Y-63475714D02*
X107711809Y-64142380D01*
X107283238Y-63475714D02*
X107283238Y-63999523D01*
X107330857Y-64094761D01*
X107426095Y-64142380D01*
X107568952Y-64142380D01*
X107664190Y-64094761D01*
X107711809Y-64047142D01*
X108045142Y-63475714D02*
X108426095Y-63475714D01*
X108188000Y-63142380D02*
X108188000Y-63999523D01*
X108235619Y-64094761D01*
X108330857Y-64142380D01*
X108426095Y-64142380D01*
X109426095Y-63475714D02*
X109664190Y-64142380D01*
X109902285Y-63475714D01*
X110807047Y-64142380D02*
X110235619Y-64142380D01*
X110521333Y-64142380D02*
X110521333Y-63142380D01*
X110426095Y-63285238D01*
X110330857Y-63380476D01*
X110235619Y-63428095D01*
X111235619Y-64047142D02*
X111283238Y-64094761D01*
X111235619Y-64142380D01*
X111188000Y-64094761D01*
X111235619Y-64047142D01*
X111235619Y-64142380D01*
X111902285Y-63142380D02*
X111997523Y-63142380D01*
X112092761Y-63190000D01*
X112140380Y-63237619D01*
X112188000Y-63332857D01*
X112235619Y-63523333D01*
X112235619Y-63761428D01*
X112188000Y-63951904D01*
X112140380Y-64047142D01*
X112092761Y-64094761D01*
X111997523Y-64142380D01*
X111902285Y-64142380D01*
X111807047Y-64094761D01*
X111759428Y-64047142D01*
X111711809Y-63951904D01*
X111664190Y-63761428D01*
X111664190Y-63523333D01*
X111711809Y-63332857D01*
X111759428Y-63237619D01*
X111807047Y-63190000D01*
X111902285Y-63142380D01*
X102497095Y-53999380D02*
X102497095Y-54808904D01*
X102544714Y-54904142D01*
X102592333Y-54951761D01*
X102687571Y-54999380D01*
X102878047Y-54999380D01*
X102973285Y-54951761D01*
X103020904Y-54904142D01*
X103068523Y-54808904D01*
X103068523Y-53999380D01*
X103497095Y-54951761D02*
X103639952Y-54999380D01*
X103878047Y-54999380D01*
X103973285Y-54951761D01*
X104020904Y-54904142D01*
X104068523Y-54808904D01*
X104068523Y-54713666D01*
X104020904Y-54618428D01*
X103973285Y-54570809D01*
X103878047Y-54523190D01*
X103687571Y-54475571D01*
X103592333Y-54427952D01*
X103544714Y-54380333D01*
X103497095Y-54285095D01*
X103497095Y-54189857D01*
X103544714Y-54094619D01*
X103592333Y-54047000D01*
X103687571Y-53999380D01*
X103925666Y-53999380D01*
X104068523Y-54047000D01*
X104830428Y-54475571D02*
X104973285Y-54523190D01*
X105020904Y-54570809D01*
X105068523Y-54666047D01*
X105068523Y-54808904D01*
X105020904Y-54904142D01*
X104973285Y-54951761D01*
X104878047Y-54999380D01*
X104497095Y-54999380D01*
X104497095Y-53999380D01*
X104830428Y-53999380D01*
X104925666Y-54047000D01*
X104973285Y-54094619D01*
X105020904Y-54189857D01*
X105020904Y-54285095D01*
X104973285Y-54380333D01*
X104925666Y-54427952D01*
X104830428Y-54475571D01*
X104497095Y-54475571D01*
X102425666Y-56649380D02*
X102425666Y-55649380D01*
X102806619Y-55649380D01*
X102901857Y-55697000D01*
X102949476Y-55744619D01*
X102997095Y-55839857D01*
X102997095Y-55982714D01*
X102949476Y-56077952D01*
X102901857Y-56125571D01*
X102806619Y-56173190D01*
X102425666Y-56173190D01*
X103330428Y-55649380D02*
X103568523Y-56649380D01*
X103759000Y-55935095D01*
X103949476Y-56649380D01*
X104187571Y-55649380D01*
X105139952Y-56649380D02*
X104806619Y-56173190D01*
X104568523Y-56649380D02*
X104568523Y-55649380D01*
X104949476Y-55649380D01*
X105044714Y-55697000D01*
X105092333Y-55744619D01*
X105139952Y-55839857D01*
X105139952Y-55982714D01*
X105092333Y-56077952D01*
X105044714Y-56125571D01*
X104949476Y-56173190D01*
X104568523Y-56173190D01*
X159639000Y-62611000D02*
X159639000Y-61341000D01*
X156464000Y-61976000D02*
X160274000Y-61976000D01*
X158369000Y-62611000D02*
X158369000Y-61341000D01*
X159639000Y-61976000D02*
X158369000Y-61341000D01*
X159639000Y-61976000D02*
X158369000Y-62611000D01*
X164084095Y-37600000D02*
X163988857Y-37552380D01*
X163846000Y-37552380D01*
X163703142Y-37600000D01*
X163607904Y-37695238D01*
X163560285Y-37790476D01*
X163512666Y-37980952D01*
X163512666Y-38123809D01*
X163560285Y-38314285D01*
X163607904Y-38409523D01*
X163703142Y-38504761D01*
X163846000Y-38552380D01*
X163941238Y-38552380D01*
X164084095Y-38504761D01*
X164131714Y-38457142D01*
X164131714Y-38123809D01*
X163941238Y-38123809D01*
X164560285Y-38552380D02*
X164560285Y-37552380D01*
X165131714Y-38552380D01*
X165131714Y-37552380D01*
X165607904Y-38552380D02*
X165607904Y-37552380D01*
X165846000Y-37552380D01*
X165988857Y-37600000D01*
X166084095Y-37695238D01*
X166131714Y-37790476D01*
X166179333Y-37980952D01*
X166179333Y-38123809D01*
X166131714Y-38314285D01*
X166084095Y-38409523D01*
X165988857Y-38504761D01*
X165846000Y-38552380D01*
X165607904Y-38552380D01*
X161036095Y-37552380D02*
X161607523Y-37552380D01*
X161321809Y-38552380D02*
X161321809Y-37552380D01*
X161845619Y-37552380D02*
X162512285Y-38552380D01*
X162512285Y-37552380D02*
X161845619Y-38552380D01*
X159091333Y-38552380D02*
X158758000Y-38076190D01*
X158519904Y-38552380D02*
X158519904Y-37552380D01*
X158900857Y-37552380D01*
X158996095Y-37600000D01*
X159043714Y-37647619D01*
X159091333Y-37742857D01*
X159091333Y-37885714D01*
X159043714Y-37980952D01*
X158996095Y-38028571D01*
X158900857Y-38076190D01*
X158519904Y-38076190D01*
X159424666Y-37552380D02*
X160091333Y-38552380D01*
X160091333Y-37552380D02*
X159424666Y-38552380D01*
X155979904Y-38552380D02*
X155979904Y-37552380D01*
X156218000Y-37552380D01*
X156360857Y-37600000D01*
X156456095Y-37695238D01*
X156503714Y-37790476D01*
X156551333Y-37980952D01*
X156551333Y-38123809D01*
X156503714Y-38314285D01*
X156456095Y-38409523D01*
X156360857Y-38504761D01*
X156218000Y-38552380D01*
X155979904Y-38552380D01*
X156932285Y-37647619D02*
X156979904Y-37600000D01*
X157075142Y-37552380D01*
X157313238Y-37552380D01*
X157408476Y-37600000D01*
X157456095Y-37647619D01*
X157503714Y-37742857D01*
X157503714Y-37838095D01*
X157456095Y-37980952D01*
X156884666Y-38552380D01*
X157503714Y-38552380D01*
X153439904Y-38552380D02*
X153439904Y-37552380D01*
X153678000Y-37552380D01*
X153820857Y-37600000D01*
X153916095Y-37695238D01*
X153963714Y-37790476D01*
X154011333Y-37980952D01*
X154011333Y-38123809D01*
X153963714Y-38314285D01*
X153916095Y-38409523D01*
X153820857Y-38504761D01*
X153678000Y-38552380D01*
X153439904Y-38552380D01*
X154344666Y-37552380D02*
X154963714Y-37552380D01*
X154630380Y-37933333D01*
X154773238Y-37933333D01*
X154868476Y-37980952D01*
X154916095Y-38028571D01*
X154963714Y-38123809D01*
X154963714Y-38361904D01*
X154916095Y-38457142D01*
X154868476Y-38504761D01*
X154773238Y-38552380D01*
X154487523Y-38552380D01*
X154392285Y-38504761D01*
X154344666Y-38457142D01*
X150899904Y-38552380D02*
X150899904Y-37552380D01*
X151138000Y-37552380D01*
X151280857Y-37600000D01*
X151376095Y-37695238D01*
X151423714Y-37790476D01*
X151471333Y-37980952D01*
X151471333Y-38123809D01*
X151423714Y-38314285D01*
X151376095Y-38409523D01*
X151280857Y-38504761D01*
X151138000Y-38552380D01*
X150899904Y-38552380D01*
X152328476Y-37885714D02*
X152328476Y-38552380D01*
X152090380Y-37504761D02*
X151852285Y-38219047D01*
X152471333Y-38219047D01*
X148359904Y-38552380D02*
X148359904Y-37552380D01*
X148598000Y-37552380D01*
X148740857Y-37600000D01*
X148836095Y-37695238D01*
X148883714Y-37790476D01*
X148931333Y-37980952D01*
X148931333Y-38123809D01*
X148883714Y-38314285D01*
X148836095Y-38409523D01*
X148740857Y-38504761D01*
X148598000Y-38552380D01*
X148359904Y-38552380D01*
X149836095Y-37552380D02*
X149359904Y-37552380D01*
X149312285Y-38028571D01*
X149359904Y-37980952D01*
X149455142Y-37933333D01*
X149693238Y-37933333D01*
X149788476Y-37980952D01*
X149836095Y-38028571D01*
X149883714Y-38123809D01*
X149883714Y-38361904D01*
X149836095Y-38457142D01*
X149788476Y-38504761D01*
X149693238Y-38552380D01*
X149455142Y-38552380D01*
X149359904Y-38504761D01*
X149312285Y-38457142D01*
X123219785Y-37600000D02*
X123124547Y-37552380D01*
X122981690Y-37552380D01*
X122838833Y-37600000D01*
X122743595Y-37695238D01*
X122695976Y-37790476D01*
X122648357Y-37980952D01*
X122648357Y-38123809D01*
X122695976Y-38314285D01*
X122743595Y-38409523D01*
X122838833Y-38504761D01*
X122981690Y-38552380D01*
X123076928Y-38552380D01*
X123219785Y-38504761D01*
X123267404Y-38457142D01*
X123267404Y-38123809D01*
X123076928Y-38123809D01*
X123695976Y-38552380D02*
X123695976Y-37552380D01*
X124267404Y-38552380D01*
X124267404Y-37552380D01*
X124743595Y-38552380D02*
X124743595Y-37552380D01*
X124981690Y-37552380D01*
X125124547Y-37600000D01*
X125219785Y-37695238D01*
X125267404Y-37790476D01*
X125315023Y-37980952D01*
X125315023Y-38123809D01*
X125267404Y-38314285D01*
X125219785Y-38409523D01*
X125124547Y-38504761D01*
X124981690Y-38552380D01*
X124743595Y-38552380D01*
X144470380Y-39530738D02*
X143994190Y-39864071D01*
X144470380Y-40102166D02*
X143470380Y-40102166D01*
X143470380Y-39721214D01*
X143518000Y-39625976D01*
X143565619Y-39578357D01*
X143660857Y-39530738D01*
X143803714Y-39530738D01*
X143898952Y-39578357D01*
X143946571Y-39625976D01*
X143994190Y-39721214D01*
X143994190Y-40102166D01*
X143470380Y-39197404D02*
X144470380Y-38530738D01*
X143470380Y-38530738D02*
X144470380Y-39197404D01*
X143470380Y-38245023D02*
X143470380Y-37625976D01*
X143851333Y-37959309D01*
X143851333Y-37816452D01*
X143898952Y-37721214D01*
X143946571Y-37673595D01*
X144041809Y-37625976D01*
X144279904Y-37625976D01*
X144375142Y-37673595D01*
X144422761Y-37721214D01*
X144470380Y-37816452D01*
X144470380Y-38102166D01*
X144422761Y-38197404D01*
X144375142Y-38245023D01*
X146010380Y-40006928D02*
X146010380Y-39435500D01*
X147010380Y-39721214D02*
X146010380Y-39721214D01*
X146010380Y-39197404D02*
X147010380Y-38530738D01*
X146010380Y-38530738D02*
X147010380Y-39197404D01*
X146010380Y-38245023D02*
X146010380Y-37625976D01*
X146391333Y-37959309D01*
X146391333Y-37816452D01*
X146438952Y-37721214D01*
X146486571Y-37673595D01*
X146581809Y-37625976D01*
X146819904Y-37625976D01*
X146915142Y-37673595D01*
X146962761Y-37721214D01*
X147010380Y-37816452D01*
X147010380Y-38102166D01*
X146962761Y-38197404D01*
X146915142Y-38245023D01*
X140739904Y-38552380D02*
X140739904Y-37552380D01*
X140978000Y-37552380D01*
X141120857Y-37600000D01*
X141216095Y-37695238D01*
X141263714Y-37790476D01*
X141311333Y-37980952D01*
X141311333Y-38123809D01*
X141263714Y-38314285D01*
X141216095Y-38409523D01*
X141120857Y-38504761D01*
X140978000Y-38552380D01*
X140739904Y-38552380D01*
X141882761Y-37980952D02*
X141787523Y-37933333D01*
X141739904Y-37885714D01*
X141692285Y-37790476D01*
X141692285Y-37742857D01*
X141739904Y-37647619D01*
X141787523Y-37600000D01*
X141882761Y-37552380D01*
X142073238Y-37552380D01*
X142168476Y-37600000D01*
X142216095Y-37647619D01*
X142263714Y-37742857D01*
X142263714Y-37790476D01*
X142216095Y-37885714D01*
X142168476Y-37933333D01*
X142073238Y-37980952D01*
X141882761Y-37980952D01*
X141787523Y-38028571D01*
X141739904Y-38076190D01*
X141692285Y-38171428D01*
X141692285Y-38361904D01*
X141739904Y-38457142D01*
X141787523Y-38504761D01*
X141882761Y-38552380D01*
X142073238Y-38552380D01*
X142168476Y-38504761D01*
X142216095Y-38457142D01*
X142263714Y-38361904D01*
X142263714Y-38171428D01*
X142216095Y-38076190D01*
X142168476Y-38028571D01*
X142073238Y-37980952D01*
X138072904Y-38552380D02*
X138072904Y-37552380D01*
X138311000Y-37552380D01*
X138453857Y-37600000D01*
X138549095Y-37695238D01*
X138596714Y-37790476D01*
X138644333Y-37980952D01*
X138644333Y-38123809D01*
X138596714Y-38314285D01*
X138549095Y-38409523D01*
X138453857Y-38504761D01*
X138311000Y-38552380D01*
X138072904Y-38552380D01*
X139120523Y-38552380D02*
X139311000Y-38552380D01*
X139406238Y-38504761D01*
X139453857Y-38457142D01*
X139549095Y-38314285D01*
X139596714Y-38123809D01*
X139596714Y-37742857D01*
X139549095Y-37647619D01*
X139501476Y-37600000D01*
X139406238Y-37552380D01*
X139215761Y-37552380D01*
X139120523Y-37600000D01*
X139072904Y-37647619D01*
X139025285Y-37742857D01*
X139025285Y-37980952D01*
X139072904Y-38076190D01*
X139120523Y-38123809D01*
X139215761Y-38171428D01*
X139406238Y-38171428D01*
X139501476Y-38123809D01*
X139549095Y-38076190D01*
X139596714Y-37980952D01*
X108807619Y-42759380D02*
X109426666Y-42759380D01*
X109093333Y-43140333D01*
X109236190Y-43140333D01*
X109331428Y-43187952D01*
X109379047Y-43235571D01*
X109426666Y-43330809D01*
X109426666Y-43568904D01*
X109379047Y-43664142D01*
X109331428Y-43711761D01*
X109236190Y-43759380D01*
X108950476Y-43759380D01*
X108855238Y-43711761D01*
X108807619Y-43664142D01*
X109712380Y-42759380D02*
X110045714Y-43759380D01*
X110379047Y-42759380D01*
X110617142Y-42759380D02*
X111236190Y-42759380D01*
X110902857Y-43140333D01*
X111045714Y-43140333D01*
X111140952Y-43187952D01*
X111188571Y-43235571D01*
X111236190Y-43330809D01*
X111236190Y-43568904D01*
X111188571Y-43664142D01*
X111140952Y-43711761D01*
X111045714Y-43759380D01*
X110760000Y-43759380D01*
X110664761Y-43711761D01*
X110617142Y-43664142D01*
X111426666Y-43854619D02*
X112188571Y-43854619D01*
X112379047Y-43711761D02*
X112521904Y-43759380D01*
X112760000Y-43759380D01*
X112855238Y-43711761D01*
X112902857Y-43664142D01*
X112950476Y-43568904D01*
X112950476Y-43473666D01*
X112902857Y-43378428D01*
X112855238Y-43330809D01*
X112760000Y-43283190D01*
X112569523Y-43235571D01*
X112474285Y-43187952D01*
X112426666Y-43140333D01*
X112379047Y-43045095D01*
X112379047Y-42949857D01*
X112426666Y-42854619D01*
X112474285Y-42807000D01*
X112569523Y-42759380D01*
X112807619Y-42759380D01*
X112950476Y-42807000D01*
X113379047Y-43235571D02*
X113712380Y-43235571D01*
X113855238Y-43759380D02*
X113379047Y-43759380D01*
X113379047Y-42759380D01*
X113855238Y-42759380D01*
X114760000Y-43759380D02*
X114283809Y-43759380D01*
X114283809Y-42759380D01*
X134903785Y-37600000D02*
X134808547Y-37552380D01*
X134665690Y-37552380D01*
X134522833Y-37600000D01*
X134427595Y-37695238D01*
X134379976Y-37790476D01*
X134332357Y-37980952D01*
X134332357Y-38123809D01*
X134379976Y-38314285D01*
X134427595Y-38409523D01*
X134522833Y-38504761D01*
X134665690Y-38552380D01*
X134760928Y-38552380D01*
X134903785Y-38504761D01*
X134951404Y-38457142D01*
X134951404Y-38123809D01*
X134760928Y-38123809D01*
X135379976Y-38552380D02*
X135379976Y-37552380D01*
X135951404Y-38552380D01*
X135951404Y-37552380D01*
X136427595Y-38552380D02*
X136427595Y-37552380D01*
X136665690Y-37552380D01*
X136808547Y-37600000D01*
X136903785Y-37695238D01*
X136951404Y-37790476D01*
X136999023Y-37980952D01*
X136999023Y-38123809D01*
X136951404Y-38314285D01*
X136903785Y-38409523D01*
X136808547Y-38504761D01*
X136665690Y-38552380D01*
X136427595Y-38552380D01*
X121737380Y-39387880D02*
X121261190Y-39721214D01*
X121737380Y-39959309D02*
X120737380Y-39959309D01*
X120737380Y-39578357D01*
X120785000Y-39483119D01*
X120832619Y-39435500D01*
X120927857Y-39387880D01*
X121070714Y-39387880D01*
X121165952Y-39435500D01*
X121213571Y-39483119D01*
X121261190Y-39578357D01*
X121261190Y-39959309D01*
X121213571Y-38959309D02*
X121213571Y-38625976D01*
X121737380Y-38483119D02*
X121737380Y-38959309D01*
X120737380Y-38959309D01*
X120737380Y-38483119D01*
X121213571Y-37721214D02*
X121213571Y-38054547D01*
X121737380Y-38054547D02*
X120737380Y-38054547D01*
X120737380Y-37578357D01*
X118197380Y-40197404D02*
X119197380Y-39864071D01*
X118197380Y-39530738D01*
X119197380Y-39197404D02*
X118197380Y-39197404D01*
X118197380Y-38959309D01*
X118245000Y-38816452D01*
X118340238Y-38721214D01*
X118435476Y-38673595D01*
X118625952Y-38625976D01*
X118768809Y-38625976D01*
X118959285Y-38673595D01*
X119054523Y-38721214D01*
X119149761Y-38816452D01*
X119197380Y-38959309D01*
X119197380Y-39197404D01*
X119197380Y-38197404D02*
X118197380Y-38197404D01*
X118197380Y-37959309D01*
X118245000Y-37816452D01*
X118340238Y-37721214D01*
X118435476Y-37673595D01*
X118625952Y-37625976D01*
X118768809Y-37625976D01*
X118959285Y-37673595D01*
X119054523Y-37721214D01*
X119149761Y-37816452D01*
X119197380Y-37959309D01*
X119197380Y-38197404D01*
X116133571Y-39864071D02*
X116181190Y-39721214D01*
X116228809Y-39673595D01*
X116324047Y-39625976D01*
X116466904Y-39625976D01*
X116562142Y-39673595D01*
X116609761Y-39721214D01*
X116657380Y-39816452D01*
X116657380Y-40197404D01*
X115657380Y-40197404D01*
X115657380Y-39864071D01*
X115705000Y-39768833D01*
X115752619Y-39721214D01*
X115847857Y-39673595D01*
X115943095Y-39673595D01*
X116038333Y-39721214D01*
X116085952Y-39768833D01*
X116133571Y-39864071D01*
X116133571Y-40197404D01*
X115657380Y-39197404D02*
X116466904Y-39197404D01*
X116562142Y-39149785D01*
X116609761Y-39102166D01*
X116657380Y-39006928D01*
X116657380Y-38816452D01*
X116609761Y-38721214D01*
X116562142Y-38673595D01*
X116466904Y-38625976D01*
X115657380Y-38625976D01*
X116609761Y-38197404D02*
X116657380Y-38054547D01*
X116657380Y-37816452D01*
X116609761Y-37721214D01*
X116562142Y-37673595D01*
X116466904Y-37625976D01*
X116371666Y-37625976D01*
X116276428Y-37673595D01*
X116228809Y-37721214D01*
X116181190Y-37816452D01*
X116133571Y-38006928D01*
X116085952Y-38102166D01*
X116038333Y-38149785D01*
X115943095Y-38197404D01*
X115847857Y-38197404D01*
X115752619Y-38149785D01*
X115705000Y-38102166D01*
X115657380Y-38006928D01*
X115657380Y-37768833D01*
X115705000Y-37625976D01*
X113117380Y-39657714D02*
X114117380Y-39324380D01*
X113117380Y-38991047D01*
X114117380Y-38657714D02*
X113117380Y-38657714D01*
X114117380Y-38181523D02*
X113117380Y-38181523D01*
X114117380Y-37610095D01*
X113117380Y-37610095D01*
X110363000Y-58039000D02*
X110363000Y-56769000D01*
X111633000Y-57404000D02*
X110363000Y-56769000D01*
X111633000Y-57404000D02*
X110363000Y-58039000D01*
X111633000Y-58039000D02*
X111633000Y-56769000D01*
X108458000Y-57404000D02*
X112268000Y-57404000D01*
X133604000Y-51054000D02*
X134874000Y-51054000D01*
X133604000Y-49784000D02*
X134874000Y-49784000D01*
X134239000Y-51054000D02*
X134874000Y-49784000D01*
X134239000Y-51054000D02*
X133604000Y-49784000D01*
X134239000Y-47879000D02*
X134239000Y-51689000D01*
X176728380Y-55411666D02*
X176252190Y-55745000D01*
X176728380Y-55983095D02*
X175728380Y-55983095D01*
X175728380Y-55602142D01*
X175776000Y-55506904D01*
X175823619Y-55459285D01*
X175918857Y-55411666D01*
X176061714Y-55411666D01*
X176156952Y-55459285D01*
X176204571Y-55506904D01*
X176252190Y-55602142D01*
X176252190Y-55983095D01*
X175728380Y-55078333D02*
X176728380Y-54411666D01*
X175728380Y-54411666D02*
X176728380Y-55078333D01*
X170434095Y-59777380D02*
X171005523Y-59777380D01*
X170719809Y-60777380D02*
X170719809Y-59777380D01*
X171243619Y-59777380D02*
X171910285Y-60777380D01*
X171910285Y-59777380D02*
X171243619Y-60777380D01*
D11*
X167363857Y-56692571D02*
X168335285Y-56692571D01*
X168449571Y-56635428D01*
X168506714Y-56578285D01*
X168563857Y-56464000D01*
X168563857Y-56235428D01*
X168506714Y-56121142D01*
X168449571Y-56064000D01*
X168335285Y-56006857D01*
X167363857Y-56006857D01*
X168563857Y-55435428D02*
X167363857Y-55435428D01*
X167363857Y-54978285D01*
X167421000Y-54864000D01*
X167478142Y-54806857D01*
X167592428Y-54749714D01*
X167763857Y-54749714D01*
X167878142Y-54806857D01*
X167935285Y-54864000D01*
X167992428Y-54978285D01*
X167992428Y-55435428D01*
X168563857Y-54235428D02*
X167363857Y-54235428D01*
X167363857Y-53949714D01*
X167421000Y-53778285D01*
X167535285Y-53664000D01*
X167649571Y-53606857D01*
X167878142Y-53549714D01*
X168049571Y-53549714D01*
X168278142Y-53606857D01*
X168392428Y-53664000D01*
X168506714Y-53778285D01*
X168563857Y-53949714D01*
X168563857Y-54235428D01*
X168563857Y-53035428D02*
X167363857Y-53035428D01*
D10*
X172910666Y-49744380D02*
X173244000Y-50744380D01*
X173577333Y-49744380D01*
X173910666Y-50744380D02*
X173910666Y-49744380D01*
X174148761Y-49744380D01*
X174291619Y-49792000D01*
X174386857Y-49887238D01*
X174434476Y-49982476D01*
X174482095Y-50172952D01*
X174482095Y-50315809D01*
X174434476Y-50506285D01*
X174386857Y-50601523D01*
X174291619Y-50696761D01*
X174148761Y-50744380D01*
X173910666Y-50744380D01*
X174910666Y-50744380D02*
X174910666Y-49744380D01*
X175148761Y-49744380D01*
X175291619Y-49792000D01*
X175386857Y-49887238D01*
X175434476Y-49982476D01*
X175482095Y-50172952D01*
X175482095Y-50315809D01*
X175434476Y-50506285D01*
X175386857Y-50601523D01*
X175291619Y-50696761D01*
X175148761Y-50744380D01*
X174910666Y-50744380D01*
X173482095Y-59825000D02*
X173386857Y-59777380D01*
X173244000Y-59777380D01*
X173101142Y-59825000D01*
X173005904Y-59920238D01*
X172958285Y-60015476D01*
X172910666Y-60205952D01*
X172910666Y-60348809D01*
X172958285Y-60539285D01*
X173005904Y-60634523D01*
X173101142Y-60729761D01*
X173244000Y-60777380D01*
X173339238Y-60777380D01*
X173482095Y-60729761D01*
X173529714Y-60682142D01*
X173529714Y-60348809D01*
X173339238Y-60348809D01*
X173958285Y-60777380D02*
X173958285Y-59777380D01*
X174529714Y-60777380D01*
X174529714Y-59777380D01*
X175005904Y-60777380D02*
X175005904Y-59777380D01*
X175244000Y-59777380D01*
X175386857Y-59825000D01*
X175482095Y-59920238D01*
X175529714Y-60015476D01*
X175577333Y-60205952D01*
X175577333Y-60348809D01*
X175529714Y-60539285D01*
X175482095Y-60634523D01*
X175386857Y-60729761D01*
X175244000Y-60777380D01*
X175005904Y-60777380D01*
D12*
%TO.C,R13*%
X173338258Y-64403500D02*
X172863742Y-64403500D01*
X173338258Y-63358500D02*
X172863742Y-63358500D01*
%TO.C,C10*%
X147826000Y-59068580D02*
X147826000Y-58787420D01*
X148846000Y-59068580D02*
X148846000Y-58787420D01*
%TO.C,R14*%
X163338742Y-48880500D02*
X163813258Y-48880500D01*
X163338742Y-49925500D02*
X163813258Y-49925500D01*
%TO.C,R12*%
X162291500Y-60816258D02*
X162291500Y-60341742D01*
X163336500Y-60816258D02*
X163336500Y-60341742D01*
%TO.C,J1*%
X101159000Y-44450000D02*
X101419000Y-44450000D01*
X103699000Y-44450000D02*
X105469000Y-44450000D01*
X105469000Y-44450000D02*
X105469000Y-44830000D01*
X105469000Y-52070000D02*
X103699000Y-52070000D01*
X101419000Y-52070000D02*
X101159000Y-52070000D01*
X105469000Y-52070000D02*
X105469000Y-51690000D01*
%TO.C,D2*%
X131508500Y-48575900D02*
X131508500Y-49271503D01*
X133159500Y-49271503D02*
X133159500Y-48575900D01*
X131826000Y-51420700D02*
X132842000Y-51420700D01*
%TO.C,D1*%
X108978700Y-56451500D02*
X109674303Y-56451500D01*
X109674303Y-54800500D02*
X108978700Y-54800500D01*
X111823500Y-56134000D02*
X111823500Y-55118000D01*
%TO.C,U1*%
X124719000Y-53194000D02*
X124719000Y-51934000D01*
X124719000Y-46374000D02*
X124719000Y-47634000D01*
X120959000Y-53194000D02*
X124719000Y-53194000D01*
X118709000Y-46374000D02*
X124719000Y-46374000D01*
%TO.C,SW1*%
X168183761Y-62306200D02*
X166842239Y-62306200D01*
X166842239Y-65455800D02*
X168183761Y-65455800D01*
%TO.C,J4*%
X165668000Y-36890000D02*
X165668000Y-34230000D01*
X137668000Y-36890000D02*
X165668000Y-36890000D01*
X137668000Y-34230000D02*
X165668000Y-34230000D01*
X137668000Y-36890000D02*
X137668000Y-34230000D01*
X136398000Y-36890000D02*
X135068000Y-36890000D01*
X135068000Y-36890000D02*
X135068000Y-35560000D01*
%TO.C,J3*%
X167700000Y-72069000D02*
X167700000Y-69409000D01*
X119380000Y-72069000D02*
X167700000Y-72069000D01*
X119380000Y-69409000D02*
X167700000Y-69409000D01*
X119380000Y-72069000D02*
X119380000Y-69409000D01*
X118110000Y-72069000D02*
X116780000Y-72069000D01*
X116780000Y-72069000D02*
X116780000Y-70739000D01*
%TO.C,C2*%
X126621000Y-44182420D02*
X126621000Y-44463580D01*
X125601000Y-44182420D02*
X125601000Y-44463580D01*
%TO.C,J2*%
X125155000Y-36890000D02*
X125155000Y-34230000D01*
X114935000Y-36890000D02*
X125155000Y-36890000D01*
X114935000Y-34230000D02*
X125155000Y-34230000D01*
X114935000Y-36890000D02*
X114935000Y-34230000D01*
X113665000Y-36890000D02*
X112335000Y-36890000D01*
X112335000Y-36890000D02*
X112335000Y-35560000D01*
%TO.C,R9*%
X158225258Y-59802500D02*
X157750742Y-59802500D01*
X158225258Y-60847500D02*
X157750742Y-60847500D01*
%TO.C,J5*%
X169866000Y-59115000D02*
X175066000Y-59115000D01*
X169866000Y-53975000D02*
X169866000Y-59115000D01*
X175066000Y-51375000D02*
X175066000Y-59115000D01*
X169866000Y-53975000D02*
X172466000Y-53975000D01*
X172466000Y-53975000D02*
X172466000Y-51375000D01*
X172466000Y-51375000D02*
X175066000Y-51375000D01*
X169866000Y-52705000D02*
X169866000Y-51375000D01*
X169866000Y-51375000D02*
X171196000Y-51375000D01*
D13*
%TO.C,U2*%
X154705000Y-41544000D02*
G75*
G03*
X154705000Y-41544000I-100000J0D01*
G01*
D14*
X148305000Y-50544000D02*
X148305000Y-50254000D01*
X148595000Y-50544000D02*
X148305000Y-50544000D01*
X155305000Y-50544000D02*
X155015000Y-50544000D01*
X155305000Y-50254000D02*
X155305000Y-50544000D01*
X148305000Y-43544000D02*
X148595000Y-43544000D01*
X148305000Y-43834000D02*
X148305000Y-43544000D01*
X155305000Y-43544000D02*
X155305000Y-43834000D01*
X155015000Y-43544000D02*
X155305000Y-43544000D01*
D12*
%TO.C,R11*%
X162162258Y-55259500D02*
X161687742Y-55259500D01*
X162162258Y-54214500D02*
X161687742Y-54214500D01*
%TO.C,R10*%
X115332742Y-56627500D02*
X115807258Y-56627500D01*
X115332742Y-57672500D02*
X115807258Y-57672500D01*
%TO.C,R8*%
X129302742Y-45959500D02*
X129777258Y-45959500D01*
X129302742Y-47004500D02*
X129777258Y-47004500D01*
%TO.C,R7*%
X129173500Y-42942742D02*
X129173500Y-43417258D01*
X128128500Y-42942742D02*
X128128500Y-43417258D01*
%TO.C,R6*%
X138161500Y-62848258D02*
X138161500Y-62373742D01*
X139206500Y-62848258D02*
X139206500Y-62373742D01*
%TO.C,R5*%
X123683500Y-62848258D02*
X123683500Y-62373742D01*
X124728500Y-62848258D02*
X124728500Y-62373742D01*
%TO.C,R4*%
X129173500Y-49038742D02*
X129173500Y-49513258D01*
X128128500Y-49038742D02*
X128128500Y-49513258D01*
%TO.C,R3*%
X109361500Y-50562742D02*
X109361500Y-51037258D01*
X108316500Y-50562742D02*
X108316500Y-51037258D01*
%TO.C,R2*%
X107837500Y-40910742D02*
X107837500Y-41385258D01*
X106792500Y-40910742D02*
X106792500Y-41385258D01*
%TO.C,R1*%
X113300742Y-49515500D02*
X113775258Y-49515500D01*
X113300742Y-50560500D02*
X113775258Y-50560500D01*
%TO.C,Q5*%
X115187000Y-54539000D02*
X115187000Y-53609000D01*
X115187000Y-51379000D02*
X115187000Y-52309000D01*
X115187000Y-51379000D02*
X113027000Y-51379000D01*
X115187000Y-54539000D02*
X113727000Y-54539000D01*
%TO.C,Q4*%
X119382000Y-61158000D02*
X119382000Y-62088000D01*
X119382000Y-64318000D02*
X119382000Y-63388000D01*
X119382000Y-64318000D02*
X121542000Y-64318000D01*
X119382000Y-61158000D02*
X120842000Y-61158000D01*
%TO.C,Q3*%
X133606000Y-61158000D02*
X133606000Y-62088000D01*
X133606000Y-64318000D02*
X133606000Y-63388000D01*
X133606000Y-64318000D02*
X135766000Y-64318000D01*
X133606000Y-61158000D02*
X135066000Y-61158000D01*
%TO.C,Q2*%
X130808000Y-64318000D02*
X130808000Y-63388000D01*
X130808000Y-61158000D02*
X130808000Y-62088000D01*
X130808000Y-61158000D02*
X128648000Y-61158000D01*
X130808000Y-64318000D02*
X129348000Y-64318000D01*
%TO.C,Q1*%
X116838000Y-64318000D02*
X116838000Y-63388000D01*
X116838000Y-61158000D02*
X116838000Y-62088000D01*
X116838000Y-61158000D02*
X114678000Y-61158000D01*
X116838000Y-64318000D02*
X115378000Y-64318000D01*
%TO.C,JP1*%
X109160000Y-44644000D02*
X109160000Y-47304000D01*
X111760000Y-44644000D02*
X109160000Y-44644000D01*
X111760000Y-47304000D02*
X109160000Y-47304000D01*
X111760000Y-44644000D02*
X111760000Y-47304000D01*
X113030000Y-44644000D02*
X114360000Y-44644000D01*
X114360000Y-44644000D02*
X114360000Y-45974000D01*
%TO.C,D4*%
X118580000Y-57885000D02*
X120865000Y-57885000D01*
X120865000Y-57885000D02*
X120865000Y-56415000D01*
X120865000Y-56415000D02*
X118580000Y-56415000D01*
%TO.C,D3*%
X157188000Y-64362000D02*
X159473000Y-64362000D01*
X159473000Y-64362000D02*
X159473000Y-62892000D01*
X159473000Y-62892000D02*
X157188000Y-62892000D01*
%TO.C,C9*%
X143508000Y-45098580D02*
X143508000Y-44817420D01*
X144528000Y-45098580D02*
X144528000Y-44817420D01*
%TO.C,C4*%
X149096000Y-55004580D02*
X149096000Y-54723420D01*
X150116000Y-55004580D02*
X150116000Y-54723420D01*
%TO.C,C5*%
X161165000Y-46341420D02*
X161165000Y-46622580D01*
X160145000Y-46341420D02*
X160145000Y-46622580D01*
%TO.C,C6*%
X162065580Y-52326000D02*
X161784420Y-52326000D01*
X162065580Y-51306000D02*
X161784420Y-51306000D01*
%TO.C,C8*%
X147166000Y-54856748D02*
X147166000Y-55379252D01*
X145696000Y-54856748D02*
X145696000Y-55379252D01*
%TO.C,C7*%
X163095000Y-46616252D02*
X163095000Y-46093748D01*
X164565000Y-46616252D02*
X164565000Y-46093748D01*
%TO.C,C3*%
X123705252Y-41429000D02*
X123182748Y-41429000D01*
X123705252Y-42899000D02*
X123182748Y-42899000D01*
%TO.C,C1*%
X117848748Y-42899000D02*
X118371252Y-42899000D01*
X117848748Y-41429000D02*
X118371252Y-41429000D01*
%TO.C,R13*%
D10*
X172458142Y-65763380D02*
X172124809Y-65287190D01*
X171886714Y-65763380D02*
X171886714Y-64763380D01*
X172267666Y-64763380D01*
X172362904Y-64811000D01*
X172410523Y-64858619D01*
X172458142Y-64953857D01*
X172458142Y-65096714D01*
X172410523Y-65191952D01*
X172362904Y-65239571D01*
X172267666Y-65287190D01*
X171886714Y-65287190D01*
X173410523Y-65763380D02*
X172839095Y-65763380D01*
X173124809Y-65763380D02*
X173124809Y-64763380D01*
X173029571Y-64906238D01*
X172934333Y-65001476D01*
X172839095Y-65049095D01*
X173743857Y-64763380D02*
X174362904Y-64763380D01*
X174029571Y-65144333D01*
X174172428Y-65144333D01*
X174267666Y-65191952D01*
X174315285Y-65239571D01*
X174362904Y-65334809D01*
X174362904Y-65572904D01*
X174315285Y-65668142D01*
X174267666Y-65715761D01*
X174172428Y-65763380D01*
X173886714Y-65763380D01*
X173791476Y-65715761D01*
X173743857Y-65668142D01*
%TO.C,C10*%
X150217142Y-60713857D02*
X150264761Y-60761476D01*
X150312380Y-60904333D01*
X150312380Y-60999571D01*
X150264761Y-61142428D01*
X150169523Y-61237666D01*
X150074285Y-61285285D01*
X149883809Y-61332904D01*
X149740952Y-61332904D01*
X149550476Y-61285285D01*
X149455238Y-61237666D01*
X149360000Y-61142428D01*
X149312380Y-60999571D01*
X149312380Y-60904333D01*
X149360000Y-60761476D01*
X149407619Y-60713857D01*
X150312380Y-59761476D02*
X150312380Y-60332904D01*
X150312380Y-60047190D02*
X149312380Y-60047190D01*
X149455238Y-60142428D01*
X149550476Y-60237666D01*
X149598095Y-60332904D01*
X149312380Y-59142428D02*
X149312380Y-59047190D01*
X149360000Y-58951952D01*
X149407619Y-58904333D01*
X149502857Y-58856714D01*
X149693333Y-58809095D01*
X149931428Y-58809095D01*
X150121904Y-58856714D01*
X150217142Y-58904333D01*
X150264761Y-58951952D01*
X150312380Y-59047190D01*
X150312380Y-59142428D01*
X150264761Y-59237666D01*
X150217142Y-59285285D01*
X150121904Y-59332904D01*
X149931428Y-59380523D01*
X149693333Y-59380523D01*
X149502857Y-59332904D01*
X149407619Y-59285285D01*
X149360000Y-59237666D01*
X149312380Y-59142428D01*
%TO.C,R14*%
X161869380Y-50172857D02*
X161393190Y-50506190D01*
X161869380Y-50744285D02*
X160869380Y-50744285D01*
X160869380Y-50363333D01*
X160917000Y-50268095D01*
X160964619Y-50220476D01*
X161059857Y-50172857D01*
X161202714Y-50172857D01*
X161297952Y-50220476D01*
X161345571Y-50268095D01*
X161393190Y-50363333D01*
X161393190Y-50744285D01*
X161869380Y-49220476D02*
X161869380Y-49791904D01*
X161869380Y-49506190D02*
X160869380Y-49506190D01*
X161012238Y-49601428D01*
X161107476Y-49696666D01*
X161155095Y-49791904D01*
X161202714Y-48363333D02*
X161869380Y-48363333D01*
X160821761Y-48601428D02*
X161536047Y-48839523D01*
X161536047Y-48220476D01*
%TO.C,R12*%
X161836380Y-61221857D02*
X161360190Y-61555190D01*
X161836380Y-61793285D02*
X160836380Y-61793285D01*
X160836380Y-61412333D01*
X160884000Y-61317095D01*
X160931619Y-61269476D01*
X161026857Y-61221857D01*
X161169714Y-61221857D01*
X161264952Y-61269476D01*
X161312571Y-61317095D01*
X161360190Y-61412333D01*
X161360190Y-61793285D01*
X161836380Y-60269476D02*
X161836380Y-60840904D01*
X161836380Y-60555190D02*
X160836380Y-60555190D01*
X160979238Y-60650428D01*
X161074476Y-60745666D01*
X161122095Y-60840904D01*
X160931619Y-59888523D02*
X160884000Y-59840904D01*
X160836380Y-59745666D01*
X160836380Y-59507571D01*
X160884000Y-59412333D01*
X160931619Y-59364714D01*
X161026857Y-59317095D01*
X161122095Y-59317095D01*
X161264952Y-59364714D01*
X161836380Y-59936142D01*
X161836380Y-59317095D01*
%TO.C,J1*%
X103933666Y-42352980D02*
X103933666Y-43067266D01*
X103886047Y-43210123D01*
X103790809Y-43305361D01*
X103647952Y-43352980D01*
X103552714Y-43352980D01*
X104933666Y-43352980D02*
X104362238Y-43352980D01*
X104647952Y-43352980D02*
X104647952Y-42352980D01*
X104552714Y-42495838D01*
X104457476Y-42591076D01*
X104362238Y-42638695D01*
%TO.C,D2*%
X131135380Y-50395095D02*
X130135380Y-50395095D01*
X130135380Y-50157000D01*
X130183000Y-50014142D01*
X130278238Y-49918904D01*
X130373476Y-49871285D01*
X130563952Y-49823666D01*
X130706809Y-49823666D01*
X130897285Y-49871285D01*
X130992523Y-49918904D01*
X131087761Y-50014142D01*
X131135380Y-50157000D01*
X131135380Y-50395095D01*
X130230619Y-49442714D02*
X130183000Y-49395095D01*
X130135380Y-49299857D01*
X130135380Y-49061761D01*
X130183000Y-48966523D01*
X130230619Y-48918904D01*
X130325857Y-48871285D01*
X130421095Y-48871285D01*
X130563952Y-48918904D01*
X131135380Y-49490333D01*
X131135380Y-48871285D01*
%TO.C,D1*%
X109370904Y-54173380D02*
X109370904Y-53173380D01*
X109609000Y-53173380D01*
X109751857Y-53221000D01*
X109847095Y-53316238D01*
X109894714Y-53411476D01*
X109942333Y-53601952D01*
X109942333Y-53744809D01*
X109894714Y-53935285D01*
X109847095Y-54030523D01*
X109751857Y-54125761D01*
X109609000Y-54173380D01*
X109370904Y-54173380D01*
X110894714Y-54173380D02*
X110323285Y-54173380D01*
X110609000Y-54173380D02*
X110609000Y-53173380D01*
X110513761Y-53316238D01*
X110418523Y-53411476D01*
X110323285Y-53459095D01*
%TO.C,U1*%
X122047095Y-44736380D02*
X122047095Y-45545904D01*
X122094714Y-45641142D01*
X122142333Y-45688761D01*
X122237571Y-45736380D01*
X122428047Y-45736380D01*
X122523285Y-45688761D01*
X122570904Y-45641142D01*
X122618523Y-45545904D01*
X122618523Y-44736380D01*
X123618523Y-45736380D02*
X123047095Y-45736380D01*
X123332809Y-45736380D02*
X123332809Y-44736380D01*
X123237571Y-44879238D01*
X123142333Y-44974476D01*
X123047095Y-45022095D01*
%TO.C,SW1*%
X164361761Y-65138133D02*
X164409380Y-64995276D01*
X164409380Y-64757180D01*
X164361761Y-64661942D01*
X164314142Y-64614323D01*
X164218904Y-64566704D01*
X164123666Y-64566704D01*
X164028428Y-64614323D01*
X163980809Y-64661942D01*
X163933190Y-64757180D01*
X163885571Y-64947657D01*
X163837952Y-65042895D01*
X163790333Y-65090514D01*
X163695095Y-65138133D01*
X163599857Y-65138133D01*
X163504619Y-65090514D01*
X163457000Y-65042895D01*
X163409380Y-64947657D01*
X163409380Y-64709561D01*
X163457000Y-64566704D01*
X163409380Y-64233371D02*
X164409380Y-63995276D01*
X163695095Y-63804800D01*
X164409380Y-63614323D01*
X163409380Y-63376228D01*
X164409380Y-62471466D02*
X164409380Y-63042895D01*
X164409380Y-62757180D02*
X163409380Y-62757180D01*
X163552238Y-62852419D01*
X163647476Y-62947657D01*
X163695095Y-63042895D01*
X166060619Y-61158380D02*
X165727285Y-60682190D01*
X165489190Y-61158380D02*
X165489190Y-60158380D01*
X165870142Y-60158380D01*
X165965380Y-60206000D01*
X166013000Y-60253619D01*
X166060619Y-60348857D01*
X166060619Y-60491714D01*
X166013000Y-60586952D01*
X165965380Y-60634571D01*
X165870142Y-60682190D01*
X165489190Y-60682190D01*
X166489190Y-60634571D02*
X166822523Y-60634571D01*
X166965380Y-61158380D02*
X166489190Y-61158380D01*
X166489190Y-60158380D01*
X166965380Y-60158380D01*
X167346333Y-61110761D02*
X167489190Y-61158380D01*
X167727285Y-61158380D01*
X167822523Y-61110761D01*
X167870142Y-61063142D01*
X167917761Y-60967904D01*
X167917761Y-60872666D01*
X167870142Y-60777428D01*
X167822523Y-60729809D01*
X167727285Y-60682190D01*
X167536809Y-60634571D01*
X167441571Y-60586952D01*
X167393952Y-60539333D01*
X167346333Y-60444095D01*
X167346333Y-60348857D01*
X167393952Y-60253619D01*
X167441571Y-60206000D01*
X167536809Y-60158380D01*
X167774904Y-60158380D01*
X167917761Y-60206000D01*
X168346333Y-60634571D02*
X168679666Y-60634571D01*
X168822523Y-61158380D02*
X168346333Y-61158380D01*
X168346333Y-60158380D01*
X168822523Y-60158380D01*
X169108238Y-60158380D02*
X169679666Y-60158380D01*
X169393952Y-61158380D02*
X169393952Y-60158380D01*
%TO.C,J4*%
X133520380Y-35893333D02*
X134234666Y-35893333D01*
X134377523Y-35940952D01*
X134472761Y-36036190D01*
X134520380Y-36179047D01*
X134520380Y-36274285D01*
X133853714Y-34988571D02*
X134520380Y-34988571D01*
X133472761Y-35226666D02*
X134187047Y-35464761D01*
X134187047Y-34845714D01*
%TO.C,J3*%
X115232380Y-71072333D02*
X115946666Y-71072333D01*
X116089523Y-71119952D01*
X116184761Y-71215190D01*
X116232380Y-71358047D01*
X116232380Y-71453285D01*
X115232380Y-70691380D02*
X115232380Y-70072333D01*
X115613333Y-70405666D01*
X115613333Y-70262809D01*
X115660952Y-70167571D01*
X115708571Y-70119952D01*
X115803809Y-70072333D01*
X116041904Y-70072333D01*
X116137142Y-70119952D01*
X116184761Y-70167571D01*
X116232380Y-70262809D01*
X116232380Y-70548523D01*
X116184761Y-70643761D01*
X116137142Y-70691380D01*
%TO.C,C2*%
X127484142Y-42076666D02*
X127531761Y-42124285D01*
X127579380Y-42267142D01*
X127579380Y-42362380D01*
X127531761Y-42505238D01*
X127436523Y-42600476D01*
X127341285Y-42648095D01*
X127150809Y-42695714D01*
X127007952Y-42695714D01*
X126817476Y-42648095D01*
X126722238Y-42600476D01*
X126627000Y-42505238D01*
X126579380Y-42362380D01*
X126579380Y-42267142D01*
X126627000Y-42124285D01*
X126674619Y-42076666D01*
X126674619Y-41695714D02*
X126627000Y-41648095D01*
X126579380Y-41552857D01*
X126579380Y-41314761D01*
X126627000Y-41219523D01*
X126674619Y-41171904D01*
X126769857Y-41124285D01*
X126865095Y-41124285D01*
X127007952Y-41171904D01*
X127579380Y-41743333D01*
X127579380Y-41124285D01*
%TO.C,J2*%
X110787380Y-35893333D02*
X111501666Y-35893333D01*
X111644523Y-35940952D01*
X111739761Y-36036190D01*
X111787380Y-36179047D01*
X111787380Y-36274285D01*
X110882619Y-35464761D02*
X110835000Y-35417142D01*
X110787380Y-35321904D01*
X110787380Y-35083809D01*
X110835000Y-34988571D01*
X110882619Y-34940952D01*
X110977857Y-34893333D01*
X111073095Y-34893333D01*
X111215952Y-34940952D01*
X111787380Y-35512380D01*
X111787380Y-34893333D01*
%TO.C,R9*%
X157821333Y-59380380D02*
X157488000Y-58904190D01*
X157249904Y-59380380D02*
X157249904Y-58380380D01*
X157630857Y-58380380D01*
X157726095Y-58428000D01*
X157773714Y-58475619D01*
X157821333Y-58570857D01*
X157821333Y-58713714D01*
X157773714Y-58808952D01*
X157726095Y-58856571D01*
X157630857Y-58904190D01*
X157249904Y-58904190D01*
X158297523Y-59380380D02*
X158488000Y-59380380D01*
X158583238Y-59332761D01*
X158630857Y-59285142D01*
X158726095Y-59142285D01*
X158773714Y-58951809D01*
X158773714Y-58570857D01*
X158726095Y-58475619D01*
X158678476Y-58428000D01*
X158583238Y-58380380D01*
X158392761Y-58380380D01*
X158297523Y-58428000D01*
X158249904Y-58475619D01*
X158202285Y-58570857D01*
X158202285Y-58808952D01*
X158249904Y-58904190D01*
X158297523Y-58951809D01*
X158392761Y-58999428D01*
X158583238Y-58999428D01*
X158678476Y-58951809D01*
X158726095Y-58904190D01*
X158773714Y-58808952D01*
%TO.C,J5*%
X171497666Y-48220380D02*
X171497666Y-48934666D01*
X171450047Y-49077523D01*
X171354809Y-49172761D01*
X171211952Y-49220380D01*
X171116714Y-49220380D01*
X172450047Y-48220380D02*
X171973857Y-48220380D01*
X171926238Y-48696571D01*
X171973857Y-48648952D01*
X172069095Y-48601333D01*
X172307190Y-48601333D01*
X172402428Y-48648952D01*
X172450047Y-48696571D01*
X172497666Y-48791809D01*
X172497666Y-49029904D01*
X172450047Y-49125142D01*
X172402428Y-49172761D01*
X172307190Y-49220380D01*
X172069095Y-49220380D01*
X171973857Y-49172761D01*
X171926238Y-49125142D01*
%TO.C,U2*%
X157192380Y-47680904D02*
X158001904Y-47680904D01*
X158097142Y-47633285D01*
X158144761Y-47585666D01*
X158192380Y-47490428D01*
X158192380Y-47299952D01*
X158144761Y-47204714D01*
X158097142Y-47157095D01*
X158001904Y-47109476D01*
X157192380Y-47109476D01*
X157287619Y-46680904D02*
X157240000Y-46633285D01*
X157192380Y-46538047D01*
X157192380Y-46299952D01*
X157240000Y-46204714D01*
X157287619Y-46157095D01*
X157382857Y-46109476D01*
X157478095Y-46109476D01*
X157620952Y-46157095D01*
X158192380Y-46728523D01*
X158192380Y-46109476D01*
%TO.C,R11*%
X161282142Y-56619380D02*
X160948809Y-56143190D01*
X160710714Y-56619380D02*
X160710714Y-55619380D01*
X161091666Y-55619380D01*
X161186904Y-55667000D01*
X161234523Y-55714619D01*
X161282142Y-55809857D01*
X161282142Y-55952714D01*
X161234523Y-56047952D01*
X161186904Y-56095571D01*
X161091666Y-56143190D01*
X160710714Y-56143190D01*
X162234523Y-56619380D02*
X161663095Y-56619380D01*
X161948809Y-56619380D02*
X161948809Y-55619380D01*
X161853571Y-55762238D01*
X161758333Y-55857476D01*
X161663095Y-55905095D01*
X163186904Y-56619380D02*
X162615476Y-56619380D01*
X162901190Y-56619380D02*
X162901190Y-55619380D01*
X162805952Y-55762238D01*
X162710714Y-55857476D01*
X162615476Y-55905095D01*
%TO.C,R10*%
X114927142Y-59126380D02*
X114593809Y-58650190D01*
X114355714Y-59126380D02*
X114355714Y-58126380D01*
X114736666Y-58126380D01*
X114831904Y-58174000D01*
X114879523Y-58221619D01*
X114927142Y-58316857D01*
X114927142Y-58459714D01*
X114879523Y-58554952D01*
X114831904Y-58602571D01*
X114736666Y-58650190D01*
X114355714Y-58650190D01*
X115879523Y-59126380D02*
X115308095Y-59126380D01*
X115593809Y-59126380D02*
X115593809Y-58126380D01*
X115498571Y-58269238D01*
X115403333Y-58364476D01*
X115308095Y-58412095D01*
X116498571Y-58126380D02*
X116593809Y-58126380D01*
X116689047Y-58174000D01*
X116736666Y-58221619D01*
X116784285Y-58316857D01*
X116831904Y-58507333D01*
X116831904Y-58745428D01*
X116784285Y-58935904D01*
X116736666Y-59031142D01*
X116689047Y-59078761D01*
X116593809Y-59126380D01*
X116498571Y-59126380D01*
X116403333Y-59078761D01*
X116355714Y-59031142D01*
X116308095Y-58935904D01*
X116260476Y-58745428D01*
X116260476Y-58507333D01*
X116308095Y-58316857D01*
X116355714Y-58221619D01*
X116403333Y-58174000D01*
X116498571Y-58126380D01*
%TO.C,R8*%
X130262333Y-45537380D02*
X129929000Y-45061190D01*
X129690904Y-45537380D02*
X129690904Y-44537380D01*
X130071857Y-44537380D01*
X130167095Y-44585000D01*
X130214714Y-44632619D01*
X130262333Y-44727857D01*
X130262333Y-44870714D01*
X130214714Y-44965952D01*
X130167095Y-45013571D01*
X130071857Y-45061190D01*
X129690904Y-45061190D01*
X130833761Y-44965952D02*
X130738523Y-44918333D01*
X130690904Y-44870714D01*
X130643285Y-44775476D01*
X130643285Y-44727857D01*
X130690904Y-44632619D01*
X130738523Y-44585000D01*
X130833761Y-44537380D01*
X131024238Y-44537380D01*
X131119476Y-44585000D01*
X131167095Y-44632619D01*
X131214714Y-44727857D01*
X131214714Y-44775476D01*
X131167095Y-44870714D01*
X131119476Y-44918333D01*
X131024238Y-44965952D01*
X130833761Y-44965952D01*
X130738523Y-45013571D01*
X130690904Y-45061190D01*
X130643285Y-45156428D01*
X130643285Y-45346904D01*
X130690904Y-45442142D01*
X130738523Y-45489761D01*
X130833761Y-45537380D01*
X131024238Y-45537380D01*
X131119476Y-45489761D01*
X131167095Y-45442142D01*
X131214714Y-45346904D01*
X131214714Y-45156428D01*
X131167095Y-45061190D01*
X131119476Y-45013571D01*
X131024238Y-44965952D01*
%TO.C,R7*%
X130533380Y-43346666D02*
X130057190Y-43680000D01*
X130533380Y-43918095D02*
X129533380Y-43918095D01*
X129533380Y-43537142D01*
X129581000Y-43441904D01*
X129628619Y-43394285D01*
X129723857Y-43346666D01*
X129866714Y-43346666D01*
X129961952Y-43394285D01*
X130009571Y-43441904D01*
X130057190Y-43537142D01*
X130057190Y-43918095D01*
X129533380Y-43013333D02*
X129533380Y-42346666D01*
X130533380Y-42775238D01*
%TO.C,R6*%
X137706380Y-62777666D02*
X137230190Y-63111000D01*
X137706380Y-63349095D02*
X136706380Y-63349095D01*
X136706380Y-62968142D01*
X136754000Y-62872904D01*
X136801619Y-62825285D01*
X136896857Y-62777666D01*
X137039714Y-62777666D01*
X137134952Y-62825285D01*
X137182571Y-62872904D01*
X137230190Y-62968142D01*
X137230190Y-63349095D01*
X136706380Y-61920523D02*
X136706380Y-62111000D01*
X136754000Y-62206238D01*
X136801619Y-62253857D01*
X136944476Y-62349095D01*
X137134952Y-62396714D01*
X137515904Y-62396714D01*
X137611142Y-62349095D01*
X137658761Y-62301476D01*
X137706380Y-62206238D01*
X137706380Y-62015761D01*
X137658761Y-61920523D01*
X137611142Y-61872904D01*
X137515904Y-61825285D01*
X137277809Y-61825285D01*
X137182571Y-61872904D01*
X137134952Y-61920523D01*
X137087333Y-62015761D01*
X137087333Y-62206238D01*
X137134952Y-62301476D01*
X137182571Y-62349095D01*
X137277809Y-62396714D01*
%TO.C,R5*%
X126182380Y-62777666D02*
X125706190Y-63111000D01*
X126182380Y-63349095D02*
X125182380Y-63349095D01*
X125182380Y-62968142D01*
X125230000Y-62872904D01*
X125277619Y-62825285D01*
X125372857Y-62777666D01*
X125515714Y-62777666D01*
X125610952Y-62825285D01*
X125658571Y-62872904D01*
X125706190Y-62968142D01*
X125706190Y-63349095D01*
X125182380Y-61872904D02*
X125182380Y-62349095D01*
X125658571Y-62396714D01*
X125610952Y-62349095D01*
X125563333Y-62253857D01*
X125563333Y-62015761D01*
X125610952Y-61920523D01*
X125658571Y-61872904D01*
X125753809Y-61825285D01*
X125991904Y-61825285D01*
X126087142Y-61872904D01*
X126134761Y-61920523D01*
X126182380Y-62015761D01*
X126182380Y-62253857D01*
X126134761Y-62349095D01*
X126087142Y-62396714D01*
%TO.C,R4*%
X128611333Y-52141380D02*
X128278000Y-51665190D01*
X128039904Y-52141380D02*
X128039904Y-51141380D01*
X128420857Y-51141380D01*
X128516095Y-51189000D01*
X128563714Y-51236619D01*
X128611333Y-51331857D01*
X128611333Y-51474714D01*
X128563714Y-51569952D01*
X128516095Y-51617571D01*
X128420857Y-51665190D01*
X128039904Y-51665190D01*
X129468476Y-51474714D02*
X129468476Y-52141380D01*
X129230380Y-51093761D02*
X128992285Y-51808047D01*
X129611333Y-51808047D01*
%TO.C,R3*%
X110721380Y-50966666D02*
X110245190Y-51300000D01*
X110721380Y-51538095D02*
X109721380Y-51538095D01*
X109721380Y-51157142D01*
X109769000Y-51061904D01*
X109816619Y-51014285D01*
X109911857Y-50966666D01*
X110054714Y-50966666D01*
X110149952Y-51014285D01*
X110197571Y-51061904D01*
X110245190Y-51157142D01*
X110245190Y-51538095D01*
X109721380Y-50633333D02*
X109721380Y-50014285D01*
X110102333Y-50347619D01*
X110102333Y-50204761D01*
X110149952Y-50109523D01*
X110197571Y-50061904D01*
X110292809Y-50014285D01*
X110530904Y-50014285D01*
X110626142Y-50061904D01*
X110673761Y-50109523D01*
X110721380Y-50204761D01*
X110721380Y-50490476D01*
X110673761Y-50585714D01*
X110626142Y-50633333D01*
%TO.C,R2*%
X109197380Y-41314666D02*
X108721190Y-41648000D01*
X109197380Y-41886095D02*
X108197380Y-41886095D01*
X108197380Y-41505142D01*
X108245000Y-41409904D01*
X108292619Y-41362285D01*
X108387857Y-41314666D01*
X108530714Y-41314666D01*
X108625952Y-41362285D01*
X108673571Y-41409904D01*
X108721190Y-41505142D01*
X108721190Y-41886095D01*
X108292619Y-40933714D02*
X108245000Y-40886095D01*
X108197380Y-40790857D01*
X108197380Y-40552761D01*
X108245000Y-40457523D01*
X108292619Y-40409904D01*
X108387857Y-40362285D01*
X108483095Y-40362285D01*
X108625952Y-40409904D01*
X109197380Y-40981333D01*
X109197380Y-40362285D01*
%TO.C,R1*%
X113371333Y-49060380D02*
X113038000Y-48584190D01*
X112799904Y-49060380D02*
X112799904Y-48060380D01*
X113180857Y-48060380D01*
X113276095Y-48108000D01*
X113323714Y-48155619D01*
X113371333Y-48250857D01*
X113371333Y-48393714D01*
X113323714Y-48488952D01*
X113276095Y-48536571D01*
X113180857Y-48584190D01*
X112799904Y-48584190D01*
X114323714Y-49060380D02*
X113752285Y-49060380D01*
X114038000Y-49060380D02*
X114038000Y-48060380D01*
X113942761Y-48203238D01*
X113847523Y-48298476D01*
X113752285Y-48346095D01*
%TO.C,Q5*%
X116998761Y-52490619D02*
X116903523Y-52443000D01*
X116808285Y-52347761D01*
X116665428Y-52204904D01*
X116570190Y-52157285D01*
X116474952Y-52157285D01*
X116522571Y-52395380D02*
X116427333Y-52347761D01*
X116332095Y-52252523D01*
X116284476Y-52062047D01*
X116284476Y-51728714D01*
X116332095Y-51538238D01*
X116427333Y-51443000D01*
X116522571Y-51395380D01*
X116713047Y-51395380D01*
X116808285Y-51443000D01*
X116903523Y-51538238D01*
X116951142Y-51728714D01*
X116951142Y-52062047D01*
X116903523Y-52252523D01*
X116808285Y-52347761D01*
X116713047Y-52395380D01*
X116522571Y-52395380D01*
X117855904Y-51395380D02*
X117379714Y-51395380D01*
X117332095Y-51871571D01*
X117379714Y-51823952D01*
X117474952Y-51776333D01*
X117713047Y-51776333D01*
X117808285Y-51823952D01*
X117855904Y-51871571D01*
X117903523Y-51966809D01*
X117903523Y-52204904D01*
X117855904Y-52300142D01*
X117808285Y-52347761D01*
X117713047Y-52395380D01*
X117474952Y-52395380D01*
X117379714Y-52347761D01*
X117332095Y-52300142D01*
%TO.C,Q4*%
X120046761Y-60745619D02*
X119951523Y-60698000D01*
X119856285Y-60602761D01*
X119713428Y-60459904D01*
X119618190Y-60412285D01*
X119522952Y-60412285D01*
X119570571Y-60650380D02*
X119475333Y-60602761D01*
X119380095Y-60507523D01*
X119332476Y-60317047D01*
X119332476Y-59983714D01*
X119380095Y-59793238D01*
X119475333Y-59698000D01*
X119570571Y-59650380D01*
X119761047Y-59650380D01*
X119856285Y-59698000D01*
X119951523Y-59793238D01*
X119999142Y-59983714D01*
X119999142Y-60317047D01*
X119951523Y-60507523D01*
X119856285Y-60602761D01*
X119761047Y-60650380D01*
X119570571Y-60650380D01*
X120856285Y-59983714D02*
X120856285Y-60650380D01*
X120618190Y-59602761D02*
X120380095Y-60317047D01*
X120999142Y-60317047D01*
%TO.C,Q3*%
X134270761Y-60745619D02*
X134175523Y-60698000D01*
X134080285Y-60602761D01*
X133937428Y-60459904D01*
X133842190Y-60412285D01*
X133746952Y-60412285D01*
X133794571Y-60650380D02*
X133699333Y-60602761D01*
X133604095Y-60507523D01*
X133556476Y-60317047D01*
X133556476Y-59983714D01*
X133604095Y-59793238D01*
X133699333Y-59698000D01*
X133794571Y-59650380D01*
X133985047Y-59650380D01*
X134080285Y-59698000D01*
X134175523Y-59793238D01*
X134223142Y-59983714D01*
X134223142Y-60317047D01*
X134175523Y-60507523D01*
X134080285Y-60602761D01*
X133985047Y-60650380D01*
X133794571Y-60650380D01*
X134556476Y-59650380D02*
X135175523Y-59650380D01*
X134842190Y-60031333D01*
X134985047Y-60031333D01*
X135080285Y-60078952D01*
X135127904Y-60126571D01*
X135175523Y-60221809D01*
X135175523Y-60459904D01*
X135127904Y-60555142D01*
X135080285Y-60602761D01*
X134985047Y-60650380D01*
X134699333Y-60650380D01*
X134604095Y-60602761D01*
X134556476Y-60555142D01*
%TO.C,Q2*%
X130689361Y-60745619D02*
X130594123Y-60698000D01*
X130498885Y-60602761D01*
X130356028Y-60459904D01*
X130260790Y-60412285D01*
X130165552Y-60412285D01*
X130213171Y-60650380D02*
X130117933Y-60602761D01*
X130022695Y-60507523D01*
X129975076Y-60317047D01*
X129975076Y-59983714D01*
X130022695Y-59793238D01*
X130117933Y-59698000D01*
X130213171Y-59650380D01*
X130403647Y-59650380D01*
X130498885Y-59698000D01*
X130594123Y-59793238D01*
X130641742Y-59983714D01*
X130641742Y-60317047D01*
X130594123Y-60507523D01*
X130498885Y-60602761D01*
X130403647Y-60650380D01*
X130213171Y-60650380D01*
X131022695Y-59745619D02*
X131070314Y-59698000D01*
X131165552Y-59650380D01*
X131403647Y-59650380D01*
X131498885Y-59698000D01*
X131546504Y-59745619D01*
X131594123Y-59840857D01*
X131594123Y-59936095D01*
X131546504Y-60078952D01*
X130975076Y-60650380D01*
X131594123Y-60650380D01*
%TO.C,Q1*%
X115982761Y-60785619D02*
X115887523Y-60738000D01*
X115792285Y-60642761D01*
X115649428Y-60499904D01*
X115554190Y-60452285D01*
X115458952Y-60452285D01*
X115506571Y-60690380D02*
X115411333Y-60642761D01*
X115316095Y-60547523D01*
X115268476Y-60357047D01*
X115268476Y-60023714D01*
X115316095Y-59833238D01*
X115411333Y-59738000D01*
X115506571Y-59690380D01*
X115697047Y-59690380D01*
X115792285Y-59738000D01*
X115887523Y-59833238D01*
X115935142Y-60023714D01*
X115935142Y-60357047D01*
X115887523Y-60547523D01*
X115792285Y-60642761D01*
X115697047Y-60690380D01*
X115506571Y-60690380D01*
X116887523Y-60690380D02*
X116316095Y-60690380D01*
X116601809Y-60690380D02*
X116601809Y-59690380D01*
X116506571Y-59833238D01*
X116411333Y-59928476D01*
X116316095Y-59976095D01*
%TO.C,D4*%
X118133904Y-59126380D02*
X118133904Y-58126380D01*
X118372000Y-58126380D01*
X118514857Y-58174000D01*
X118610095Y-58269238D01*
X118657714Y-58364476D01*
X118705333Y-58554952D01*
X118705333Y-58697809D01*
X118657714Y-58888285D01*
X118610095Y-58983523D01*
X118514857Y-59078761D01*
X118372000Y-59126380D01*
X118133904Y-59126380D01*
X119562476Y-58459714D02*
X119562476Y-59126380D01*
X119324380Y-58078761D02*
X119086285Y-58793047D01*
X119705333Y-58793047D01*
%TO.C,D3*%
X157249904Y-65509380D02*
X157249904Y-64509380D01*
X157488000Y-64509380D01*
X157630857Y-64557000D01*
X157726095Y-64652238D01*
X157773714Y-64747476D01*
X157821333Y-64937952D01*
X157821333Y-65080809D01*
X157773714Y-65271285D01*
X157726095Y-65366523D01*
X157630857Y-65461761D01*
X157488000Y-65509380D01*
X157249904Y-65509380D01*
X158154666Y-64509380D02*
X158773714Y-64509380D01*
X158440380Y-64890333D01*
X158583238Y-64890333D01*
X158678476Y-64937952D01*
X158726095Y-64985571D01*
X158773714Y-65080809D01*
X158773714Y-65318904D01*
X158726095Y-65414142D01*
X158678476Y-65461761D01*
X158583238Y-65509380D01*
X158297523Y-65509380D01*
X158202285Y-65461761D01*
X158154666Y-65414142D01*
%TO.C,C9*%
X145899142Y-44489666D02*
X145946761Y-44537285D01*
X145994380Y-44680142D01*
X145994380Y-44775380D01*
X145946761Y-44918238D01*
X145851523Y-45013476D01*
X145756285Y-45061095D01*
X145565809Y-45108714D01*
X145422952Y-45108714D01*
X145232476Y-45061095D01*
X145137238Y-45013476D01*
X145042000Y-44918238D01*
X144994380Y-44775380D01*
X144994380Y-44680142D01*
X145042000Y-44537285D01*
X145089619Y-44489666D01*
X145994380Y-44013476D02*
X145994380Y-43823000D01*
X145946761Y-43727761D01*
X145899142Y-43680142D01*
X145756285Y-43584904D01*
X145565809Y-43537285D01*
X145184857Y-43537285D01*
X145089619Y-43584904D01*
X145042000Y-43632523D01*
X144994380Y-43727761D01*
X144994380Y-43918238D01*
X145042000Y-44013476D01*
X145089619Y-44061095D01*
X145184857Y-44108714D01*
X145422952Y-44108714D01*
X145518190Y-44061095D01*
X145565809Y-44013476D01*
X145613428Y-43918238D01*
X145613428Y-43727761D01*
X145565809Y-43632523D01*
X145518190Y-43584904D01*
X145422952Y-43537285D01*
%TO.C,C4*%
X148533142Y-55030666D02*
X148580761Y-55078285D01*
X148628380Y-55221142D01*
X148628380Y-55316380D01*
X148580761Y-55459238D01*
X148485523Y-55554476D01*
X148390285Y-55602095D01*
X148199809Y-55649714D01*
X148056952Y-55649714D01*
X147866476Y-55602095D01*
X147771238Y-55554476D01*
X147676000Y-55459238D01*
X147628380Y-55316380D01*
X147628380Y-55221142D01*
X147676000Y-55078285D01*
X147723619Y-55030666D01*
X147961714Y-54173523D02*
X148628380Y-54173523D01*
X147580761Y-54411619D02*
X148295047Y-54649714D01*
X148295047Y-54030666D01*
%TO.C,C5*%
X162536142Y-47283666D02*
X162583761Y-47331285D01*
X162631380Y-47474142D01*
X162631380Y-47569380D01*
X162583761Y-47712238D01*
X162488523Y-47807476D01*
X162393285Y-47855095D01*
X162202809Y-47902714D01*
X162059952Y-47902714D01*
X161869476Y-47855095D01*
X161774238Y-47807476D01*
X161679000Y-47712238D01*
X161631380Y-47569380D01*
X161631380Y-47474142D01*
X161679000Y-47331285D01*
X161726619Y-47283666D01*
X161631380Y-46378904D02*
X161631380Y-46855095D01*
X162107571Y-46902714D01*
X162059952Y-46855095D01*
X162012333Y-46759857D01*
X162012333Y-46521761D01*
X162059952Y-46426523D01*
X162107571Y-46378904D01*
X162202809Y-46331285D01*
X162440904Y-46331285D01*
X162536142Y-46378904D01*
X162583761Y-46426523D01*
X162631380Y-46521761D01*
X162631380Y-46759857D01*
X162583761Y-46855095D01*
X162536142Y-46902714D01*
%TO.C,C6*%
X161758333Y-53697142D02*
X161710714Y-53744761D01*
X161567857Y-53792380D01*
X161472619Y-53792380D01*
X161329761Y-53744761D01*
X161234523Y-53649523D01*
X161186904Y-53554285D01*
X161139285Y-53363809D01*
X161139285Y-53220952D01*
X161186904Y-53030476D01*
X161234523Y-52935238D01*
X161329761Y-52840000D01*
X161472619Y-52792380D01*
X161567857Y-52792380D01*
X161710714Y-52840000D01*
X161758333Y-52887619D01*
X162615476Y-52792380D02*
X162425000Y-52792380D01*
X162329761Y-52840000D01*
X162282142Y-52887619D01*
X162186904Y-53030476D01*
X162139285Y-53220952D01*
X162139285Y-53601904D01*
X162186904Y-53697142D01*
X162234523Y-53744761D01*
X162329761Y-53792380D01*
X162520238Y-53792380D01*
X162615476Y-53744761D01*
X162663095Y-53697142D01*
X162710714Y-53601904D01*
X162710714Y-53363809D01*
X162663095Y-53268571D01*
X162615476Y-53220952D01*
X162520238Y-53173333D01*
X162329761Y-53173333D01*
X162234523Y-53220952D01*
X162186904Y-53268571D01*
X162139285Y-53363809D01*
%TO.C,C8*%
X145137142Y-55284666D02*
X145184761Y-55332285D01*
X145232380Y-55475142D01*
X145232380Y-55570380D01*
X145184761Y-55713238D01*
X145089523Y-55808476D01*
X144994285Y-55856095D01*
X144803809Y-55903714D01*
X144660952Y-55903714D01*
X144470476Y-55856095D01*
X144375238Y-55808476D01*
X144280000Y-55713238D01*
X144232380Y-55570380D01*
X144232380Y-55475142D01*
X144280000Y-55332285D01*
X144327619Y-55284666D01*
X144660952Y-54713238D02*
X144613333Y-54808476D01*
X144565714Y-54856095D01*
X144470476Y-54903714D01*
X144422857Y-54903714D01*
X144327619Y-54856095D01*
X144280000Y-54808476D01*
X144232380Y-54713238D01*
X144232380Y-54522761D01*
X144280000Y-54427523D01*
X144327619Y-54379904D01*
X144422857Y-54332285D01*
X144470476Y-54332285D01*
X144565714Y-54379904D01*
X144613333Y-54427523D01*
X144660952Y-54522761D01*
X144660952Y-54713238D01*
X144708571Y-54808476D01*
X144756190Y-54856095D01*
X144851428Y-54903714D01*
X145041904Y-54903714D01*
X145137142Y-54856095D01*
X145184761Y-54808476D01*
X145232380Y-54713238D01*
X145232380Y-54522761D01*
X145184761Y-54427523D01*
X145137142Y-54379904D01*
X145041904Y-54332285D01*
X144851428Y-54332285D01*
X144756190Y-54379904D01*
X144708571Y-54427523D01*
X144660952Y-54522761D01*
%TO.C,C7*%
X165965142Y-46521666D02*
X166012761Y-46569285D01*
X166060380Y-46712142D01*
X166060380Y-46807380D01*
X166012761Y-46950238D01*
X165917523Y-47045476D01*
X165822285Y-47093095D01*
X165631809Y-47140714D01*
X165488952Y-47140714D01*
X165298476Y-47093095D01*
X165203238Y-47045476D01*
X165108000Y-46950238D01*
X165060380Y-46807380D01*
X165060380Y-46712142D01*
X165108000Y-46569285D01*
X165155619Y-46521666D01*
X165060380Y-46188333D02*
X165060380Y-45521666D01*
X166060380Y-45950238D01*
%TO.C,C3*%
X123277333Y-44299142D02*
X123229714Y-44346761D01*
X123086857Y-44394380D01*
X122991619Y-44394380D01*
X122848761Y-44346761D01*
X122753523Y-44251523D01*
X122705904Y-44156285D01*
X122658285Y-43965809D01*
X122658285Y-43822952D01*
X122705904Y-43632476D01*
X122753523Y-43537238D01*
X122848761Y-43442000D01*
X122991619Y-43394380D01*
X123086857Y-43394380D01*
X123229714Y-43442000D01*
X123277333Y-43489619D01*
X123610666Y-43394380D02*
X124229714Y-43394380D01*
X123896380Y-43775333D01*
X124039238Y-43775333D01*
X124134476Y-43822952D01*
X124182095Y-43870571D01*
X124229714Y-43965809D01*
X124229714Y-44203904D01*
X124182095Y-44299142D01*
X124134476Y-44346761D01*
X124039238Y-44394380D01*
X123753523Y-44394380D01*
X123658285Y-44346761D01*
X123610666Y-44299142D01*
%TO.C,C1*%
X117943333Y-44299142D02*
X117895714Y-44346761D01*
X117752857Y-44394380D01*
X117657619Y-44394380D01*
X117514761Y-44346761D01*
X117419523Y-44251523D01*
X117371904Y-44156285D01*
X117324285Y-43965809D01*
X117324285Y-43822952D01*
X117371904Y-43632476D01*
X117419523Y-43537238D01*
X117514761Y-43442000D01*
X117657619Y-43394380D01*
X117752857Y-43394380D01*
X117895714Y-43442000D01*
X117943333Y-43489619D01*
X118895714Y-44394380D02*
X118324285Y-44394380D01*
X118610000Y-44394380D02*
X118610000Y-43394380D01*
X118514761Y-43537238D01*
X118419523Y-43632476D01*
X118324285Y-43680095D01*
%TD*%
%LPC*%
%TO.C,R13*%
G36*
G01*
X172676000Y-63606000D02*
X172676000Y-64156000D01*
G75*
G02*
X172476000Y-64356000I-200000J0D01*
G01*
X172076000Y-64356000D01*
G75*
G02*
X171876000Y-64156000I0J200000D01*
G01*
X171876000Y-63606000D01*
G75*
G02*
X172076000Y-63406000I200000J0D01*
G01*
X172476000Y-63406000D01*
G75*
G02*
X172676000Y-63606000I0J-200000D01*
G01*
G37*
G36*
G01*
X174326000Y-63606000D02*
X174326000Y-64156000D01*
G75*
G02*
X174126000Y-64356000I-200000J0D01*
G01*
X173726000Y-64356000D01*
G75*
G02*
X173526000Y-64156000I0J200000D01*
G01*
X173526000Y-63606000D01*
G75*
G02*
X173726000Y-63406000I200000J0D01*
G01*
X174126000Y-63406000D01*
G75*
G02*
X174326000Y-63606000I0J-200000D01*
G01*
G37*
%TD*%
%TO.C,C10*%
G36*
G01*
X148586000Y-58603000D02*
X148086000Y-58603000D01*
G75*
G02*
X147861000Y-58378000I0J225000D01*
G01*
X147861000Y-57928000D01*
G75*
G02*
X148086000Y-57703000I225000J0D01*
G01*
X148586000Y-57703000D01*
G75*
G02*
X148811000Y-57928000I0J-225000D01*
G01*
X148811000Y-58378000D01*
G75*
G02*
X148586000Y-58603000I-225000J0D01*
G01*
G37*
G36*
G01*
X148586000Y-60153000D02*
X148086000Y-60153000D01*
G75*
G02*
X147861000Y-59928000I0J225000D01*
G01*
X147861000Y-59478000D01*
G75*
G02*
X148086000Y-59253000I225000J0D01*
G01*
X148586000Y-59253000D01*
G75*
G02*
X148811000Y-59478000I0J-225000D01*
G01*
X148811000Y-59928000D01*
G75*
G02*
X148586000Y-60153000I-225000J0D01*
G01*
G37*
%TD*%
%TO.C,R14*%
G36*
G01*
X164001000Y-49678000D02*
X164001000Y-49128000D01*
G75*
G02*
X164201000Y-48928000I200000J0D01*
G01*
X164601000Y-48928000D01*
G75*
G02*
X164801000Y-49128000I0J-200000D01*
G01*
X164801000Y-49678000D01*
G75*
G02*
X164601000Y-49878000I-200000J0D01*
G01*
X164201000Y-49878000D01*
G75*
G02*
X164001000Y-49678000I0J200000D01*
G01*
G37*
G36*
G01*
X162351000Y-49678000D02*
X162351000Y-49128000D01*
G75*
G02*
X162551000Y-48928000I200000J0D01*
G01*
X162951000Y-48928000D01*
G75*
G02*
X163151000Y-49128000I0J-200000D01*
G01*
X163151000Y-49678000D01*
G75*
G02*
X162951000Y-49878000I-200000J0D01*
G01*
X162551000Y-49878000D01*
G75*
G02*
X162351000Y-49678000I0J200000D01*
G01*
G37*
%TD*%
%TO.C,R12*%
G36*
G01*
X163089000Y-60154000D02*
X162539000Y-60154000D01*
G75*
G02*
X162339000Y-59954000I0J200000D01*
G01*
X162339000Y-59554000D01*
G75*
G02*
X162539000Y-59354000I200000J0D01*
G01*
X163089000Y-59354000D01*
G75*
G02*
X163289000Y-59554000I0J-200000D01*
G01*
X163289000Y-59954000D01*
G75*
G02*
X163089000Y-60154000I-200000J0D01*
G01*
G37*
G36*
G01*
X163089000Y-61804000D02*
X162539000Y-61804000D01*
G75*
G02*
X162339000Y-61604000I0J200000D01*
G01*
X162339000Y-61204000D01*
G75*
G02*
X162539000Y-61004000I200000J0D01*
G01*
X163089000Y-61004000D01*
G75*
G02*
X163289000Y-61204000I0J-200000D01*
G01*
X163289000Y-61604000D01*
G75*
G02*
X163089000Y-61804000I-200000J0D01*
G01*
G37*
%TD*%
D15*
%TO.C,J1*%
X102559000Y-49810000D03*
D16*
X102559000Y-47110000D03*
D17*
X102559000Y-51635000D03*
X102559000Y-44885000D03*
D18*
X105134000Y-50747500D03*
X105134000Y-45772500D03*
D19*
X105219000Y-49560000D03*
X105219000Y-48910000D03*
X105219000Y-48260000D03*
X105219000Y-47610000D03*
X105219000Y-46960000D03*
%TD*%
D20*
%TO.C,D2*%
X132334000Y-48514000D03*
D21*
X132334000Y-50352300D03*
%TD*%
D22*
%TO.C,D1*%
X108916800Y-55626000D03*
D23*
X110755100Y-55626000D03*
%TD*%
D24*
%TO.C,U1*%
X119659000Y-47484000D03*
X119659000Y-52084000D03*
X119659000Y-49784000D03*
D25*
X125959000Y-49784000D03*
%TD*%
D26*
%TO.C,SW1*%
X169088001Y-65406001D03*
X165937999Y-65406001D03*
X169088001Y-62355999D03*
X165937999Y-62355999D03*
D27*
X169588000Y-63881000D03*
X165438000Y-63881000D03*
%TD*%
D28*
%TO.C,FID5*%
X156718000Y-51943000D03*
%TD*%
%TO.C,FID4*%
X146939000Y-42164000D03*
%TD*%
%TO.C,FID3*%
X109347000Y-70739000D03*
%TD*%
%TO.C,FID2*%
X169799000Y-70739000D03*
%TD*%
%TO.C,FID1*%
X169799000Y-35560000D03*
%TD*%
D29*
%TO.C,J4*%
X164338000Y-35560000D03*
X161798000Y-35560000D03*
X159258000Y-35560000D03*
X156718000Y-35560000D03*
X154178000Y-35560000D03*
X151638000Y-35560000D03*
X149098000Y-35560000D03*
X146558000Y-35560000D03*
X144018000Y-35560000D03*
X141478000Y-35560000D03*
X138938000Y-35560000D03*
D30*
X136398000Y-35560000D03*
%TD*%
D29*
%TO.C,J3*%
X166370000Y-70739000D03*
X163830000Y-70739000D03*
X161290000Y-70739000D03*
X158750000Y-70739000D03*
X156210000Y-70739000D03*
X153670000Y-70739000D03*
X151130000Y-70739000D03*
X148590000Y-70739000D03*
X146050000Y-70739000D03*
X143510000Y-70739000D03*
X140970000Y-70739000D03*
X138430000Y-70739000D03*
X135890000Y-70739000D03*
X133350000Y-70739000D03*
X130810000Y-70739000D03*
X128270000Y-70739000D03*
X125730000Y-70739000D03*
X123190000Y-70739000D03*
X120650000Y-70739000D03*
D30*
X118110000Y-70739000D03*
%TD*%
%TO.C,C2*%
G36*
G01*
X125861000Y-44648000D02*
X126361000Y-44648000D01*
G75*
G02*
X126586000Y-44873000I0J-225000D01*
G01*
X126586000Y-45323000D01*
G75*
G02*
X126361000Y-45548000I-225000J0D01*
G01*
X125861000Y-45548000D01*
G75*
G02*
X125636000Y-45323000I0J225000D01*
G01*
X125636000Y-44873000D01*
G75*
G02*
X125861000Y-44648000I225000J0D01*
G01*
G37*
G36*
G01*
X125861000Y-43098000D02*
X126361000Y-43098000D01*
G75*
G02*
X126586000Y-43323000I0J-225000D01*
G01*
X126586000Y-43773000D01*
G75*
G02*
X126361000Y-43998000I-225000J0D01*
G01*
X125861000Y-43998000D01*
G75*
G02*
X125636000Y-43773000I0J225000D01*
G01*
X125636000Y-43323000D01*
G75*
G02*
X125861000Y-43098000I225000J0D01*
G01*
G37*
%TD*%
D29*
%TO.C,J2*%
X123825000Y-35560000D03*
X121285000Y-35560000D03*
X118745000Y-35560000D03*
X116205000Y-35560000D03*
D30*
X113665000Y-35560000D03*
%TD*%
%TO.C,R9*%
G36*
G01*
X157563000Y-60050000D02*
X157563000Y-60600000D01*
G75*
G02*
X157363000Y-60800000I-200000J0D01*
G01*
X156963000Y-60800000D01*
G75*
G02*
X156763000Y-60600000I0J200000D01*
G01*
X156763000Y-60050000D01*
G75*
G02*
X156963000Y-59850000I200000J0D01*
G01*
X157363000Y-59850000D01*
G75*
G02*
X157563000Y-60050000I0J-200000D01*
G01*
G37*
G36*
G01*
X159213000Y-60050000D02*
X159213000Y-60600000D01*
G75*
G02*
X159013000Y-60800000I-200000J0D01*
G01*
X158613000Y-60800000D01*
G75*
G02*
X158413000Y-60600000I0J200000D01*
G01*
X158413000Y-60050000D01*
G75*
G02*
X158613000Y-59850000I200000J0D01*
G01*
X159013000Y-59850000D01*
G75*
G02*
X159213000Y-60050000I0J-200000D01*
G01*
G37*
%TD*%
D31*
%TO.C,H4*%
X103632000Y-35560000D03*
%TD*%
%TO.C,H3*%
X103632000Y-70485000D03*
%TD*%
%TO.C,H2*%
X174879000Y-70485000D03*
%TD*%
%TO.C,H1*%
X174879000Y-35687000D03*
%TD*%
D29*
%TO.C,J5*%
X173736000Y-57785000D03*
X171196000Y-57785000D03*
X173736000Y-55245000D03*
X171196000Y-55245000D03*
X173736000Y-52705000D03*
D30*
X171196000Y-52705000D03*
%TD*%
%TO.C,U2*%
G36*
G01*
X154434600Y-42139000D02*
X154675400Y-42139000D01*
G75*
G02*
X154695000Y-42158600I0J-19600D01*
G01*
X154695000Y-43589400D01*
G75*
G02*
X154675400Y-43609000I-19600J0D01*
G01*
X154434600Y-43609000D01*
G75*
G02*
X154415000Y-43589400I0J19600D01*
G01*
X154415000Y-42158600D01*
G75*
G02*
X154434600Y-42139000I19600J0D01*
G01*
G37*
G36*
G01*
X153934600Y-42139000D02*
X154175400Y-42139000D01*
G75*
G02*
X154195000Y-42158600I0J-19600D01*
G01*
X154195000Y-43589400D01*
G75*
G02*
X154175400Y-43609000I-19600J0D01*
G01*
X153934600Y-43609000D01*
G75*
G02*
X153915000Y-43589400I0J19600D01*
G01*
X153915000Y-42158600D01*
G75*
G02*
X153934600Y-42139000I19600J0D01*
G01*
G37*
G36*
G01*
X153434600Y-42139000D02*
X153675400Y-42139000D01*
G75*
G02*
X153695000Y-42158600I0J-19600D01*
G01*
X153695000Y-43589400D01*
G75*
G02*
X153675400Y-43609000I-19600J0D01*
G01*
X153434600Y-43609000D01*
G75*
G02*
X153415000Y-43589400I0J19600D01*
G01*
X153415000Y-42158600D01*
G75*
G02*
X153434600Y-42139000I19600J0D01*
G01*
G37*
G36*
G01*
X152934600Y-42139000D02*
X153175400Y-42139000D01*
G75*
G02*
X153195000Y-42158600I0J-19600D01*
G01*
X153195000Y-43589400D01*
G75*
G02*
X153175400Y-43609000I-19600J0D01*
G01*
X152934600Y-43609000D01*
G75*
G02*
X152915000Y-43589400I0J19600D01*
G01*
X152915000Y-42158600D01*
G75*
G02*
X152934600Y-42139000I19600J0D01*
G01*
G37*
G36*
G01*
X152434600Y-42139000D02*
X152675400Y-42139000D01*
G75*
G02*
X152695000Y-42158600I0J-19600D01*
G01*
X152695000Y-43589400D01*
G75*
G02*
X152675400Y-43609000I-19600J0D01*
G01*
X152434600Y-43609000D01*
G75*
G02*
X152415000Y-43589400I0J19600D01*
G01*
X152415000Y-42158600D01*
G75*
G02*
X152434600Y-42139000I19600J0D01*
G01*
G37*
G36*
G01*
X151934600Y-42139000D02*
X152175400Y-42139000D01*
G75*
G02*
X152195000Y-42158600I0J-19600D01*
G01*
X152195000Y-43589400D01*
G75*
G02*
X152175400Y-43609000I-19600J0D01*
G01*
X151934600Y-43609000D01*
G75*
G02*
X151915000Y-43589400I0J19600D01*
G01*
X151915000Y-42158600D01*
G75*
G02*
X151934600Y-42139000I19600J0D01*
G01*
G37*
G36*
G01*
X151434600Y-42139000D02*
X151675400Y-42139000D01*
G75*
G02*
X151695000Y-42158600I0J-19600D01*
G01*
X151695000Y-43589400D01*
G75*
G02*
X151675400Y-43609000I-19600J0D01*
G01*
X151434600Y-43609000D01*
G75*
G02*
X151415000Y-43589400I0J19600D01*
G01*
X151415000Y-42158600D01*
G75*
G02*
X151434600Y-42139000I19600J0D01*
G01*
G37*
G36*
G01*
X150934600Y-42139000D02*
X151175400Y-42139000D01*
G75*
G02*
X151195000Y-42158600I0J-19600D01*
G01*
X151195000Y-43589400D01*
G75*
G02*
X151175400Y-43609000I-19600J0D01*
G01*
X150934600Y-43609000D01*
G75*
G02*
X150915000Y-43589400I0J19600D01*
G01*
X150915000Y-42158600D01*
G75*
G02*
X150934600Y-42139000I19600J0D01*
G01*
G37*
G36*
G01*
X150434600Y-42139000D02*
X150675400Y-42139000D01*
G75*
G02*
X150695000Y-42158600I0J-19600D01*
G01*
X150695000Y-43589400D01*
G75*
G02*
X150675400Y-43609000I-19600J0D01*
G01*
X150434600Y-43609000D01*
G75*
G02*
X150415000Y-43589400I0J19600D01*
G01*
X150415000Y-42158600D01*
G75*
G02*
X150434600Y-42139000I19600J0D01*
G01*
G37*
G36*
G01*
X149934600Y-42139000D02*
X150175400Y-42139000D01*
G75*
G02*
X150195000Y-42158600I0J-19600D01*
G01*
X150195000Y-43589400D01*
G75*
G02*
X150175400Y-43609000I-19600J0D01*
G01*
X149934600Y-43609000D01*
G75*
G02*
X149915000Y-43589400I0J19600D01*
G01*
X149915000Y-42158600D01*
G75*
G02*
X149934600Y-42139000I19600J0D01*
G01*
G37*
G36*
G01*
X149434600Y-42139000D02*
X149675400Y-42139000D01*
G75*
G02*
X149695000Y-42158600I0J-19600D01*
G01*
X149695000Y-43589400D01*
G75*
G02*
X149675400Y-43609000I-19600J0D01*
G01*
X149434600Y-43609000D01*
G75*
G02*
X149415000Y-43589400I0J19600D01*
G01*
X149415000Y-42158600D01*
G75*
G02*
X149434600Y-42139000I19600J0D01*
G01*
G37*
G36*
G01*
X148934600Y-42139000D02*
X149175400Y-42139000D01*
G75*
G02*
X149195000Y-42158600I0J-19600D01*
G01*
X149195000Y-43589400D01*
G75*
G02*
X149175400Y-43609000I-19600J0D01*
G01*
X148934600Y-43609000D01*
G75*
G02*
X148915000Y-43589400I0J19600D01*
G01*
X148915000Y-42158600D01*
G75*
G02*
X148934600Y-42139000I19600J0D01*
G01*
G37*
G36*
G01*
X146900000Y-44414400D02*
X146900000Y-44173600D01*
G75*
G02*
X146919600Y-44154000I19600J0D01*
G01*
X148350400Y-44154000D01*
G75*
G02*
X148370000Y-44173600I0J-19600D01*
G01*
X148370000Y-44414400D01*
G75*
G02*
X148350400Y-44434000I-19600J0D01*
G01*
X146919600Y-44434000D01*
G75*
G02*
X146900000Y-44414400I0J19600D01*
G01*
G37*
G36*
G01*
X146900000Y-44914400D02*
X146900000Y-44673600D01*
G75*
G02*
X146919600Y-44654000I19600J0D01*
G01*
X148350400Y-44654000D01*
G75*
G02*
X148370000Y-44673600I0J-19600D01*
G01*
X148370000Y-44914400D01*
G75*
G02*
X148350400Y-44934000I-19600J0D01*
G01*
X146919600Y-44934000D01*
G75*
G02*
X146900000Y-44914400I0J19600D01*
G01*
G37*
G36*
G01*
X146900000Y-45414400D02*
X146900000Y-45173600D01*
G75*
G02*
X146919600Y-45154000I19600J0D01*
G01*
X148350400Y-45154000D01*
G75*
G02*
X148370000Y-45173600I0J-19600D01*
G01*
X148370000Y-45414400D01*
G75*
G02*
X148350400Y-45434000I-19600J0D01*
G01*
X146919600Y-45434000D01*
G75*
G02*
X146900000Y-45414400I0J19600D01*
G01*
G37*
G36*
G01*
X146900000Y-45914400D02*
X146900000Y-45673600D01*
G75*
G02*
X146919600Y-45654000I19600J0D01*
G01*
X148350400Y-45654000D01*
G75*
G02*
X148370000Y-45673600I0J-19600D01*
G01*
X148370000Y-45914400D01*
G75*
G02*
X148350400Y-45934000I-19600J0D01*
G01*
X146919600Y-45934000D01*
G75*
G02*
X146900000Y-45914400I0J19600D01*
G01*
G37*
G36*
G01*
X146900000Y-46414400D02*
X146900000Y-46173600D01*
G75*
G02*
X146919600Y-46154000I19600J0D01*
G01*
X148350400Y-46154000D01*
G75*
G02*
X148370000Y-46173600I0J-19600D01*
G01*
X148370000Y-46414400D01*
G75*
G02*
X148350400Y-46434000I-19600J0D01*
G01*
X146919600Y-46434000D01*
G75*
G02*
X146900000Y-46414400I0J19600D01*
G01*
G37*
G36*
G01*
X146900000Y-46914400D02*
X146900000Y-46673600D01*
G75*
G02*
X146919600Y-46654000I19600J0D01*
G01*
X148350400Y-46654000D01*
G75*
G02*
X148370000Y-46673600I0J-19600D01*
G01*
X148370000Y-46914400D01*
G75*
G02*
X148350400Y-46934000I-19600J0D01*
G01*
X146919600Y-46934000D01*
G75*
G02*
X146900000Y-46914400I0J19600D01*
G01*
G37*
G36*
G01*
X146900000Y-47414400D02*
X146900000Y-47173600D01*
G75*
G02*
X146919600Y-47154000I19600J0D01*
G01*
X148350400Y-47154000D01*
G75*
G02*
X148370000Y-47173600I0J-19600D01*
G01*
X148370000Y-47414400D01*
G75*
G02*
X148350400Y-47434000I-19600J0D01*
G01*
X146919600Y-47434000D01*
G75*
G02*
X146900000Y-47414400I0J19600D01*
G01*
G37*
G36*
G01*
X146900000Y-47914400D02*
X146900000Y-47673600D01*
G75*
G02*
X146919600Y-47654000I19600J0D01*
G01*
X148350400Y-47654000D01*
G75*
G02*
X148370000Y-47673600I0J-19600D01*
G01*
X148370000Y-47914400D01*
G75*
G02*
X148350400Y-47934000I-19600J0D01*
G01*
X146919600Y-47934000D01*
G75*
G02*
X146900000Y-47914400I0J19600D01*
G01*
G37*
G36*
G01*
X146900000Y-48414400D02*
X146900000Y-48173600D01*
G75*
G02*
X146919600Y-48154000I19600J0D01*
G01*
X148350400Y-48154000D01*
G75*
G02*
X148370000Y-48173600I0J-19600D01*
G01*
X148370000Y-48414400D01*
G75*
G02*
X148350400Y-48434000I-19600J0D01*
G01*
X146919600Y-48434000D01*
G75*
G02*
X146900000Y-48414400I0J19600D01*
G01*
G37*
G36*
G01*
X146900000Y-48914400D02*
X146900000Y-48673600D01*
G75*
G02*
X146919600Y-48654000I19600J0D01*
G01*
X148350400Y-48654000D01*
G75*
G02*
X148370000Y-48673600I0J-19600D01*
G01*
X148370000Y-48914400D01*
G75*
G02*
X148350400Y-48934000I-19600J0D01*
G01*
X146919600Y-48934000D01*
G75*
G02*
X146900000Y-48914400I0J19600D01*
G01*
G37*
G36*
G01*
X146900000Y-49414400D02*
X146900000Y-49173600D01*
G75*
G02*
X146919600Y-49154000I19600J0D01*
G01*
X148350400Y-49154000D01*
G75*
G02*
X148370000Y-49173600I0J-19600D01*
G01*
X148370000Y-49414400D01*
G75*
G02*
X148350400Y-49434000I-19600J0D01*
G01*
X146919600Y-49434000D01*
G75*
G02*
X146900000Y-49414400I0J19600D01*
G01*
G37*
G36*
G01*
X146900000Y-49914400D02*
X146900000Y-49673600D01*
G75*
G02*
X146919600Y-49654000I19600J0D01*
G01*
X148350400Y-49654000D01*
G75*
G02*
X148370000Y-49673600I0J-19600D01*
G01*
X148370000Y-49914400D01*
G75*
G02*
X148350400Y-49934000I-19600J0D01*
G01*
X146919600Y-49934000D01*
G75*
G02*
X146900000Y-49914400I0J19600D01*
G01*
G37*
G36*
G01*
X149175400Y-51949000D02*
X148934600Y-51949000D01*
G75*
G02*
X148915000Y-51929400I0J19600D01*
G01*
X148915000Y-50498600D01*
G75*
G02*
X148934600Y-50479000I19600J0D01*
G01*
X149175400Y-50479000D01*
G75*
G02*
X149195000Y-50498600I0J-19600D01*
G01*
X149195000Y-51929400D01*
G75*
G02*
X149175400Y-51949000I-19600J0D01*
G01*
G37*
G36*
G01*
X149675400Y-51949000D02*
X149434600Y-51949000D01*
G75*
G02*
X149415000Y-51929400I0J19600D01*
G01*
X149415000Y-50498600D01*
G75*
G02*
X149434600Y-50479000I19600J0D01*
G01*
X149675400Y-50479000D01*
G75*
G02*
X149695000Y-50498600I0J-19600D01*
G01*
X149695000Y-51929400D01*
G75*
G02*
X149675400Y-51949000I-19600J0D01*
G01*
G37*
G36*
G01*
X150175400Y-51949000D02*
X149934600Y-51949000D01*
G75*
G02*
X149915000Y-51929400I0J19600D01*
G01*
X149915000Y-50498600D01*
G75*
G02*
X149934600Y-50479000I19600J0D01*
G01*
X150175400Y-50479000D01*
G75*
G02*
X150195000Y-50498600I0J-19600D01*
G01*
X150195000Y-51929400D01*
G75*
G02*
X150175400Y-51949000I-19600J0D01*
G01*
G37*
G36*
G01*
X150675400Y-51949000D02*
X150434600Y-51949000D01*
G75*
G02*
X150415000Y-51929400I0J19600D01*
G01*
X150415000Y-50498600D01*
G75*
G02*
X150434600Y-50479000I19600J0D01*
G01*
X150675400Y-50479000D01*
G75*
G02*
X150695000Y-50498600I0J-19600D01*
G01*
X150695000Y-51929400D01*
G75*
G02*
X150675400Y-51949000I-19600J0D01*
G01*
G37*
G36*
G01*
X151175400Y-51949000D02*
X150934600Y-51949000D01*
G75*
G02*
X150915000Y-51929400I0J19600D01*
G01*
X150915000Y-50498600D01*
G75*
G02*
X150934600Y-50479000I19600J0D01*
G01*
X151175400Y-50479000D01*
G75*
G02*
X151195000Y-50498600I0J-19600D01*
G01*
X151195000Y-51929400D01*
G75*
G02*
X151175400Y-51949000I-19600J0D01*
G01*
G37*
G36*
G01*
X151675400Y-51949000D02*
X151434600Y-51949000D01*
G75*
G02*
X151415000Y-51929400I0J19600D01*
G01*
X151415000Y-50498600D01*
G75*
G02*
X151434600Y-50479000I19600J0D01*
G01*
X151675400Y-50479000D01*
G75*
G02*
X151695000Y-50498600I0J-19600D01*
G01*
X151695000Y-51929400D01*
G75*
G02*
X151675400Y-51949000I-19600J0D01*
G01*
G37*
G36*
G01*
X152175400Y-51949000D02*
X151934600Y-51949000D01*
G75*
G02*
X151915000Y-51929400I0J19600D01*
G01*
X151915000Y-50498600D01*
G75*
G02*
X151934600Y-50479000I19600J0D01*
G01*
X152175400Y-50479000D01*
G75*
G02*
X152195000Y-50498600I0J-19600D01*
G01*
X152195000Y-51929400D01*
G75*
G02*
X152175400Y-51949000I-19600J0D01*
G01*
G37*
G36*
G01*
X152675400Y-51949000D02*
X152434600Y-51949000D01*
G75*
G02*
X152415000Y-51929400I0J19600D01*
G01*
X152415000Y-50498600D01*
G75*
G02*
X152434600Y-50479000I19600J0D01*
G01*
X152675400Y-50479000D01*
G75*
G02*
X152695000Y-50498600I0J-19600D01*
G01*
X152695000Y-51929400D01*
G75*
G02*
X152675400Y-51949000I-19600J0D01*
G01*
G37*
G36*
G01*
X153175400Y-51949000D02*
X152934600Y-51949000D01*
G75*
G02*
X152915000Y-51929400I0J19600D01*
G01*
X152915000Y-50498600D01*
G75*
G02*
X152934600Y-50479000I19600J0D01*
G01*
X153175400Y-50479000D01*
G75*
G02*
X153195000Y-50498600I0J-19600D01*
G01*
X153195000Y-51929400D01*
G75*
G02*
X153175400Y-51949000I-19600J0D01*
G01*
G37*
G36*
G01*
X153675400Y-51949000D02*
X153434600Y-51949000D01*
G75*
G02*
X153415000Y-51929400I0J19600D01*
G01*
X153415000Y-50498600D01*
G75*
G02*
X153434600Y-50479000I19600J0D01*
G01*
X153675400Y-50479000D01*
G75*
G02*
X153695000Y-50498600I0J-19600D01*
G01*
X153695000Y-51929400D01*
G75*
G02*
X153675400Y-51949000I-19600J0D01*
G01*
G37*
G36*
G01*
X154175400Y-51949000D02*
X153934600Y-51949000D01*
G75*
G02*
X153915000Y-51929400I0J19600D01*
G01*
X153915000Y-50498600D01*
G75*
G02*
X153934600Y-50479000I19600J0D01*
G01*
X154175400Y-50479000D01*
G75*
G02*
X154195000Y-50498600I0J-19600D01*
G01*
X154195000Y-51929400D01*
G75*
G02*
X154175400Y-51949000I-19600J0D01*
G01*
G37*
G36*
G01*
X154675400Y-51949000D02*
X154434600Y-51949000D01*
G75*
G02*
X154415000Y-51929400I0J19600D01*
G01*
X154415000Y-50498600D01*
G75*
G02*
X154434600Y-50479000I19600J0D01*
G01*
X154675400Y-50479000D01*
G75*
G02*
X154695000Y-50498600I0J-19600D01*
G01*
X154695000Y-51929400D01*
G75*
G02*
X154675400Y-51949000I-19600J0D01*
G01*
G37*
G36*
G01*
X156710000Y-49673600D02*
X156710000Y-49914400D01*
G75*
G02*
X156690400Y-49934000I-19600J0D01*
G01*
X155259600Y-49934000D01*
G75*
G02*
X155240000Y-49914400I0J19600D01*
G01*
X155240000Y-49673600D01*
G75*
G02*
X155259600Y-49654000I19600J0D01*
G01*
X156690400Y-49654000D01*
G75*
G02*
X156710000Y-49673600I0J-19600D01*
G01*
G37*
G36*
G01*
X156710000Y-49173600D02*
X156710000Y-49414400D01*
G75*
G02*
X156690400Y-49434000I-19600J0D01*
G01*
X155259600Y-49434000D01*
G75*
G02*
X155240000Y-49414400I0J19600D01*
G01*
X155240000Y-49173600D01*
G75*
G02*
X155259600Y-49154000I19600J0D01*
G01*
X156690400Y-49154000D01*
G75*
G02*
X156710000Y-49173600I0J-19600D01*
G01*
G37*
G36*
G01*
X156710000Y-48673600D02*
X156710000Y-48914400D01*
G75*
G02*
X156690400Y-48934000I-19600J0D01*
G01*
X155259600Y-48934000D01*
G75*
G02*
X155240000Y-48914400I0J19600D01*
G01*
X155240000Y-48673600D01*
G75*
G02*
X155259600Y-48654000I19600J0D01*
G01*
X156690400Y-48654000D01*
G75*
G02*
X156710000Y-48673600I0J-19600D01*
G01*
G37*
G36*
G01*
X156710000Y-48173600D02*
X156710000Y-48414400D01*
G75*
G02*
X156690400Y-48434000I-19600J0D01*
G01*
X155259600Y-48434000D01*
G75*
G02*
X155240000Y-48414400I0J19600D01*
G01*
X155240000Y-48173600D01*
G75*
G02*
X155259600Y-48154000I19600J0D01*
G01*
X156690400Y-48154000D01*
G75*
G02*
X156710000Y-48173600I0J-19600D01*
G01*
G37*
G36*
G01*
X156710000Y-47673600D02*
X156710000Y-47914400D01*
G75*
G02*
X156690400Y-47934000I-19600J0D01*
G01*
X155259600Y-47934000D01*
G75*
G02*
X155240000Y-47914400I0J19600D01*
G01*
X155240000Y-47673600D01*
G75*
G02*
X155259600Y-47654000I19600J0D01*
G01*
X156690400Y-47654000D01*
G75*
G02*
X156710000Y-47673600I0J-19600D01*
G01*
G37*
G36*
G01*
X156710000Y-47173600D02*
X156710000Y-47414400D01*
G75*
G02*
X156690400Y-47434000I-19600J0D01*
G01*
X155259600Y-47434000D01*
G75*
G02*
X155240000Y-47414400I0J19600D01*
G01*
X155240000Y-47173600D01*
G75*
G02*
X155259600Y-47154000I19600J0D01*
G01*
X156690400Y-47154000D01*
G75*
G02*
X156710000Y-47173600I0J-19600D01*
G01*
G37*
G36*
G01*
X156710000Y-46673600D02*
X156710000Y-46914400D01*
G75*
G02*
X156690400Y-46934000I-19600J0D01*
G01*
X155259600Y-46934000D01*
G75*
G02*
X155240000Y-46914400I0J19600D01*
G01*
X155240000Y-46673600D01*
G75*
G02*
X155259600Y-46654000I19600J0D01*
G01*
X156690400Y-46654000D01*
G75*
G02*
X156710000Y-46673600I0J-19600D01*
G01*
G37*
G36*
G01*
X156710000Y-46173600D02*
X156710000Y-46414400D01*
G75*
G02*
X156690400Y-46434000I-19600J0D01*
G01*
X155259600Y-46434000D01*
G75*
G02*
X155240000Y-46414400I0J19600D01*
G01*
X155240000Y-46173600D01*
G75*
G02*
X155259600Y-46154000I19600J0D01*
G01*
X156690400Y-46154000D01*
G75*
G02*
X156710000Y-46173600I0J-19600D01*
G01*
G37*
G36*
G01*
X156710000Y-45673600D02*
X156710000Y-45914400D01*
G75*
G02*
X156690400Y-45934000I-19600J0D01*
G01*
X155259600Y-45934000D01*
G75*
G02*
X155240000Y-45914400I0J19600D01*
G01*
X155240000Y-45673600D01*
G75*
G02*
X155259600Y-45654000I19600J0D01*
G01*
X156690400Y-45654000D01*
G75*
G02*
X156710000Y-45673600I0J-19600D01*
G01*
G37*
G36*
G01*
X156710000Y-45173600D02*
X156710000Y-45414400D01*
G75*
G02*
X156690400Y-45434000I-19600J0D01*
G01*
X155259600Y-45434000D01*
G75*
G02*
X155240000Y-45414400I0J19600D01*
G01*
X155240000Y-45173600D01*
G75*
G02*
X155259600Y-45154000I19600J0D01*
G01*
X156690400Y-45154000D01*
G75*
G02*
X156710000Y-45173600I0J-19600D01*
G01*
G37*
G36*
G01*
X156710000Y-44673600D02*
X156710000Y-44914400D01*
G75*
G02*
X156690400Y-44934000I-19600J0D01*
G01*
X155259600Y-44934000D01*
G75*
G02*
X155240000Y-44914400I0J19600D01*
G01*
X155240000Y-44673600D01*
G75*
G02*
X155259600Y-44654000I19600J0D01*
G01*
X156690400Y-44654000D01*
G75*
G02*
X156710000Y-44673600I0J-19600D01*
G01*
G37*
G36*
G01*
X156710000Y-44173600D02*
X156710000Y-44414400D01*
G75*
G02*
X156690400Y-44434000I-19600J0D01*
G01*
X155259600Y-44434000D01*
G75*
G02*
X155240000Y-44414400I0J19600D01*
G01*
X155240000Y-44173600D01*
G75*
G02*
X155259600Y-44154000I19600J0D01*
G01*
X156690400Y-44154000D01*
G75*
G02*
X156710000Y-44173600I0J-19600D01*
G01*
G37*
%TD*%
%TO.C,R11*%
G36*
G01*
X161500000Y-54462000D02*
X161500000Y-55012000D01*
G75*
G02*
X161300000Y-55212000I-200000J0D01*
G01*
X160900000Y-55212000D01*
G75*
G02*
X160700000Y-55012000I0J200000D01*
G01*
X160700000Y-54462000D01*
G75*
G02*
X160900000Y-54262000I200000J0D01*
G01*
X161300000Y-54262000D01*
G75*
G02*
X161500000Y-54462000I0J-200000D01*
G01*
G37*
G36*
G01*
X163150000Y-54462000D02*
X163150000Y-55012000D01*
G75*
G02*
X162950000Y-55212000I-200000J0D01*
G01*
X162550000Y-55212000D01*
G75*
G02*
X162350000Y-55012000I0J200000D01*
G01*
X162350000Y-54462000D01*
G75*
G02*
X162550000Y-54262000I200000J0D01*
G01*
X162950000Y-54262000D01*
G75*
G02*
X163150000Y-54462000I0J-200000D01*
G01*
G37*
%TD*%
%TO.C,R10*%
G36*
G01*
X115995000Y-57425000D02*
X115995000Y-56875000D01*
G75*
G02*
X116195000Y-56675000I200000J0D01*
G01*
X116595000Y-56675000D01*
G75*
G02*
X116795000Y-56875000I0J-200000D01*
G01*
X116795000Y-57425000D01*
G75*
G02*
X116595000Y-57625000I-200000J0D01*
G01*
X116195000Y-57625000D01*
G75*
G02*
X115995000Y-57425000I0J200000D01*
G01*
G37*
G36*
G01*
X114345000Y-57425000D02*
X114345000Y-56875000D01*
G75*
G02*
X114545000Y-56675000I200000J0D01*
G01*
X114945000Y-56675000D01*
G75*
G02*
X115145000Y-56875000I0J-200000D01*
G01*
X115145000Y-57425000D01*
G75*
G02*
X114945000Y-57625000I-200000J0D01*
G01*
X114545000Y-57625000D01*
G75*
G02*
X114345000Y-57425000I0J200000D01*
G01*
G37*
%TD*%
%TO.C,R8*%
G36*
G01*
X129965000Y-46757000D02*
X129965000Y-46207000D01*
G75*
G02*
X130165000Y-46007000I200000J0D01*
G01*
X130565000Y-46007000D01*
G75*
G02*
X130765000Y-46207000I0J-200000D01*
G01*
X130765000Y-46757000D01*
G75*
G02*
X130565000Y-46957000I-200000J0D01*
G01*
X130165000Y-46957000D01*
G75*
G02*
X129965000Y-46757000I0J200000D01*
G01*
G37*
G36*
G01*
X128315000Y-46757000D02*
X128315000Y-46207000D01*
G75*
G02*
X128515000Y-46007000I200000J0D01*
G01*
X128915000Y-46007000D01*
G75*
G02*
X129115000Y-46207000I0J-200000D01*
G01*
X129115000Y-46757000D01*
G75*
G02*
X128915000Y-46957000I-200000J0D01*
G01*
X128515000Y-46957000D01*
G75*
G02*
X128315000Y-46757000I0J200000D01*
G01*
G37*
%TD*%
%TO.C,R7*%
G36*
G01*
X128376000Y-43605000D02*
X128926000Y-43605000D01*
G75*
G02*
X129126000Y-43805000I0J-200000D01*
G01*
X129126000Y-44205000D01*
G75*
G02*
X128926000Y-44405000I-200000J0D01*
G01*
X128376000Y-44405000D01*
G75*
G02*
X128176000Y-44205000I0J200000D01*
G01*
X128176000Y-43805000D01*
G75*
G02*
X128376000Y-43605000I200000J0D01*
G01*
G37*
G36*
G01*
X128376000Y-41955000D02*
X128926000Y-41955000D01*
G75*
G02*
X129126000Y-42155000I0J-200000D01*
G01*
X129126000Y-42555000D01*
G75*
G02*
X128926000Y-42755000I-200000J0D01*
G01*
X128376000Y-42755000D01*
G75*
G02*
X128176000Y-42555000I0J200000D01*
G01*
X128176000Y-42155000D01*
G75*
G02*
X128376000Y-41955000I200000J0D01*
G01*
G37*
%TD*%
%TO.C,R6*%
G36*
G01*
X138959000Y-62186000D02*
X138409000Y-62186000D01*
G75*
G02*
X138209000Y-61986000I0J200000D01*
G01*
X138209000Y-61586000D01*
G75*
G02*
X138409000Y-61386000I200000J0D01*
G01*
X138959000Y-61386000D01*
G75*
G02*
X139159000Y-61586000I0J-200000D01*
G01*
X139159000Y-61986000D01*
G75*
G02*
X138959000Y-62186000I-200000J0D01*
G01*
G37*
G36*
G01*
X138959000Y-63836000D02*
X138409000Y-63836000D01*
G75*
G02*
X138209000Y-63636000I0J200000D01*
G01*
X138209000Y-63236000D01*
G75*
G02*
X138409000Y-63036000I200000J0D01*
G01*
X138959000Y-63036000D01*
G75*
G02*
X139159000Y-63236000I0J-200000D01*
G01*
X139159000Y-63636000D01*
G75*
G02*
X138959000Y-63836000I-200000J0D01*
G01*
G37*
%TD*%
%TO.C,R5*%
G36*
G01*
X124481000Y-62186000D02*
X123931000Y-62186000D01*
G75*
G02*
X123731000Y-61986000I0J200000D01*
G01*
X123731000Y-61586000D01*
G75*
G02*
X123931000Y-61386000I200000J0D01*
G01*
X124481000Y-61386000D01*
G75*
G02*
X124681000Y-61586000I0J-200000D01*
G01*
X124681000Y-61986000D01*
G75*
G02*
X124481000Y-62186000I-200000J0D01*
G01*
G37*
G36*
G01*
X124481000Y-63836000D02*
X123931000Y-63836000D01*
G75*
G02*
X123731000Y-63636000I0J200000D01*
G01*
X123731000Y-63236000D01*
G75*
G02*
X123931000Y-63036000I200000J0D01*
G01*
X124481000Y-63036000D01*
G75*
G02*
X124681000Y-63236000I0J-200000D01*
G01*
X124681000Y-63636000D01*
G75*
G02*
X124481000Y-63836000I-200000J0D01*
G01*
G37*
%TD*%
%TO.C,R4*%
G36*
G01*
X128376000Y-49701000D02*
X128926000Y-49701000D01*
G75*
G02*
X129126000Y-49901000I0J-200000D01*
G01*
X129126000Y-50301000D01*
G75*
G02*
X128926000Y-50501000I-200000J0D01*
G01*
X128376000Y-50501000D01*
G75*
G02*
X128176000Y-50301000I0J200000D01*
G01*
X128176000Y-49901000D01*
G75*
G02*
X128376000Y-49701000I200000J0D01*
G01*
G37*
G36*
G01*
X128376000Y-48051000D02*
X128926000Y-48051000D01*
G75*
G02*
X129126000Y-48251000I0J-200000D01*
G01*
X129126000Y-48651000D01*
G75*
G02*
X128926000Y-48851000I-200000J0D01*
G01*
X128376000Y-48851000D01*
G75*
G02*
X128176000Y-48651000I0J200000D01*
G01*
X128176000Y-48251000D01*
G75*
G02*
X128376000Y-48051000I200000J0D01*
G01*
G37*
%TD*%
%TO.C,R3*%
G36*
G01*
X108564000Y-51225000D02*
X109114000Y-51225000D01*
G75*
G02*
X109314000Y-51425000I0J-200000D01*
G01*
X109314000Y-51825000D01*
G75*
G02*
X109114000Y-52025000I-200000J0D01*
G01*
X108564000Y-52025000D01*
G75*
G02*
X108364000Y-51825000I0J200000D01*
G01*
X108364000Y-51425000D01*
G75*
G02*
X108564000Y-51225000I200000J0D01*
G01*
G37*
G36*
G01*
X108564000Y-49575000D02*
X109114000Y-49575000D01*
G75*
G02*
X109314000Y-49775000I0J-200000D01*
G01*
X109314000Y-50175000D01*
G75*
G02*
X109114000Y-50375000I-200000J0D01*
G01*
X108564000Y-50375000D01*
G75*
G02*
X108364000Y-50175000I0J200000D01*
G01*
X108364000Y-49775000D01*
G75*
G02*
X108564000Y-49575000I200000J0D01*
G01*
G37*
%TD*%
%TO.C,R2*%
G36*
G01*
X107040000Y-41573000D02*
X107590000Y-41573000D01*
G75*
G02*
X107790000Y-41773000I0J-200000D01*
G01*
X107790000Y-42173000D01*
G75*
G02*
X107590000Y-42373000I-200000J0D01*
G01*
X107040000Y-42373000D01*
G75*
G02*
X106840000Y-42173000I0J200000D01*
G01*
X106840000Y-41773000D01*
G75*
G02*
X107040000Y-41573000I200000J0D01*
G01*
G37*
G36*
G01*
X107040000Y-39923000D02*
X107590000Y-39923000D01*
G75*
G02*
X107790000Y-40123000I0J-200000D01*
G01*
X107790000Y-40523000D01*
G75*
G02*
X107590000Y-40723000I-200000J0D01*
G01*
X107040000Y-40723000D01*
G75*
G02*
X106840000Y-40523000I0J200000D01*
G01*
X106840000Y-40123000D01*
G75*
G02*
X107040000Y-39923000I200000J0D01*
G01*
G37*
%TD*%
%TO.C,R1*%
G36*
G01*
X113963000Y-50313000D02*
X113963000Y-49763000D01*
G75*
G02*
X114163000Y-49563000I200000J0D01*
G01*
X114563000Y-49563000D01*
G75*
G02*
X114763000Y-49763000I0J-200000D01*
G01*
X114763000Y-50313000D01*
G75*
G02*
X114563000Y-50513000I-200000J0D01*
G01*
X114163000Y-50513000D01*
G75*
G02*
X113963000Y-50313000I0J200000D01*
G01*
G37*
G36*
G01*
X112313000Y-50313000D02*
X112313000Y-49763000D01*
G75*
G02*
X112513000Y-49563000I200000J0D01*
G01*
X112913000Y-49563000D01*
G75*
G02*
X113113000Y-49763000I0J-200000D01*
G01*
X113113000Y-50313000D01*
G75*
G02*
X112913000Y-50513000I-200000J0D01*
G01*
X112513000Y-50513000D01*
G75*
G02*
X112313000Y-50313000I0J200000D01*
G01*
G37*
%TD*%
D32*
%TO.C,Q5*%
X115427000Y-52959000D03*
X113427000Y-53909000D03*
X113427000Y-52009000D03*
%TD*%
%TO.C,Q4*%
X119142000Y-62738000D03*
X121142000Y-61788000D03*
X121142000Y-63688000D03*
%TD*%
%TO.C,Q3*%
X133366000Y-62738000D03*
X135366000Y-61788000D03*
X135366000Y-63688000D03*
%TD*%
%TO.C,Q2*%
X131048000Y-62738000D03*
X129048000Y-63688000D03*
X129048000Y-61788000D03*
%TD*%
%TO.C,Q1*%
X117078000Y-62738000D03*
X115078000Y-63688000D03*
X115078000Y-61788000D03*
%TD*%
D29*
%TO.C,JP1*%
X110490000Y-45974000D03*
D30*
X113030000Y-45974000D03*
%TD*%
%TO.C,D4*%
G36*
G01*
X119030000Y-56893750D02*
X119030000Y-57406250D01*
G75*
G02*
X118811250Y-57625000I-218750J0D01*
G01*
X118373750Y-57625000D01*
G75*
G02*
X118155000Y-57406250I0J218750D01*
G01*
X118155000Y-56893750D01*
G75*
G02*
X118373750Y-56675000I218750J0D01*
G01*
X118811250Y-56675000D01*
G75*
G02*
X119030000Y-56893750I0J-218750D01*
G01*
G37*
G36*
G01*
X120605000Y-56893750D02*
X120605000Y-57406250D01*
G75*
G02*
X120386250Y-57625000I-218750J0D01*
G01*
X119948750Y-57625000D01*
G75*
G02*
X119730000Y-57406250I0J218750D01*
G01*
X119730000Y-56893750D01*
G75*
G02*
X119948750Y-56675000I218750J0D01*
G01*
X120386250Y-56675000D01*
G75*
G02*
X120605000Y-56893750I0J-218750D01*
G01*
G37*
%TD*%
%TO.C,D3*%
G36*
G01*
X157638000Y-63370750D02*
X157638000Y-63883250D01*
G75*
G02*
X157419250Y-64102000I-218750J0D01*
G01*
X156981750Y-64102000D01*
G75*
G02*
X156763000Y-63883250I0J218750D01*
G01*
X156763000Y-63370750D01*
G75*
G02*
X156981750Y-63152000I218750J0D01*
G01*
X157419250Y-63152000D01*
G75*
G02*
X157638000Y-63370750I0J-218750D01*
G01*
G37*
G36*
G01*
X159213000Y-63370750D02*
X159213000Y-63883250D01*
G75*
G02*
X158994250Y-64102000I-218750J0D01*
G01*
X158556750Y-64102000D01*
G75*
G02*
X158338000Y-63883250I0J218750D01*
G01*
X158338000Y-63370750D01*
G75*
G02*
X158556750Y-63152000I218750J0D01*
G01*
X158994250Y-63152000D01*
G75*
G02*
X159213000Y-63370750I0J-218750D01*
G01*
G37*
%TD*%
%TO.C,C9*%
G36*
G01*
X144268000Y-44633000D02*
X143768000Y-44633000D01*
G75*
G02*
X143543000Y-44408000I0J225000D01*
G01*
X143543000Y-43958000D01*
G75*
G02*
X143768000Y-43733000I225000J0D01*
G01*
X144268000Y-43733000D01*
G75*
G02*
X144493000Y-43958000I0J-225000D01*
G01*
X144493000Y-44408000D01*
G75*
G02*
X144268000Y-44633000I-225000J0D01*
G01*
G37*
G36*
G01*
X144268000Y-46183000D02*
X143768000Y-46183000D01*
G75*
G02*
X143543000Y-45958000I0J225000D01*
G01*
X143543000Y-45508000D01*
G75*
G02*
X143768000Y-45283000I225000J0D01*
G01*
X144268000Y-45283000D01*
G75*
G02*
X144493000Y-45508000I0J-225000D01*
G01*
X144493000Y-45958000D01*
G75*
G02*
X144268000Y-46183000I-225000J0D01*
G01*
G37*
%TD*%
%TO.C,C4*%
G36*
G01*
X149856000Y-54539000D02*
X149356000Y-54539000D01*
G75*
G02*
X149131000Y-54314000I0J225000D01*
G01*
X149131000Y-53864000D01*
G75*
G02*
X149356000Y-53639000I225000J0D01*
G01*
X149856000Y-53639000D01*
G75*
G02*
X150081000Y-53864000I0J-225000D01*
G01*
X150081000Y-54314000D01*
G75*
G02*
X149856000Y-54539000I-225000J0D01*
G01*
G37*
G36*
G01*
X149856000Y-56089000D02*
X149356000Y-56089000D01*
G75*
G02*
X149131000Y-55864000I0J225000D01*
G01*
X149131000Y-55414000D01*
G75*
G02*
X149356000Y-55189000I225000J0D01*
G01*
X149856000Y-55189000D01*
G75*
G02*
X150081000Y-55414000I0J-225000D01*
G01*
X150081000Y-55864000D01*
G75*
G02*
X149856000Y-56089000I-225000J0D01*
G01*
G37*
%TD*%
%TO.C,C5*%
G36*
G01*
X160405000Y-46807000D02*
X160905000Y-46807000D01*
G75*
G02*
X161130000Y-47032000I0J-225000D01*
G01*
X161130000Y-47482000D01*
G75*
G02*
X160905000Y-47707000I-225000J0D01*
G01*
X160405000Y-47707000D01*
G75*
G02*
X160180000Y-47482000I0J225000D01*
G01*
X160180000Y-47032000D01*
G75*
G02*
X160405000Y-46807000I225000J0D01*
G01*
G37*
G36*
G01*
X160405000Y-45257000D02*
X160905000Y-45257000D01*
G75*
G02*
X161130000Y-45482000I0J-225000D01*
G01*
X161130000Y-45932000D01*
G75*
G02*
X160905000Y-46157000I-225000J0D01*
G01*
X160405000Y-46157000D01*
G75*
G02*
X160180000Y-45932000I0J225000D01*
G01*
X160180000Y-45482000D01*
G75*
G02*
X160405000Y-45257000I225000J0D01*
G01*
G37*
%TD*%
%TO.C,C6*%
G36*
G01*
X161600000Y-51566000D02*
X161600000Y-52066000D01*
G75*
G02*
X161375000Y-52291000I-225000J0D01*
G01*
X160925000Y-52291000D01*
G75*
G02*
X160700000Y-52066000I0J225000D01*
G01*
X160700000Y-51566000D01*
G75*
G02*
X160925000Y-51341000I225000J0D01*
G01*
X161375000Y-51341000D01*
G75*
G02*
X161600000Y-51566000I0J-225000D01*
G01*
G37*
G36*
G01*
X163150000Y-51566000D02*
X163150000Y-52066000D01*
G75*
G02*
X162925000Y-52291000I-225000J0D01*
G01*
X162475000Y-52291000D01*
G75*
G02*
X162250000Y-52066000I0J225000D01*
G01*
X162250000Y-51566000D01*
G75*
G02*
X162475000Y-51341000I225000J0D01*
G01*
X162925000Y-51341000D01*
G75*
G02*
X163150000Y-51566000I0J-225000D01*
G01*
G37*
%TD*%
%TO.C,C8*%
G36*
G01*
X145956000Y-55568000D02*
X146906000Y-55568000D01*
G75*
G02*
X147156000Y-55818000I0J-250000D01*
G01*
X147156000Y-56318000D01*
G75*
G02*
X146906000Y-56568000I-250000J0D01*
G01*
X145956000Y-56568000D01*
G75*
G02*
X145706000Y-56318000I0J250000D01*
G01*
X145706000Y-55818000D01*
G75*
G02*
X145956000Y-55568000I250000J0D01*
G01*
G37*
G36*
G01*
X145956000Y-53668000D02*
X146906000Y-53668000D01*
G75*
G02*
X147156000Y-53918000I0J-250000D01*
G01*
X147156000Y-54418000D01*
G75*
G02*
X146906000Y-54668000I-250000J0D01*
G01*
X145956000Y-54668000D01*
G75*
G02*
X145706000Y-54418000I0J250000D01*
G01*
X145706000Y-53918000D01*
G75*
G02*
X145956000Y-53668000I250000J0D01*
G01*
G37*
%TD*%
%TO.C,C7*%
G36*
G01*
X164305000Y-45905000D02*
X163355000Y-45905000D01*
G75*
G02*
X163105000Y-45655000I0J250000D01*
G01*
X163105000Y-45155000D01*
G75*
G02*
X163355000Y-44905000I250000J0D01*
G01*
X164305000Y-44905000D01*
G75*
G02*
X164555000Y-45155000I0J-250000D01*
G01*
X164555000Y-45655000D01*
G75*
G02*
X164305000Y-45905000I-250000J0D01*
G01*
G37*
G36*
G01*
X164305000Y-47805000D02*
X163355000Y-47805000D01*
G75*
G02*
X163105000Y-47555000I0J250000D01*
G01*
X163105000Y-47055000D01*
G75*
G02*
X163355000Y-46805000I250000J0D01*
G01*
X164305000Y-46805000D01*
G75*
G02*
X164555000Y-47055000I0J-250000D01*
G01*
X164555000Y-47555000D01*
G75*
G02*
X164305000Y-47805000I-250000J0D01*
G01*
G37*
%TD*%
%TO.C,C3*%
G36*
G01*
X124894000Y-41689000D02*
X124894000Y-42639000D01*
G75*
G02*
X124644000Y-42889000I-250000J0D01*
G01*
X124144000Y-42889000D01*
G75*
G02*
X123894000Y-42639000I0J250000D01*
G01*
X123894000Y-41689000D01*
G75*
G02*
X124144000Y-41439000I250000J0D01*
G01*
X124644000Y-41439000D01*
G75*
G02*
X124894000Y-41689000I0J-250000D01*
G01*
G37*
G36*
G01*
X122994000Y-41689000D02*
X122994000Y-42639000D01*
G75*
G02*
X122744000Y-42889000I-250000J0D01*
G01*
X122244000Y-42889000D01*
G75*
G02*
X121994000Y-42639000I0J250000D01*
G01*
X121994000Y-41689000D01*
G75*
G02*
X122244000Y-41439000I250000J0D01*
G01*
X122744000Y-41439000D01*
G75*
G02*
X122994000Y-41689000I0J-250000D01*
G01*
G37*
%TD*%
%TO.C,C1*%
G36*
G01*
X116660000Y-42639000D02*
X116660000Y-41689000D01*
G75*
G02*
X116910000Y-41439000I250000J0D01*
G01*
X117410000Y-41439000D01*
G75*
G02*
X117660000Y-41689000I0J-250000D01*
G01*
X117660000Y-42639000D01*
G75*
G02*
X117410000Y-42889000I-250000J0D01*
G01*
X116910000Y-42889000D01*
G75*
G02*
X116660000Y-42639000I0J250000D01*
G01*
G37*
G36*
G01*
X118560000Y-42639000D02*
X118560000Y-41689000D01*
G75*
G02*
X118810000Y-41439000I250000J0D01*
G01*
X119310000Y-41439000D01*
G75*
G02*
X119560000Y-41689000I0J-250000D01*
G01*
X119560000Y-42639000D01*
G75*
G02*
X119310000Y-42889000I-250000J0D01*
G01*
X118810000Y-42889000D01*
G75*
G02*
X118560000Y-42639000I0J250000D01*
G01*
G37*
%TD*%
M02*
